<svg width="59" height="59" viewBox="0 0 59 59" fill="none" xmlns="http://www.w3.org/2000/svg">
<g clip-path="url(#clip0)">
<path d="M24.7391 46.4197C21.878 46.4197 19.5502 48.7475 19.5502 51.6086C19.5502 54.4698 21.878 56.7975 24.7391 56.7975C27.6003 56.7975 29.928 54.4698 29.928 51.6086C29.9279 48.7475 27.6002 46.4197 24.7391 46.4197ZM24.7391 53.9001C23.4755 53.9001 22.4475 52.872 22.4475 51.6084C22.4475 50.3447 23.4756 49.3167 24.7391 49.3167C26.0027 49.3167 27.0308 50.3449 27.0308 51.6084C27.0308 52.8722 26.0027 53.9001 24.7391 53.9001Z" fill="#F81D3D"/>
<path d="M42.9399 46.4197C40.0787 46.4197 37.751 48.7475 37.751 51.6086C37.751 54.4698 40.0787 56.7975 42.9399 56.7975C45.801 56.7975 48.1288 54.4698 48.1288 51.6086C48.1287 48.7475 45.8009 46.4197 42.9399 46.4197ZM42.9399 53.9001C41.6762 53.9001 40.6482 52.872 40.6482 51.6084C40.6482 50.3447 41.6763 49.3167 42.9399 49.3167C44.2035 49.3167 45.2315 50.3449 45.2315 51.6084C45.2315 52.8722 44.2034 53.9001 42.9399 53.9001Z" fill="#F81D3D"/>
<path d="M44.2174 19.1007H23.458C22.6579 19.1007 22.0094 19.7492 22.0094 20.5493C22.0094 21.3494 22.658 21.9979 23.458 21.9979H44.2174C45.0174 21.9979 45.666 21.3494 45.666 20.5493C45.666 19.7491 45.0174 19.1007 44.2174 19.1007Z" fill="#2A2A2A"/>
<path d="M43.0875 26.6232H24.588C23.7879 26.6232 23.1393 27.2717 23.1393 28.0718C23.1393 28.8719 23.7879 29.5204 24.588 29.5204H43.0874C43.8874 29.5204 44.536 28.8719 44.536 28.0718C44.536 27.2718 43.8874 26.6232 43.0875 26.6232Z" fill="#2A2A2A"/>
<path d="M58.348 12.6463C57.7956 11.9683 56.9769 11.5794 56.1022 11.5794H10.9793L10.068 7.15571C9.87779 6.23291 9.24837 5.45807 8.384 5.08275L2.0257 2.32288C1.29166 2.00403 0.438576 2.34086 0.120182 3.07467C-0.198556 3.80872 0.138274 4.66192 0.871973 4.98031L7.23039 7.74029L14.2396 41.7646C14.5157 43.1045 15.7091 44.0771 17.0773 44.0771H51.782C52.5821 44.0771 53.2307 43.4286 53.2307 42.6285C53.2307 41.8284 52.5821 41.1799 51.782 41.1799H17.0774L16.2248 37.0411H52.0503C53.4184 37.0411 54.6119 36.0685 54.8878 34.7286L58.9398 15.0609C59.1163 14.2045 58.9005 13.3242 58.348 12.6463ZM52.0503 34.1441H15.628L11.5762 14.4766L56.1021 14.4767L52.0503 34.1441Z" fill="#2A2A2A"/>
</g>
<defs>
<clipPath id="clip0">
<rect width="59" height="59" fill="white"/>
</clipPath>
</defs>
</svg>
