<svg width="59" height="59" viewBox="0 0 59 59" fill="none" xmlns="http://www.w3.org/2000/svg">
<path d="M32.6113 15.9583C32.6113 12.5271 29.8199 9.73566 26.3887 9.73566C22.9575 9.73566 20.166 12.5271 20.166 15.9583C20.166 19.3895 22.9575 22.181 26.3887 22.181C29.8199 22.181 32.6113 19.3895 32.6113 15.9583ZM22.4707 15.9583C22.4707 13.7979 24.2283 12.0403 26.3887 12.0403C28.5491 12.0403 30.3066 13.7979 30.3066 15.9583C30.3066 18.1187 28.5491 19.8763 26.3887 19.8763C24.2283 19.8763 22.4707 18.1187 22.4707 15.9583Z" fill="#F81D3D"/>
<path d="M16.3342 30.8586C17.8149 30.1041 18.9131 28.8182 19.4267 27.2379C19.9401 25.6575 19.8075 23.9716 19.0531 22.4911C18.2986 21.0104 17.0127 19.9123 15.4324 19.3987C13.8518 18.8851 12.1661 19.0178 10.6856 19.7722C9.20491 20.5267 8.10672 21.8126 7.59312 23.3929C7.07964 24.9733 7.21227 26.6592 7.96671 28.1397C8.72115 29.6204 10.0071 30.7186 11.5874 31.2322C12.2202 31.4378 12.8698 31.5397 13.5164 31.5397C14.4847 31.5398 15.4463 31.311 16.3342 30.8586ZM12.2995 29.0403C11.3046 28.7171 10.4951 28.0257 10.0201 27.0935C9.54508 26.1614 9.46153 25.1001 9.78488 24.1052C10.1081 23.1102 10.7995 22.3007 11.7317 21.8257C12.2907 21.5409 12.896 21.3968 13.5057 21.3968C13.9127 21.3968 14.3218 21.4611 14.7201 21.5905C15.7151 21.9138 16.5246 22.6052 16.9996 23.5373C17.4746 24.4694 17.5581 25.5307 17.2348 26.5257C16.9116 27.5206 16.2201 28.3301 15.288 28.8051C14.3558 29.28 13.2945 29.3635 12.2995 29.0403Z" fill="#F81D3D"/>
<path d="M14.7717 45.4894C15.8738 46.29 17.1529 46.6755 18.4208 46.6755C20.3466 46.6755 22.247 45.7864 23.463 44.1128C24.4399 42.7681 24.8347 41.1236 24.5747 39.4819C24.3146 37.8403 23.431 36.3983 22.0863 35.4214C20.7416 34.4446 19.0973 34.0496 17.4555 34.3098C15.8138 34.5697 14.3718 35.4535 13.395 36.798C11.3785 39.5737 11.996 43.4726 14.7717 45.4894ZM15.2597 38.1527C15.8747 37.3061 16.7826 36.7497 17.8162 36.586C18.0237 36.5532 18.2312 36.5369 18.4374 36.5369C19.2579 36.5369 20.0553 36.7945 20.7318 37.286C22.4795 38.5558 22.8683 41.0105 21.5985 42.7582C20.3287 44.5057 17.874 44.8946 16.1264 43.6249C14.3787 42.3551 13.9899 39.9003 15.2597 38.1527Z" fill="#F81D3D"/>
<path d="M34.3564 46.6754C35.6244 46.6754 36.9038 46.2899 38.0057 45.4893C40.7813 43.4726 41.3989 39.5736 39.3823 36.798C38.4053 35.4534 36.9633 34.5697 35.3218 34.3097C33.6801 34.0498 32.0356 34.4446 30.691 35.4214C29.3463 36.3982 28.4627 37.8404 28.2026 39.4819C27.9425 41.1234 28.3374 42.7681 29.3142 44.1127C30.5304 45.7866 32.4304 46.6754 34.3564 46.6754ZM32.0455 37.286C32.892 36.6709 33.9271 36.4221 34.9611 36.586C35.9946 36.7497 36.9026 37.3061 37.5176 38.1527C38.7873 39.9003 38.3985 42.3551 36.6509 43.6248C34.9032 44.8946 32.4484 44.5058 31.1787 42.7581C29.9091 41.0105 30.2979 38.5557 32.0455 37.286Z" fill="#F81D3D"/>
<path d="M37.345 19.3985C35.7646 19.9121 34.4787 21.0103 33.7243 22.491C32.9699 23.9716 32.8373 25.6574 33.3508 27.2378C33.8644 28.8182 34.9625 30.1042 36.4432 30.8585C37.3311 31.3109 38.2926 31.5397 39.261 31.5397C39.9076 31.5397 40.5574 31.4376 41.19 31.2322C42.7705 30.7186 44.0564 29.6204 44.8107 28.1397C45.5651 26.6591 45.6978 24.9733 45.1843 23.3929C44.6707 21.8125 43.5725 20.5266 42.0919 19.7722C40.6113 19.0178 38.9255 18.8853 37.345 19.3985ZM41.0456 21.8257C41.9778 22.3007 42.6692 23.1101 42.9924 24.1052C43.3158 25.1001 43.2322 26.1614 42.7572 27.0935C42.2822 28.0257 41.4728 28.7171 40.4778 29.0403C39.4827 29.3635 38.4215 29.2801 37.4894 28.8051C36.5573 28.3301 35.8659 27.5207 35.5426 26.5257C35.2193 25.5307 35.3028 24.4694 35.7778 23.5373C36.2528 22.6052 37.0622 21.9137 38.0573 21.5905C38.4556 21.461 38.8646 21.3968 39.2717 21.3968C39.8813 21.3968 40.4866 21.5408 41.0456 21.8257Z" fill="#F81D3D"/>
<path d="M30.3403 29.5C30.3403 27.321 28.5676 25.5483 26.3887 25.5483C24.2097 25.5483 22.437 27.321 22.437 29.5C22.437 31.6789 24.2097 33.4516 26.3887 33.4516C28.5676 33.4516 30.3403 31.6789 30.3403 29.5ZM24.7417 29.5C24.7417 28.5918 25.4805 27.853 26.3887 27.853C27.2968 27.853 28.0356 28.5918 28.0356 29.5C28.0356 30.4081 27.2968 31.1469 26.3887 31.1469C25.4805 31.1469 24.7417 30.4081 24.7417 29.5Z" fill="black"/>
<path d="M58.6625 50.9054C57.3594 49.6023 55.627 48.8847 53.7841 48.8847C51.9414 48.8847 50.209 49.6024 48.9059 50.9054C47.1786 52.6327 44.8819 53.584 42.4392 53.584H37.2054C40.09 52.287 42.7448 50.463 45.0482 48.1596C50.0325 43.1754 52.7773 36.5487 52.7773 29.5C52.7773 24.3444 51.2901 19.3496 48.4765 15.0555C48.1278 14.5231 47.4133 14.3743 46.881 14.7232C46.3486 15.072 46.1999 15.7863 46.5487 16.3186C49.1158 20.2363 50.4727 24.7944 50.4727 29.5C50.4727 42.78 39.6686 53.584 26.3887 53.584C13.1087 53.584 2.30469 42.78 2.30469 29.5C2.30469 16.22 13.1087 5.41602 26.3887 5.41602C31.1022 5.41602 35.6669 6.77716 39.589 9.35242C40.1209 9.70181 40.8354 9.55374 41.1848 9.02158C41.534 8.48955 41.386 7.77521 40.8539 7.42582C36.555 4.60327 31.5529 3.11133 26.3887 3.11133C19.34 3.11133 12.7132 5.85621 7.72912 10.8404C2.745 15.8247 0 22.4513 0 29.5C0 36.5487 2.74488 43.1754 7.72912 48.1597C12.7132 53.1438 19.34 55.8887 26.3887 55.8887H42.4392C45.4976 55.8887 48.373 54.6977 50.5356 52.535C51.4033 51.6673 52.557 51.1893 53.7841 51.1893C55.0113 51.1893 56.165 51.6672 57.0327 52.535C57.4827 52.985 58.2124 52.985 58.6625 52.535C59.1125 52.085 59.1125 51.3554 58.6625 50.9054Z" fill="black"/>
<path d="M44.2419 12.8153C44.545 12.8153 44.8423 12.6931 45.0567 12.4788C45.271 12.2633 45.3943 11.9671 45.3943 11.6641C45.3943 11.3598 45.271 11.0637 45.0567 10.8482C44.8423 10.6339 44.545 10.5117 44.2419 10.5117C43.9389 10.5117 43.6416 10.6339 43.4272 10.8482C43.2129 11.0637 43.0896 11.3598 43.0896 11.6641C43.0896 11.9671 43.2129 12.2644 43.4272 12.4788C43.6416 12.6931 43.9389 12.8153 44.2419 12.8153Z" fill="black"/>
</svg>
