<svg width="55" height="55" viewBox="0 0 55 55" fill="none" xmlns="http://www.w3.org/2000/svg">
<g clip-path="url(#clip0)">
<path d="M15.3307 8.81592H11.4022C10.7824 8.81592 10.2798 9.31855 10.2798 9.93837V16.1118C10.2798 16.7316 10.7824 17.2343 11.4022 17.2343H15.3307C15.9506 17.2343 16.4532 16.7316 16.4532 16.1118V9.93837C16.4532 9.31855 15.9506 8.81592 15.3307 8.81592ZM14.2083 14.9894H12.5246V11.0608H14.2083V14.9894Z" fill="#F81D3D"/>
<path d="M23.1879 8.81592H19.2594C18.6395 8.81592 18.1369 9.31855 18.1369 9.93837V16.1118C18.1369 16.7316 18.6395 17.2343 19.2594 17.2343H23.1879C23.8077 17.2343 24.3104 16.7316 24.3104 16.1118V9.93837C24.3104 9.31855 23.8077 8.81592 23.1879 8.81592ZM22.0654 14.9894H20.3818V11.0608H22.0654V14.9894Z" fill="#F81D3D"/>
<path d="M15.3307 19.8158H11.4022C10.7824 19.8158 10.2798 20.3184 10.2798 20.9383V27.1117C10.2798 27.7315 10.7824 28.2342 11.4022 28.2342H15.3307C15.9506 28.2342 16.4532 27.7315 16.4532 27.1117V20.9383C16.4532 20.3185 15.9506 19.8158 15.3307 19.8158ZM14.2083 25.9894H12.5246V22.0608H14.2083V25.9894Z" fill="#2A2A2A"/>
<path d="M23.1879 19.8158H19.2594C18.6395 19.8158 18.1369 20.3184 18.1369 20.9383V27.1117C18.1369 27.7315 18.6395 28.2342 19.2594 28.2342H23.1879C23.8077 28.2342 24.3104 27.7315 24.3104 27.1117V20.9383C24.3104 20.3185 23.8077 19.8158 23.1879 19.8158ZM22.0654 25.9894H20.3818V22.0608H22.0654V25.9894Z" fill="#2A2A2A"/>
<path d="M15.3307 30.8159H11.4022C10.7824 30.8159 10.2798 31.3185 10.2798 31.9384V38.1118C10.2798 38.7316 10.7824 39.2343 11.4022 39.2343H15.3307C15.9506 39.2343 16.4532 38.7316 16.4532 38.1118V31.9384C16.4532 31.3187 15.9506 30.8159 15.3307 30.8159ZM14.2083 36.9895H12.5246V33.0609H14.2083V36.9895Z" fill="#F81D3D"/>
<path d="M23.1879 30.8159H19.2594C18.6395 30.8159 18.1369 31.3185 18.1369 31.9384V38.1118C18.1369 38.7316 18.6395 39.2343 19.2594 39.2343H23.1879C23.8077 39.2343 24.3104 38.7316 24.3104 38.1118V31.9384C24.3104 31.3187 23.8077 30.8159 23.1879 30.8159ZM22.0654 36.9895H20.3818V33.0609H22.0654V36.9895Z" fill="#F81D3D"/>
<path d="M15.3307 41.8159H11.4022C10.7824 41.8159 10.2798 42.3185 10.2798 42.9384V49.1118C10.2798 49.7316 10.7824 50.2343 11.4022 50.2343H15.3307C15.9506 50.2343 16.4532 49.7316 16.4532 49.1118V42.9384C16.4532 42.3187 15.9506 41.8159 15.3307 41.8159ZM14.2083 47.9895H12.5246V44.0609H14.2083V47.9895Z" fill="#2A2A2A"/>
<path d="M23.1879 41.8159H19.2594C18.6395 41.8159 18.1369 42.3185 18.1369 42.9384V49.1118C18.1369 49.7316 18.6395 50.2343 19.2594 50.2343H23.1879C23.8077 50.2343 24.3104 49.7316 24.3104 49.1118V42.9384C24.3104 42.3187 23.8077 41.8159 23.1879 41.8159ZM22.0654 47.9895H20.3818V44.0609H22.0654V47.9895Z" fill="#2A2A2A"/>
<path d="M43.0232 45.3843H43.0031C42.3833 45.3843 41.8806 45.887 41.8806 46.5068C41.8806 47.1266 42.3833 47.6292 43.0031 47.6292H43.0232C43.643 47.6292 44.1456 47.1266 44.1456 46.5068C44.1456 45.887 43.643 45.3843 43.0232 45.3843Z" fill="black"/>
<path d="M43.0232 18.9156H43.0031C42.3833 18.9156 41.8806 19.4182 41.8806 20.038C41.8806 20.6579 42.3833 21.1605 43.0031 21.1605H43.0232C43.643 21.1605 44.1456 20.6579 44.1456 20.038C44.1456 19.4182 43.643 18.9156 43.0232 18.9156Z" fill="#F81D3D"/>
<path d="M43.0232 24.2095H43.0031C42.3833 24.2095 41.8806 24.7121 41.8806 25.3319C41.8806 25.9518 42.3833 26.4544 43.0031 26.4544H43.0232C43.643 26.4544 44.1456 25.9518 44.1456 25.3319C44.1456 24.7121 43.643 24.2095 43.0232 24.2095Z" fill="black"/>
<path d="M43.0232 29.5031H43.0031C42.3833 29.5031 41.8806 30.0057 41.8806 30.6255C41.8806 31.2453 42.3833 31.748 43.0031 31.748H43.0232C43.643 31.748 44.1456 31.2453 44.1456 30.6255C44.1456 30.0057 43.643 29.5031 43.0232 29.5031Z" fill="#F81D3D"/>
<path d="M43.0232 34.7968H43.0031C42.3833 34.7968 41.8806 35.2994 41.8806 35.9192C41.8806 36.539 42.3833 37.0417 43.0031 37.0417H43.0232C43.643 37.0417 44.1456 36.539 44.1456 35.9192C44.1456 35.2994 43.643 34.7968 43.0232 34.7968Z" fill="black"/>
<path d="M43.0232 40.0905H43.0031C42.3833 40.0905 41.8806 40.5931 41.8806 41.213C41.8806 41.8328 42.3833 42.3354 43.0031 42.3354H43.0232C43.643 42.3354 44.1456 41.8328 44.1456 41.213C44.1456 40.5931 43.643 40.0905 43.0232 40.0905Z" fill="#F81D3D"/>
<path d="M60.0933 56.5918H56.4787V15.7822C56.4787 15.1173 55.8876 14.5781 55.1587 14.5781H33.244V6.38157C33.244 5.82326 32.8233 5.33812 32.2277 5.20975L8.20534 0.0321402C7.81262 -0.0522115 7.39917 0.0314488 7.08274 0.259844C6.76618 0.488008 6.58188 0.835902 6.58188 1.20396V56.5918H3.73312C3.00426 56.5918 2.41321 57.131 2.41321 57.7959C2.41321 58.4608 3.00426 59 3.73312 59H60.0933C60.8222 59 61.4132 58.4608 61.4132 57.7959C61.4132 57.131 60.8222 56.5918 60.0933 56.5918ZM30.6042 15.7822V56.5918H9.22171V2.72552L30.6042 7.3341V15.7822ZM53.8388 56.5918H33.244V51.0933H45.6072C46.3361 51.0933 46.9271 50.5541 46.9271 49.8892C46.9271 49.2243 46.3361 48.6851 45.6072 48.6851H33.244V45.4146H45.6072C46.3361 45.4146 46.9271 44.8755 46.9271 44.2106C46.9271 43.5457 46.3361 43.0065 45.6072 43.0065H33.244V39.7358H45.6072C46.3361 39.7358 46.9271 39.1966 46.9271 38.5317C46.9271 37.8668 46.3361 37.3276 45.6072 37.3276H33.244V34.057H45.6072C46.3361 34.057 46.9271 33.5178 46.9271 32.8529C46.9271 32.188 46.3361 31.6488 45.6072 31.6488H33.244V28.3782H45.6072C46.3361 28.3782 46.9271 27.8391 46.9271 27.1742C46.9271 26.5093 46.3361 25.9701 45.6072 25.9701H33.244V22.6995H45.6072C46.3361 22.6995 46.9271 22.1603 46.9271 21.4954C46.9271 20.8305 46.3361 20.2913 45.6072 20.2913H33.244V16.9863H53.8387V56.5918H53.8388Z" fill="black"/>
</g>
<defs>
<clipPath id="clip0">
<rect width="55" height="55" fill="white"/>
</clipPath>
</defs>
</svg>
