<svg width="59" height="59" viewBox="0 0 59 59" fill="none" xmlns="http://www.w3.org/2000/svg">
<path d="M59 22.4501C59 21.801 58.4737 21.2748 57.8247 21.2748C57.1757 21.2748 56.6494 21.801 56.6494 22.4501C56.6494 23.453 55.9722 24.2988 55.0516 24.5594C53.7982 21.8862 51.7571 19.4435 49.0159 17.3948C45.3967 14.6898 40.8743 12.9167 35.9682 12.2336C37.0927 11.0869 37.7877 9.51777 37.7877 7.78868C37.7877 4.28533 34.9374 1.43512 31.434 1.43512C27.9305 1.43512 25.0803 4.28533 25.0803 7.78868C25.0803 9.52135 25.7782 11.0934 26.9067 12.2408C24.3682 12.6102 21.8981 13.2911 19.5945 14.2647C16.9781 12.001 13.2435 11.4371 10.0469 12.8914C9.70308 13.0477 9.45544 13.36 9.38123 13.7305C9.30702 14.101 9.41557 14.4845 9.67266 14.7613L12.952 18.2902C11.0639 19.8795 9.50338 21.7048 8.37581 23.6456H2.51084C1.12642 23.6455 0 24.7719 0 26.1563V33.0627C0 34.1649 0.706502 35.1276 1.75802 35.458L7.02791 37.1142C8.50925 41.3585 11.9527 43.5466 14.2664 45.0165C14.3566 45.0738 14.4453 45.1301 14.5329 45.1859L16.1393 56.5541C16.2212 57.1339 16.7174 57.565 17.3029 57.565H22.8555C23.441 57.565 23.9372 57.134 24.0191 56.5541L25.0208 49.4647C27.0873 49.8722 29.2179 50.0783 31.3714 50.0783C33.6559 50.0783 35.9085 49.8477 38.0861 49.392L39.0982 56.5541C39.1801 57.134 39.6763 57.565 40.2619 57.565H45.8144C46.3999 57.565 46.8961 57.134 46.9781 56.5541L48.6274 44.883C53.6406 41.2912 56.5041 36.2563 56.5041 30.9972C56.5041 29.5527 56.2956 28.1341 55.8898 26.7609C57.6949 26.159 59 24.4546 59 22.4501ZM31.4341 3.78556C33.6413 3.78556 35.4371 5.58125 35.4371 7.78845C35.4371 9.99565 33.6414 11.7916 31.4341 11.7916C29.2268 11.7916 27.4311 9.99588 27.4311 7.78845C27.431 5.58114 29.2269 3.78556 31.4341 3.78556ZM46.8722 43.2427C46.5996 43.4291 46.4179 43.7215 46.3717 44.0486L44.7938 55.2145H41.2831L40.2344 47.7939C40.1878 47.4634 40.0028 47.1684 39.7257 46.9824C39.4486 46.7963 39.1054 46.737 38.782 46.819C36.4032 47.4219 33.9099 47.7278 31.3716 47.7278C28.9619 47.7278 26.5856 47.4505 24.309 46.9036C23.9871 46.8262 23.6474 46.8883 23.3734 47.0746C23.0997 47.2609 22.917 47.554 22.8708 47.8819L21.8346 55.2145H18.3239L16.7849 44.3245C16.7376 43.9889 16.5474 43.6902 16.2636 43.5048C16.0303 43.3525 15.7837 43.1958 15.5268 43.0325C13.1505 41.5229 10.1933 39.6441 9.08992 35.8477C8.9801 35.4701 8.6889 35.1724 8.3137 35.0544L2.46256 33.2155C2.39561 33.1944 2.35044 33.133 2.35044 33.0627V26.1563C2.35044 26.068 2.42223 25.9961 2.51061 25.9961H9.06825C9.50465 25.9961 9.90509 25.7543 10.1084 25.3681C11.2723 23.1561 13.0963 21.0782 15.3828 19.3589C15.6489 19.1587 15.8176 18.8552 15.8471 18.5236C15.8766 18.192 15.7641 17.8634 15.5374 17.6196L12.6656 14.5292C14.7767 14.1787 16.9768 14.8729 18.5035 16.4678C18.8493 16.8289 19.3861 16.932 19.8408 16.724C23.3594 15.1168 27.3466 14.2672 31.3713 14.2672C43.9335 14.2672 54.1535 21.7724 54.1535 30.9977C54.1539 35.6162 51.4999 40.0794 46.8722 43.2427Z" fill="black"/>
<path d="M14.5266 22.5225C13.8776 22.5225 13.3513 23.0486 13.3513 23.6977V25.0703C13.3513 25.7194 13.8776 26.2456 14.5266 26.2456C15.1756 26.2456 15.7018 25.7194 15.7018 25.0703V23.6977C15.7018 23.0487 15.1756 22.5225 14.5266 22.5225Z" fill="#F81D3D"/>
<path d="M35.8638 16.0341H35.1152C34.4662 16.0341 33.9399 16.5602 33.9399 17.2093C33.9399 17.8584 34.4662 18.3846 35.1152 18.3846H35.8638C36.5128 18.3846 37.0391 17.8584 37.0391 17.2093C37.0391 16.5602 36.5128 16.0341 35.8638 16.0341Z" fill="#F81D3D"/>
<path d="M30.3735 16.0341H26.3805C25.7315 16.0341 25.2052 16.5602 25.2052 17.2093C25.2052 17.8584 25.7315 18.3846 26.3805 18.3846H30.3735C31.0225 18.3846 31.5488 17.8584 31.5488 17.2093C31.5488 16.5602 31.0225 16.0341 30.3735 16.0341Z" fill="#F81D3D"/>
</svg>
