<svg width="674" height="207" viewBox="0 0 674 207" fill="none" xmlns="http://www.w3.org/2000/svg">
<path d="M112.722 17.5L95.7221 0.5L4.22216 91C4.22216 91 -5.27771 102.5 4.22216 115L95.7221 206.5L112.722 189.5L30.7222 107.5C25.2222 102.5 30.7222 99.5 30.7222 99.5L112.722 17.5Z" fill="url(#paint0_angular_17_2)"/>
<path d="M142.722 149.922L151.771 159L200.475 110.675C200.475 110.675 205.532 104.534 200.475 97.8592L151.771 49L142.722 58.0777L186.369 101.864C189.297 104.534 186.369 106.136 186.369 106.136L142.722 149.922Z" fill="url(#paint1_angular_17_2)"/>
<path d="M286.062 112.688C286.062 118.104 284.708 122.729 282 126.562C279.333 130.354 275.583 133.25 270.75 135.25C265.917 137.25 260.229 138.25 253.688 138.25C250.229 138.25 246.958 138.083 243.875 137.75C240.792 137.417 237.958 136.938 235.375 136.312C232.792 135.688 230.521 134.917 228.562 134V123.812C231.688 125.104 235.5 126.312 240 127.438C244.5 128.521 249.208 129.062 254.125 129.062C258.708 129.062 262.583 128.458 265.75 127.25C268.917 126 271.312 124.229 272.938 121.938C274.604 119.604 275.438 116.812 275.438 113.562C275.438 110.438 274.75 107.833 273.375 105.75C272 103.625 269.708 101.708 266.5 100C263.333 98.25 259 96.3958 253.5 94.4375C249.625 93.0625 246.208 91.5625 243.25 89.9375C240.292 88.2708 237.812 86.3958 235.812 84.3125C233.812 82.2292 232.292 79.8125 231.25 77.0625C230.25 74.3125 229.75 71.1667 229.75 67.625C229.75 62.75 230.979 58.5833 233.438 55.125C235.938 51.625 239.375 48.9583 243.75 47.125C248.167 45.25 253.229 44.3125 258.938 44.3125C263.812 44.3125 268.312 44.7708 272.438 45.6875C276.604 46.6042 280.417 47.8333 283.875 49.375L280.562 58.5C277.271 57.125 273.771 55.9792 270.062 55.0625C266.396 54.1458 262.604 53.6875 258.688 53.6875C254.771 53.6875 251.458 54.2708 248.75 55.4375C246.083 56.5625 244.042 58.1667 242.625 60.25C241.208 62.3333 240.5 64.8125 240.5 67.6875C240.5 70.8958 241.167 73.5625 242.5 75.6875C243.875 77.8125 246.042 79.7083 249 81.375C252 83 255.958 84.7083 260.875 86.5C266.25 88.4583 270.812 90.5417 274.562 92.75C278.312 94.9167 281.167 97.5833 283.125 100.75C285.083 103.875 286.062 107.854 286.062 112.688ZM359.75 68.5V137H351.25L349.75 127.375H349.188C347.771 129.75 345.938 131.75 343.688 133.375C341.438 135 338.896 136.208 336.062 137C333.271 137.833 330.292 138.25 327.125 138.25C321.708 138.25 317.167 137.375 313.5 135.625C309.833 133.875 307.062 131.167 305.188 127.5C303.354 123.833 302.438 119.125 302.438 113.375V68.5H312.938V112.625C312.938 118.333 314.229 122.604 316.812 125.438C319.396 128.229 323.333 129.625 328.625 129.625C333.708 129.625 337.75 128.667 340.75 126.75C343.792 124.833 345.979 122.021 347.312 118.312C348.646 114.562 349.312 109.979 349.312 104.562V68.5H359.75ZM392.062 39.75V64.0625C392.062 66.8542 391.979 69.5625 391.812 72.1875C391.688 74.8125 391.583 76.8542 391.5 78.3125H392.062C393.938 75.2292 396.646 72.625 400.188 70.5C403.729 68.375 408.25 67.3125 413.75 67.3125C422.333 67.3125 429.167 70.2917 434.25 76.25C439.375 82.1667 441.938 90.9792 441.938 102.688C441.938 110.396 440.771 116.896 438.438 122.188C436.104 127.479 432.812 131.479 428.562 134.188C424.312 136.896 419.292 138.25 413.5 138.25C408.083 138.25 403.625 137.25 400.125 135.25C396.667 133.208 394 130.729 392.125 127.812H391.312L389.188 137H381.688V39.75H392.062ZM412.062 76C407.104 76 403.167 76.9792 400.25 78.9375C397.333 80.8542 395.229 83.7708 393.938 87.6875C392.688 91.5625 392.062 96.4792 392.062 102.438V103C392.062 111.625 393.5 118.229 396.375 122.812C399.25 127.354 404.479 129.625 412.062 129.625C418.438 129.625 423.208 127.292 426.375 122.625C429.583 117.958 431.188 111.292 431.188 102.625C431.188 93.7917 429.604 87.1458 426.438 82.6875C423.312 78.2292 418.521 76 412.062 76ZM485.688 67.375C493.854 67.375 499.917 69.2083 503.875 72.875C507.833 76.5417 509.812 82.3958 509.812 90.4375V137H502.25L500.25 126.875H499.75C497.833 129.375 495.833 131.479 493.75 133.188C491.667 134.854 489.25 136.125 486.5 137C483.792 137.833 480.458 138.25 476.5 138.25C472.333 138.25 468.625 137.521 465.375 136.062C462.167 134.604 459.625 132.396 457.75 129.438C455.917 126.479 455 122.729 455 118.188C455 111.354 457.708 106.104 463.125 102.438C468.542 98.7708 476.792 96.7708 487.875 96.4375L499.688 95.9375V91.75C499.688 85.8333 498.417 81.6875 495.875 79.3125C493.333 76.9375 489.75 75.75 485.125 75.75C481.542 75.75 478.125 76.2708 474.875 77.3125C471.625 78.3542 468.542 79.5833 465.625 81L462.438 73.125C465.521 71.5417 469.062 70.1875 473.062 69.0625C477.062 67.9375 481.271 67.375 485.688 67.375ZM499.562 103.25L489.125 103.688C480.583 104.021 474.562 105.417 471.062 107.875C467.562 110.333 465.812 113.812 465.812 118.312C465.812 122.229 467 125.125 469.375 127C471.75 128.875 474.896 129.812 478.812 129.812C484.896 129.812 489.875 128.125 493.75 124.75C497.625 121.375 499.562 116.312 499.562 109.562V103.25ZM605.562 67.25C613.104 67.25 618.792 69.2292 622.625 73.1875C626.458 77.1042 628.375 83.4167 628.375 92.125V137H618.125V92.625C618.125 87.0833 616.917 82.9375 614.5 80.1875C612.125 77.3958 608.583 76 603.875 76C597.25 76 592.438 77.9167 589.438 81.75C586.438 85.5833 584.938 91.2292 584.938 98.6875V137H574.625V92.625C574.625 88.9167 574.083 85.8333 573 83.375C571.958 80.9167 570.375 79.0833 568.25 77.875C566.167 76.625 563.521 76 560.312 76C555.771 76 552.125 76.9375 549.375 78.8125C546.625 80.6875 544.625 83.4792 543.375 87.1875C542.167 90.8542 541.562 95.375 541.562 100.75V137H531.188V68.5H539.562L541.125 78.1875H541.688C543.062 75.8125 544.792 73.8125 546.875 72.1875C548.958 70.5625 551.292 69.3333 553.875 68.5C556.458 67.6667 559.208 67.25 562.125 67.25C567.333 67.25 571.688 68.2292 575.188 70.1875C578.729 72.1042 581.292 75.0417 582.875 79H583.438C585.688 75.0417 588.771 72.1042 592.688 70.1875C596.604 68.2292 600.896 67.25 605.562 67.25Z" fill="#FFFCFC"/>
<defs>
<radialGradient id="paint0_angular_17_2" cx="0" cy="0" r="1" gradientUnits="userSpaceOnUse" gradientTransform="translate(56.3611 103.5) rotate(141.187) scale(120.458 212.059)">
<stop offset="0.5" stop-color="#DF3084"/>
<stop offset="1" stop-color="#601AF7"/>
</radialGradient>
<radialGradient id="paint1_angular_17_2" cx="0" cy="0" r="1" gradientUnits="userSpaceOnUse" gradientTransform="translate(172.722 104) rotate(-170.702) scale(99.0235 54.0128)">
<stop stop-color="#D32E8F"/>
<stop offset="1" stop-color="#751DE5"/>
</radialGradient>
</defs>
</svg>
