<svg width="59" height="59" viewBox="0 0 59 59" fill="none" xmlns="http://www.w3.org/2000/svg">
<g clip-path="url(#clip0)">
<path d="M27.1873 2.30469C27.8222 2.30469 28.3396 1.78729 28.3396 1.15234C28.3396 0.517402 27.8222 0 27.1873 0C26.5512 0 26.035 0.517402 26.035 1.15234C26.035 1.78729 26.5512 2.30469 27.1873 2.30469Z" fill="#F81D3D"/>
<path d="M49.0898 25.1211C49.7262 25.1211 50.2422 24.6051 50.2422 23.9687V17.0547C50.2422 16.4184 49.7262 15.9023 49.0898 15.9023H45.6328V15.6719C45.6328 13.6364 44.7482 11.8039 43.3437 10.5375C43.2772 10.4226 42.0064 9.32361 40.9911 7.72749C39.7027 5.69937 39.0482 3.48687 39.0471 1.15222C39.0471 0.847888 38.9249 0.551851 38.7106 0.337515C38.4962 0.123179 38.199 -6.83593e-06 37.8959 -6.83593e-06H32.3727C31.7366 -6.83593e-06 31.2203 0.517396 31.2203 1.15234C31.2203 1.78728 31.7366 2.30468 32.3727 2.30468H36.7885C36.8874 3.5423 37.1491 4.76493 37.5674 5.94148C37.8845 6.83454 38.293 7.89839 38.7824 8.75953C38.7612 8.75919 38.7401 8.75781 38.7188 8.75781H15.6719C15.6504 8.75781 15.6295 8.75919 15.6082 8.75942C16.0977 7.89839 16.5061 6.83443 16.8231 5.94136C17.2414 4.76482 17.5029 3.5423 17.6021 2.30457H22.0017C22.6366 2.30457 23.154 1.78716 23.154 1.15222C23.154 0.51728 22.6366 -0.00012207 22.0017 -0.00012207H16.4946C16.1916 -0.00012207 15.8943 0.123063 15.6799 0.337515C15.4656 0.551966 15.3423 0.849155 15.3423 1.15222C15.3423 3.48687 14.6878 5.69937 13.3995 7.72749C12.3842 9.32361 11.1133 10.4226 11.0468 10.5375C9.64235 11.8039 8.75781 13.6364 8.75781 15.6719V43.3281C8.75781 45.3642 9.64293 47.1971 11.0481 48.4634C11.1135 48.5772 15.3427 52.2276 15.3427 57.8476C15.3427 58.484 15.8586 59 16.495 59H37.8956C38.532 59 39.048 58.484 39.048 57.8476C39.048 52.2276 43.2771 48.5773 43.3424 48.4635C44.7477 47.1971 45.6328 45.3642 45.6328 43.3281V42.4062H46.7852C48.6914 42.4062 50.2422 40.8554 50.2422 38.9492V36.6445C50.2422 34.7383 48.6914 33.1875 46.7852 33.1875H45.6328V25.1211H49.0898ZM47.9375 18.207V22.8164H45.6328V18.207H47.9375ZM43.3281 43.3281C43.3281 45.8697 41.2604 47.9375 38.7188 47.9375H15.6719C13.1303 47.9375 11.0625 45.8697 11.0625 43.3281V15.6719C11.0625 13.1303 13.1303 11.0625 15.6719 11.0625H38.7188C41.2604 11.0625 43.3281 13.1303 43.3281 15.6719V43.3281ZM36.7886 56.6953H17.6021C17.3898 54.0137 16.463 51.8431 15.4747 50.2372C15.5404 50.2391 15.6057 50.2422 15.6719 50.2422H38.7188C38.7849 50.2422 38.8502 50.2391 38.9159 50.2372C37.9277 51.8431 37.0008 54.0137 36.7886 56.6953ZM46.7852 35.4922C47.4206 35.4922 47.9375 36.0091 47.9375 36.6445V38.9492C47.9375 39.5846 47.4206 40.1016 46.7852 40.1016H45.6328V35.4922H46.7852Z" fill="black"/>
<path d="M29.7881 24.2639C28.7828 24.2639 27.8687 24.662 27.1953 25.3089C26.5219 24.662 25.6078 24.2639 24.6025 24.2639C22.5375 24.2639 20.8574 25.9439 20.8574 28.009C20.8574 28.8874 21.1687 29.7421 21.7338 30.4155C21.7376 30.42 21.7414 30.4245 21.7452 30.429L26.3239 35.7207C26.5427 35.9736 26.8608 36.1191 27.1953 36.1191C27.5298 36.1191 27.8479 35.9736 28.0668 35.7207L32.6454 30.429C32.6494 30.4245 32.6532 30.42 32.6571 30.4154C33.2221 29.7419 33.5333 28.8873 33.5333 28.009C33.5332 25.9439 31.8532 24.2639 29.7881 24.2639ZM30.8962 28.9283L27.1953 33.2055L23.4943 28.9281C23.3415 28.7441 23.1621 28.4368 23.1621 28.0089C23.1621 27.2145 23.8082 26.5684 24.6025 26.5684C25.3968 26.5684 26.043 27.2145 26.043 28.0089C26.043 28.6452 26.5589 29.1612 27.1953 29.1612C27.8316 29.1612 28.3477 28.6452 28.3477 28.0089C28.3477 27.2145 28.9938 26.5684 29.7881 26.5684C30.5824 26.5684 31.2285 27.2145 31.2285 28.0089C31.2285 28.4368 31.049 28.7442 30.8962 28.9283Z" fill="#F81D3D"/>
</g>
<defs>
<clipPath id="clip0">
<rect width="59" height="59" fill="white"/>
</clipPath>
</defs>
</svg>
