<svg width="59" height="59" viewBox="0 0 59 59" fill="none" xmlns="http://www.w3.org/2000/svg">
<path d="M49.8589 34.8814C49.8582 34.8791 49.858 34.8769 49.8572 34.8746L40.9784 9.98397C40.8453 9.61084 40.5298 9.3322 40.1429 9.24624L19.4007 4.63686C18.8197 4.50745 18.2363 4.84209 18.0539 5.40859L8.55511 34.9086C8.55431 34.9111 8.55431 34.9134 8.55362 34.9158C8.52296 35.0134 8.46973 36.3438 8.46973 36.8751C8.47088 38.9758 8.62529 41.0696 8.93066 43.1012C9.22797 45.0844 9.67277 47.0272 10.2501 48.8779C10.8182 50.6997 11.5211 52.4467 12.3393 54.0703C13.1529 55.6848 14.0863 57.1897 15.1141 58.5449C15.3331 58.8341 15.6684 59.0001 16.0314 59.0001H42.3924C42.7566 59.0001 43.0907 58.8341 43.3097 58.5449C45.0947 56.1953 46.5616 53.4446 47.6713 50.3725C47.8868 49.7744 47.5757 49.1129 46.9787 48.8975C46.852 48.8514 46.7206 48.8282 46.587 48.8282C46.103 48.8282 45.6674 49.1336 45.5038 49.5899C45.1933 50.4501 44.8522 51.2826 44.4828 52.0859H13.948C11.9011 47.621 10.7719 42.313 10.7744 36.8749C10.7744 36.724 10.7756 36.5684 10.7767 36.414H47.6471C47.6483 36.5719 47.6494 36.7274 47.6494 36.8749C47.6494 37.8441 47.6148 38.8201 47.5457 39.7754C47.4996 40.4092 47.9778 40.9623 48.6116 41.0084C49.2431 41.0545 49.7985 40.5694 49.8435 39.9413C49.9172 38.9319 49.9541 37.9005 49.9541 36.8749C49.9541 36.3369 49.8967 34.9892 49.8589 34.8814V34.8814ZM43.2967 54.3907C42.834 55.1973 42.3393 55.9672 41.8127 56.6954H16.6109C16.0845 55.9679 15.5912 55.1971 15.13 54.3907H43.2967ZM11.2337 34.1094L19.9259 7.11452L39.0215 11.358L47.1373 34.1094H11.2337Z" fill="black"/>
<path d="M40.1592 0C39.5227 0 39.0068 0.515904 39.0068 1.15234C39.0068 1.78878 39.5227 2.30469 40.1592 2.30469C44.607 2.30469 48.2256 5.92328 48.2256 10.3711C48.2256 11.0075 48.7415 11.5234 49.3779 11.5234C50.0144 11.5234 50.5303 11.0075 50.5303 10.3711C50.5303 4.65247 45.8778 0 40.1592 0Z" fill="#F81D3D"/>
<path d="M43.501 10.3711C43.501 11.0075 44.0169 11.5234 44.6533 11.5234C45.2898 11.5234 45.8057 11.0075 45.8057 10.3711C45.8057 7.19408 43.221 4.60938 40.0439 4.60938C39.4075 4.60938 38.8916 5.12528 38.8916 5.76172C38.8916 6.39816 39.4075 6.91406 40.0439 6.91406C41.9502 6.91406 43.501 8.46489 43.501 10.3711Z" fill="#F81D3D"/>
<path d="M47.9871 46.1443C48.6235 46.1443 49.1394 45.6284 49.1394 44.992C49.1394 44.3556 48.6235 43.8397 47.9871 43.8397C47.3507 43.8397 46.8347 44.3556 46.8347 44.992C46.8347 45.6284 47.3507 46.1443 47.9871 46.1443Z" fill="#F81D3D"/>
</svg>
