<?xml version="1.0" encoding="UTF-8"?>
<svg   width="700pt" height="700pt" version="1.1" viewBox="0 0 700 700" xmlns="http://www.w3.org/2000/svg" xmlns:xlink="http://www.w3.org/1999/xlink">
 <g>
  <path d="m405.94 497.97h173.66c12.371 0 22.398-10.031 22.398-22.398v-173.71c0-12.371-10.031-22.398-22.398-22.398l-116.7-0.003907c0.91797-65.273 45.914-120.05 106.52-135.8 4.082-1.0586 12.441-2.6484 12.441-2.6484s-0.042969-0.10547-0.054688-0.125c11.328-1.1133 20.188-10.625 20.188-22.242v-34.137c0-12.371-10.031-22.398-22.398-22.398 0 0-4.7383-0.14453-6.3047-0.015625-6.9961 0.58984-9.1836 1.4766-13.699 2.4258-99.805 20.961-175.1 109.21-176.06 214.94h-0.054687l0.054687 196.11c0 12.367 10.027 22.398 22.398 22.398z"/>
  <path d="m98.055 475.57c0 12.371 10.031 22.398 22.398 22.398h173.66c12.371 0 22.398-10.031 22.398-22.398v-173.71c0-12.371-10.031-22.398-22.398-22.398l-116.69-0.003907c0.91797-65.277 45.914-120.05 106.52-135.8 4.082-1.0586 12.449-2.6484 12.449-2.6484s-0.042969-0.11328-0.054688-0.12891c11.316-1.1133 20.184-10.629 20.184-22.25v-34.137c0-12.371-10.031-22.398-22.398-22.398 0 0-4.7383-0.14062-6.3008-0.011719-7 0.58984-9.1836 1.4766-13.699 2.418-99.805 20.973-175.11 109.22-176.06 214.96h-0.054688z"/>
 </g>
</svg>
