<svg width="64" height="64" viewBox="0 0 64 64" fill="none" xmlns="http://www.w3.org/2000/svg">
<path fill-rule="evenodd" clip-rule="evenodd" d="M47.7442 19.3591V21.7821H49.2326V29.224H47.7442V45.157C47.7442 47.1648 46.8794 48.9345 45.5518 50.1193C45.5518 50.1193 43.5663 53.2567 43.0796 54.0932C42.0424 55.859 41.9912 58.4857 41.961 60.0382C41.9507 60.5663 41.9428 60.9701 41.8993 61.1734C41.7207 62.0411 41.0867 62.5948 40.1758 62.8761C38.6487 63.3479 34.4158 63.5146 31.8558 63.5146C29.2958 63.5146 24.1967 63.3479 22.6696 62.8761C21.7587 62.5933 21.1217 62.0962 20.9431 61.227C20.898 61.0163 20.9033 60.589 20.9102 60.0306C20.9294 58.467 20.9613 55.8753 19.9369 54.1304C19.4502 53.294 19.0052 52.5885 18.5319 52.0988C18.5289 52.0958 17.5838 51.118 16.8947 50.2309C15.5507 48.4746 15 47.2378 15 45.157V19.3591C15 17.3513 15.957 15.5801 17.2861 14.3983C17.2861 14.3983 19.3178 11.2608 19.8045 10.4244C20.8417 8.6586 20.8929 6.03186 20.9231 4.47942V4.47941C20.9334 3.95126 20.9413 3.54745 20.9847 3.34419C21.1633 2.47498 21.7974 1.9213 22.7083 1.64C24.2353 1.16819 28.4668 1 31.0268 1C33.5868 1 38.549 1.1667 40.0761 1.63851C40.987 1.9213 41.624 2.41842 41.8026 3.28763C41.8397 3.47293 41.8391 3.66765 41.8385 3.85713L41.8383 3.92763C41.839 4.18029 41.8373 4.43281 41.8357 4.68523C41.8298 5.57627 41.8239 6.4661 41.9202 7.35684C42.075 8.79312 42.5245 10.0404 43.2895 11.2593C43.7539 11.9976 44.2614 12.709 44.8091 13.3862C45.0434 13.6754 45.295 13.9499 45.5464 14.2243L45.5464 14.2243C45.8269 14.5303 46.1071 14.8362 46.363 15.1619C47.2962 16.3511 47.7442 17.8573 47.7442 19.3591ZM22.4105 4.56878C22.3778 6.25271 22.3218 9.12967 21.1217 11.1745C20.7704 11.7803 20.4236 12.322 19.9741 12.8519C20.0188 12.8415 42.6912 12.846 42.7953 12.8519C42.3756 12.3354 42.0095 11.758 41.6612 11.1611C40.4592 9.11526 40.4022 6.16915 40.3695 4.47541V4.4754L40.3693 4.46642C40.3678 4.38432 40.3668 4.30658 40.3658 4.23332L40.3658 4.2331L40.3658 4.23271C40.3617 3.93574 40.3586 3.71242 40.3336 3.57042C40.2979 3.39181 40.2473 3.18493 39.5894 2.98102C38.4419 2.6253 33.755 2.48986 31.0923 2.48986C28.4296 2.48986 24.3395 2.64167 23.1905 2.9974C22.6234 3.17154 22.4984 3.368 22.4463 3.61953C22.4223 3.76245 22.4186 4.02067 22.4142 4.33243L22.4142 4.33258L22.4142 4.33376C22.4131 4.40797 22.412 4.48522 22.4106 4.56465L22.4105 4.56878ZM41.7624 53.3401C40.5623 55.3849 40.5063 58.2619 40.4736 59.9458L40.4735 59.95C40.4721 60.0299 40.4709 60.1076 40.4699 60.1822C40.4655 60.494 40.4618 60.7522 40.4378 60.8951C40.3857 61.1466 40.2607 61.3431 39.6936 61.5172C38.5446 61.8729 34.4545 62.0247 31.7918 62.0247C29.1291 62.0247 24.3038 61.8893 23.1563 61.5336C22.4984 61.3297 22.4478 61.1228 22.4121 60.9442C22.387 60.8022 22.384 60.5789 22.3799 60.2819C22.3789 60.2084 22.3778 60.1305 22.3764 60.0482L22.3762 60.0392C22.3434 58.3455 22.2864 55.3994 21.0845 53.3535C21.0363 53.2709 20.9876 53.1864 20.9381 53.1007C20.6312 52.569 20.2986 51.9929 19.9384 51.5481C20.0247 51.554 41.7907 51.5496 41.7907 51.5496C41.8469 51.5496 41.9503 51.5505 42.0715 51.5515C42.3902 51.5543 42.8323 51.5582 42.8668 51.5496C42.5339 51.9434 42.2798 52.4062 42.0271 52.8666C41.9398 53.0257 41.8526 53.1845 41.7624 53.3401ZM41.883 50.0612C44.3492 50.0612 46.2558 47.8287 46.2558 45.157V19.3591C46.2558 16.6874 44.3492 14.5219 41.883 14.5219H21.0458C18.581 14.5219 16.4884 16.6874 16.4884 19.3591V45.157C16.4884 47.8287 18.581 50.0612 21.0458 50.0612H41.883Z" fill="#333333"/>
</svg>
