<svg width="64" height="64" viewBox="0 0 64 64" fill="none" xmlns="http://www.w3.org/2000/svg">
<path d="M45.3671 0H8.61713C6.54938 0 4.86713 1.68225 4.86713 3.75V16.5C4.86713 17.1904 5.42688 17.75 6.11713 17.75C6.80738 17.75 7.36713 17.1904 7.36713 16.5V3.75C7.36713 3.06075 7.92788 2.5 8.61713 2.5H45.3671C46.0564 2.5 46.6171 3.06075 46.6171 3.75V50.25C46.6171 50.9393 46.0564 51.5 45.3671 51.5H8.61713C7.92788 51.5 7.36713 50.9393 7.36713 50.25V27.0416C7.36713 26.3512 6.80738 25.7916 6.11713 25.7916C5.42688 25.7916 4.86713 26.3512 4.86713 27.0416V50.25C4.86713 52.3177 6.54938 54 8.61713 54H45.3671C47.4349 54 49.1171 52.3177 49.1171 50.25V3.75C49.1171 1.68225 47.4349 0 45.3671 0Z" fill="white"/>
<path d="M7.00075 21.2124C6.76838 20.9799 6.44588 20.8474 6.11713 20.8474C5.78838 20.8474 5.46588 20.9799 5.23338 21.2124C5.00075 21.4462 4.86713 21.7687 4.86713 22.0962C4.86713 22.4262 5.00088 22.7474 5.23338 22.9812C5.46588 23.2137 5.78838 23.3474 6.11713 23.3474C6.44575 23.3474 6.76825 23.2137 7.00075 22.9812C7.23338 22.7487 7.36713 22.4262 7.36713 22.0962C7.36713 21.7674 7.23325 21.4462 7.00075 21.2124Z" fill="#F81D3D"/>
<path d="M12.0083 56.8737C11.7758 56.6412 11.4546 56.5074 11.1245 56.5074C10.7958 56.5074 10.4733 56.6412 10.2409 56.8737C10.0083 57.1062 9.87451 57.4287 9.87451 57.7574C9.87451 58.0874 10.0084 58.4087 10.2409 58.6412C10.4733 58.8749 10.7958 59.0074 11.1245 59.0074C11.4546 59.0074 11.7758 58.8749 12.0083 58.6412C12.2409 58.4087 12.3745 58.0874 12.3745 57.7574C12.3745 57.4287 12.2408 57.1062 12.0083 56.8737Z" fill="#F81D3D"/>
<path d="M52.875 5.00793C52.1847 5.00793 51.625 5.56756 51.625 6.25793V55.2579C51.625 55.9472 51.0643 56.5079 50.375 56.5079H16.125C15.4348 56.5079 14.875 57.0676 14.875 57.7579C14.875 58.4483 15.4348 59.0079 16.125 59.0079H50.375C52.4427 59.0079 54.125 57.3257 54.125 55.2579V6.25793C54.125 5.56756 53.5653 5.00793 52.875 5.00793Z" fill="white"/>
<path d="M25.1171 9.25H13.1171C12.4269 9.25 11.8671 9.80963 11.8671 10.5V22.5C11.8671 23.1904 12.4269 23.75 13.1171 23.75H25.1171C25.8074 23.75 26.3671 23.1904 26.3671 22.5V10.5C26.3671 9.80963 25.8074 9.25 25.1171 9.25ZM23.8671 21.25H14.3671V11.75H23.8671V21.25Z" fill="#F81D3D"/>
<path d="M21.0951 29.4253C20.6069 28.9373 19.8156 28.9371 19.3273 29.4253L16.0044 32.7481L14.4594 31.203C13.9713 30.7149 13.18 30.715 12.6915 31.203C12.2034 31.6911 12.2034 32.4826 12.6915 32.9708L15.1205 35.3998C15.355 35.6341 15.6729 35.7659 16.0044 35.7659C16.336 35.7659 16.6538 35.6341 16.8884 35.3998L21.0951 31.193C21.5833 30.7049 21.5833 29.9134 21.0951 29.4253Z" fill="white"/>
<path d="M41.5755 31.125H26.9921C26.3019 31.125 25.7421 31.6846 25.7421 32.375C25.7421 33.0654 26.3019 33.625 26.9921 33.625H41.5755C42.2658 33.625 42.8255 33.0654 42.8255 32.375C42.8255 31.6846 42.2658 31.125 41.5755 31.125Z" fill="#F81D3D"/>
<path d="M40.8671 9.25H32.1171C31.4269 9.25 30.8671 9.80963 30.8671 10.5C30.8671 11.1904 31.4269 11.75 32.1171 11.75H40.8671C41.5574 11.75 42.1171 11.1904 42.1171 10.5C42.1171 9.80963 41.5574 9.25 40.8671 9.25Z" fill="white"/>
<path d="M40.8671 15.25H32.1171C31.4269 15.25 30.8671 15.8096 30.8671 16.5C30.8671 17.1904 31.4269 17.75 32.1171 17.75H40.8671C41.5574 17.75 42.1171 17.1904 42.1171 16.5C42.1171 15.8096 41.5574 15.25 40.8671 15.25Z" fill="#F81D3D"/>
<path d="M40.8671 21.25H32.1171C31.4269 21.25 30.8671 21.8096 30.8671 22.5C30.8671 23.1904 31.4269 23.75 32.1171 23.75H40.8671C41.5574 23.75 42.1171 23.1904 42.1171 22.5C42.1171 21.8096 41.5574 21.25 40.8671 21.25Z" fill="white"/>
<path d="M21.0951 38.9711C20.6069 38.4831 19.8156 38.483 19.3273 38.9711L16.0044 42.294L14.4594 40.7489C13.9713 40.2608 13.18 40.2609 12.6915 40.7489C12.2034 41.237 12.2034 42.0285 12.6915 42.5166L15.1205 44.9457C15.355 45.18 15.6729 45.3118 16.0044 45.3118C16.336 45.3118 16.6538 45.18 16.8884 44.9457L21.0951 40.7389C21.5833 40.2508 21.5833 39.4593 21.0951 38.9711Z" fill="white"/>
<path d="M41.5755 40.625H26.9921C26.3019 40.625 25.7421 41.1846 25.7421 41.875C25.7421 42.5654 26.3019 43.125 26.9921 43.125H41.5755C42.2658 43.125 42.8255 42.5654 42.8255 41.875C42.8255 41.1846 42.2658 40.625 41.5755 40.625Z" fill="white"/>
</svg>
