<svg width="64" height="64" viewBox="0 0 64 64" fill="none" xmlns="http://www.w3.org/2000/svg">
<path d="M51.7508 18.5938C52.4411 18.5938 53.0008 18.0341 53.0008 17.3438V3.75C53.0008 1.68225 51.3186 0 49.2508 0H3.75082C1.68307 0 0.000823975 1.68225 0.000823975 3.75V60.25C0.000823975 62.3177 1.68307 64 3.75082 64H49.2508C51.3186 64 53.0008 62.3177 53.0008 60.25V51.041C53.0008 50.3506 52.4411 49.791 51.7508 49.791C51.0606 49.791 50.5008 50.3506 50.5008 51.041V60.25C50.5008 60.9393 49.9401 61.5 49.2508 61.5H3.75082C3.06157 61.5 2.50082 60.9393 2.50082 60.25V3.75C2.50082 3.06075 3.06157 2.5 3.75082 2.5H49.2508C49.9401 2.5 50.5008 3.06075 50.5008 3.75V17.3438C50.5008 18.0341 51.0606 18.5938 51.7508 18.5938Z" fill="white"/>
<path d="M26.5008 6.75C20.1597 6.75 15.0009 11.9089 15.0009 18.25C15.0009 21.5396 16.3896 24.5106 18.6111 26.6086C18.6527 26.6531 18.697 26.6952 18.7454 26.7336C20.7917 28.606 23.5151 29.7499 26.5007 29.7499C29.4863 29.7499 32.2097 28.6059 34.2561 26.7336C34.3045 26.6952 34.3487 26.653 34.3903 26.6086C36.6121 24.5106 38.0008 21.5396 38.0008 18.25C38.0008 11.9089 32.842 6.75 26.5008 6.75ZM26.5008 27.25C24.4597 27.25 22.576 26.566 21.0645 25.4165C22.1631 23.4684 24.2132 22.25 26.5008 22.25C28.7885 22.25 30.8386 23.4684 31.9372 25.4165C30.4256 26.566 28.542 27.25 26.5008 27.25ZM24.5008 17.75V16.9375C24.5008 15.8348 25.3981 14.9375 26.5008 14.9375C27.6036 14.9375 28.5008 15.8348 28.5008 16.9375V17.75C28.5008 18.8527 27.6036 19.75 26.5008 19.75C25.3981 19.75 24.5008 18.8527 24.5008 17.75ZM33.7433 23.5854C32.8215 22.2181 31.5438 21.1547 30.0605 20.4982C30.6492 19.7374 31.0008 18.7843 31.0008 17.75V16.9375C31.0008 14.4561 28.9822 12.4375 26.5008 12.4375C24.0195 12.4375 22.0008 14.4561 22.0008 16.9375V17.75C22.0008 18.7843 22.3525 19.7374 22.9412 20.4982C21.4578 21.1547 20.1802 22.2181 19.2584 23.5854C18.1547 22.0912 17.5009 20.2459 17.5009 18.25C17.5009 13.2874 21.5382 9.25 26.5008 9.25C31.4635 9.25 35.5008 13.2874 35.5008 18.25C35.5008 20.2459 34.847 22.0912 33.7433 23.5854Z" fill="white"/>
<path d="M33.2509 54.75H26.5009C25.8106 54.75 25.2509 55.3096 25.2509 56C25.2509 56.6904 25.8106 57.25 26.5009 57.25H33.2509C33.9411 57.25 34.5009 56.6904 34.5009 56C34.5009 55.3096 33.9411 54.75 33.2509 54.75Z" fill="white"/>
<path d="M33.2508 47.75H15.5009C14.8106 47.75 14.2509 48.3096 14.2509 49C14.2509 49.6904 14.8106 50.25 15.5009 50.25H33.2508C33.9411 50.25 34.5008 49.6904 34.5008 49C34.5008 48.3096 33.9411 47.75 33.2508 47.75Z" fill="white"/>
<path d="M33.2508 40.75H15.5009C14.8106 40.75 14.2509 41.3096 14.2509 42C14.2509 42.6904 14.8106 43.25 15.5009 43.25H33.2508C33.9411 43.25 34.5008 42.6904 34.5008 42C34.5008 41.3096 33.9411 40.75 33.2508 40.75Z" fill="white"/>
<path d="M11.0458 34.1162C10.8134 33.8837 10.4909 33.75 10.1609 33.75C9.83201 33.75 9.50951 33.8837 9.27714 34.1162C9.04464 34.3487 8.91089 34.6712 8.91089 35C8.91089 35.3288 9.04451 35.6513 9.27714 35.8838C9.51089 36.1163 9.83201 36.25 10.1609 36.25C10.4909 36.25 10.8121 36.1163 11.0458 35.8838C11.2783 35.6513 11.4121 35.3288 11.4121 35C11.4121 34.6712 11.2784 34.3487 11.0458 34.1162Z" fill="#F81D3D"/>
<path d="M11.0458 41.1162C10.8121 40.8837 10.4909 40.75 10.1609 40.75C9.83201 40.75 9.51089 40.8837 9.27714 41.1162C9.04464 41.3487 8.91089 41.6712 8.91089 42C8.91089 42.3288 9.04451 42.6513 9.27714 42.8838C9.51089 43.1163 9.83201 43.25 10.1609 43.25C10.4909 43.25 10.8121 43.1163 11.0458 42.8838C11.2783 42.6513 11.4121 42.3288 11.4121 42C11.4121 41.6712 11.2784 41.3487 11.0458 41.1162Z" fill="#F81D3D"/>
<path d="M11.0458 48.1162C10.8121 47.8837 10.4909 47.75 10.1609 47.75C9.83201 47.75 9.51089 47.8837 9.27714 48.1162C9.04464 48.3487 8.91089 48.6712 8.91089 49C8.91089 49.3288 9.04451 49.6513 9.27714 49.8838C9.50951 50.1163 9.83201 50.25 10.1609 50.25C10.4909 50.25 10.8134 50.1163 11.0458 49.8838C11.2783 49.6513 11.4121 49.3288 11.4121 49C11.4121 48.6712 11.2784 48.3487 11.0458 48.1162Z" fill="#F81D3D"/>
<path d="M33.2508 33.75H15.5009C14.8106 33.75 14.2509 34.3096 14.2509 35C14.2509 35.6904 14.8106 36.25 15.5009 36.25H33.2508C33.9411 36.25 34.5008 35.6904 34.5008 35C34.5008 34.3096 33.9411 33.75 33.2508 33.75Z" fill="white"/>
<path d="M61.3753 16.29C60.1609 15.5888 58.7461 15.4026 57.3914 15.7655C56.0369 16.1285 54.9046 16.9972 54.2036 18.2116L38.4734 45.457C38.3872 45.6063 38.3328 45.772 38.3136 45.9433L37.2064 55.8613C37.1514 56.3548 37.3936 56.8342 37.8236 57.0826C38.0177 57.1946 38.2334 57.2501 38.4485 57.2501C38.71 57.2501 38.9705 57.1682 39.1899 57.0066L47.2254 51.0886C47.3643 50.9863 47.4805 50.8565 47.5666 50.7071L63.2967 23.4617C64.7442 20.9547 63.8823 17.7375 61.3753 16.29ZM40.0079 53.2992L40.5861 48.1202L44.2039 50.209L40.0079 53.2992ZM46.0266 48.3745L41.2635 45.6245L53.8866 23.7607L58.6497 26.5107L46.0266 48.3745ZM61.1317 22.2116L59.8996 24.3457L55.1365 21.5957L56.3686 19.4616C56.7359 18.8255 57.3289 18.3705 58.0384 18.1803C58.7481 17.9901 59.4891 18.0878 60.1251 18.4551C60.7613 18.8223 61.2163 19.4153 61.4064 20.1248C61.5965 20.8343 61.499 21.5755 61.1317 22.2116Z" fill="#F81D3D"/>
</svg>
