<svg width="64" height="64" viewBox="0 0 64 64" fill="none" xmlns="http://www.w3.org/2000/svg">
<g clip-path="url(#clip0)">
<path fill-rule="evenodd" clip-rule="evenodd" d="M19.8372 55.0002C24.1606 55.0002 27.6705 51.4903 27.6705 47.1668V39.3334H19.8372C15.5138 39.3334 12.0039 42.8433 12.0039 47.1668C12.0039 51.4903 15.5138 55.0002 19.8372 55.0002ZM19.8372 37.3334C14.4092 37.3334 10.0039 41.7387 10.0039 47.1668C10.0039 52.5948 14.4092 57.0002 19.8372 57.0002C25.2652 57.0002 29.6705 52.5948 29.6705 47.1668V37.3334H19.8372Z" fill="white"/>
<path fill-rule="evenodd" clip-rule="evenodd" d="M19.8372 20.6666C15.5138 20.6666 12.0039 24.1765 12.0039 28.4999C12.0039 32.8233 15.5138 36.3332 19.8372 36.3332H27.6705V20.6666H19.8372ZM19.8372 18.6666C14.4092 18.6666 10.0039 23.0719 10.0039 28.4999C10.0039 33.9279 14.4092 38.3332 19.8372 38.3332H29.6705V18.6666H19.8372Z" fill="white"/>
<path fill-rule="evenodd" clip-rule="evenodd" d="M19.8372 2C15.5138 2 12.0039 5.5099 12.0039 9.83333C12.0039 14.1568 15.5138 17.6667 19.8372 17.6667H27.6705V2H19.8372ZM19.8372 0C14.4092 0 10.0039 4.40533 10.0039 9.83333C10.0039 15.2613 14.4092 19.6667 19.8372 19.6667H29.6705V0H19.8372Z" fill="white"/>
<path fill-rule="evenodd" clip-rule="evenodd" d="M38.5038 2H30.6704V17.6667H38.5038C42.8272 17.6667 46.3371 14.1568 46.3371 9.83333C46.3371 5.50991 42.8272 2 38.5038 2ZM28.6704 0V19.6667H38.5038C43.9318 19.6667 48.3371 15.2613 48.3371 9.83333C48.3371 4.40533 43.9318 0 38.5038 0H28.6704Z" fill="white"/>
<path fill-rule="evenodd" clip-rule="evenodd" d="M39.504 37.3332C43.8274 37.3332 47.3373 33.8233 47.3373 29.4999C47.3373 25.1765 43.8274 21.6666 39.504 21.6666C35.1805 21.6666 31.6706 25.1765 31.6706 29.4999C31.6706 33.8233 35.1805 37.3332 39.504 37.3332ZM39.504 39.3332C44.932 39.3332 49.3373 34.9279 49.3373 29.4999C49.3373 24.0719 44.932 19.6666 39.504 19.6666C34.0759 19.6666 29.6706 24.0719 29.6706 29.4999C29.6706 34.9279 34.0759 39.3332 39.504 39.3332Z" fill="#F81D3D"/>
</g>
<defs>
<clipPath id="clip0">
<rect width="39.3412" height="59" fill="white" transform="translate(10)"/>
</clipPath>
</defs>
</svg>
