<svg width="65" height="64" viewBox="0 0 65 64" fill="none" xmlns="http://www.w3.org/2000/svg">
<g clip-path="url(#clip0)">
<path d="M53.7396 31.1232V6.4C53.7396 4.63269 52.3131 3.2 50.5534 3.2H49.4913C49.4913 1.43269 48.0647 0 46.305 0C44.5453 0 43.1187 1.43269 43.1187 3.2H11.2561C11.2561 1.43269 9.82954 4.26667e-08 8.06981 4.26667e-08C6.31009 4.26667e-08 4.88355 1.43269 4.88355 3.2H3.82146C2.06173 3.2 0.635193 4.63269 0.635193 6.4V48C0.635193 49.7673 2.06173 51.2 3.82146 51.2H30.9334C32.9332 58.9804 40.0689 64.3037 48.0633 63.9791C56.0577 63.6545 62.7422 57.77 64.11 49.8528C65.4778 41.9357 61.1579 34.1336 53.7396 31.1232ZM45.2429 3.2C45.2429 2.6109 45.7184 2.13333 46.305 2.13333C46.8916 2.13333 47.3671 2.6109 47.3671 3.2V5.33333C47.3671 5.92244 46.8916 6.4 46.305 6.4C45.7184 6.4 45.2429 5.92244 45.2429 5.33333V3.2ZM7.00773 3.2C7.00773 2.6109 7.48324 2.13333 8.06981 2.13333C8.65639 2.13333 9.1319 2.6109 9.1319 3.2V5.33333C9.1319 5.92244 8.65639 6.4 8.06981 6.4C7.48324 6.4 7.00773 5.92244 7.00773 5.33333V3.2ZM3.82146 49.0667C3.23488 49.0667 2.75937 48.5891 2.75937 48V6.4C2.75937 5.8109 3.23488 5.33333 3.82146 5.33333H4.88355C4.88355 7.10065 6.31009 8.53333 8.06981 8.53333C9.82954 8.53333 11.2561 7.10065 11.2561 5.33333H43.1187C43.1187 7.10065 44.5453 8.53333 46.305 8.53333C48.0647 8.53333 49.4913 7.10065 49.4913 5.33333H50.5534C51.1399 5.33333 51.6155 5.8109 51.6155 6.4V30.4288C46.884 29.1699 41.8412 30.0484 37.8083 32.8341V32C37.8083 30.8218 36.8573 29.8667 35.6841 29.8667H30.3737C29.2005 29.8667 28.2495 30.8218 28.2495 32V35.2C28.2495 36.3782 29.2005 37.3333 30.3737 37.3333H33.3284C30.971 40.7571 29.9701 44.941 30.5213 49.0667H3.82146ZM35.0586 35.2H30.3737V32H35.6841V34.5717C35.4717 34.7733 35.2593 34.9867 35.0586 35.2ZM47.3671 61.8667C41.3531 61.8667 35.9312 58.2283 33.6297 52.6481C31.3282 47.0679 32.6004 40.6448 36.853 36.3739C41.1055 32.103 47.5011 30.8253 53.0573 33.1367C58.6136 35.4481 62.2363 40.8934 62.2363 46.9333C62.2276 55.1771 55.5755 61.8579 47.3671 61.8667Z" fill="black"/>
<path d="M12.3182 10.6666H7.00775C5.83459 10.6666 4.88357 11.6218 4.88357 12.8V16C4.88357 17.1782 5.83459 18.1333 7.00775 18.1333H12.3182C13.4913 18.1333 14.4424 17.1782 14.4424 16V12.8C14.4424 11.6218 13.4913 10.6666 12.3182 10.6666ZM7.00775 16V12.8H12.3182V16H7.00775Z" fill="black"/>
<path d="M24.0011 10.6666H18.6907C17.5175 10.6666 16.5665 11.6218 16.5665 12.8V16C16.5665 17.1782 17.5175 18.1333 18.6907 18.1333H24.0011C25.1743 18.1333 26.1253 17.1782 26.1253 16V12.8C26.1253 11.6218 25.1743 10.6666 24.0011 10.6666ZM18.6907 16V12.8H24.0011V16H18.6907Z" fill="black"/>
<path d="M30.3737 18.1333H35.6841C36.8573 18.1333 37.8083 17.1782 37.8083 16V12.8C37.8083 11.6218 36.8573 10.6666 35.6841 10.6666H30.3737C29.2005 10.6666 28.2495 11.6218 28.2495 12.8V16C28.2495 17.1782 29.2005 18.1333 30.3737 18.1333ZM30.3737 12.8H35.6841V16H30.3737V12.8Z" fill="black"/>
<path d="M42.0567 18.1333H47.3671C48.5403 18.1333 49.4913 17.1782 49.4913 16V12.8C49.4913 11.6218 48.5403 10.6666 47.3671 10.6666H42.0567C40.8835 10.6666 39.9325 11.6218 39.9325 12.8V16C39.9325 17.1782 40.8835 18.1333 42.0567 18.1333ZM42.0567 12.8H47.3671V16H42.0567V12.8Z" fill="black"/>
<path d="M12.3182 20.2667H7.00775C5.83459 20.2667 4.88357 21.2218 4.88357 22.4001V25.6001C4.88357 26.7783 5.83459 27.7334 7.00775 27.7334H12.3182C13.4913 27.7334 14.4424 26.7783 14.4424 25.6001V22.4001C14.4424 21.2218 13.4913 20.2667 12.3182 20.2667ZM7.00775 25.6001V22.4001H12.3182V25.6001H7.00775Z" fill="black"/>
<path d="M24.0011 20.2667H18.6907C17.5175 20.2667 16.5665 21.2218 16.5665 22.4001V25.6001C16.5665 26.7783 17.5175 27.7334 18.6907 27.7334H24.0011C25.1743 27.7334 26.1253 26.7783 26.1253 25.6001V22.4001C26.1253 21.2218 25.1743 20.2667 24.0011 20.2667ZM18.6907 25.6001V22.4001H24.0011V25.6001H18.6907Z" fill="#F81D3D"/>
<path d="M30.3737 27.7334H35.6841C36.8573 27.7334 37.8083 26.7783 37.8083 25.6001V22.4001C37.8083 21.2218 36.8573 20.2667 35.6841 20.2667H30.3737C29.2005 20.2667 28.2495 21.2218 28.2495 22.4001V25.6001C28.2495 26.7783 29.2005 27.7334 30.3737 27.7334ZM30.3737 22.4001H35.6841V25.6001H30.3737V22.4001Z" fill="black"/>
<path d="M42.0567 27.7334H47.3671C48.5403 27.7334 49.4913 26.7783 49.4913 25.6001V22.4001C49.4913 21.2218 48.5403 20.2667 47.3671 20.2667H42.0567C40.8835 20.2667 39.9325 21.2218 39.9325 22.4001V25.6001C39.9325 26.7783 40.8835 27.7334 42.0567 27.7334ZM42.0567 22.4001H47.3671V25.6001H42.0567V22.4001Z" fill="black"/>
<path d="M12.3182 29.8667H7.00775C5.83459 29.8667 4.88357 30.8218 4.88357 32V35.2C4.88357 36.3782 5.83459 37.3334 7.00775 37.3334H12.3182C13.4913 37.3334 14.4424 36.3782 14.4424 35.2V32C14.4424 30.8218 13.4913 29.8667 12.3182 29.8667ZM7.00775 35.2V32H12.3182V35.2H7.00775Z" fill="black"/>
<path d="M24.0011 29.8667H18.6907C17.5175 29.8667 16.5665 30.8218 16.5665 32V35.2C16.5665 36.3782 17.5175 37.3334 18.6907 37.3334H24.0011C25.1743 37.3334 26.1253 36.3782 26.1253 35.2V32C26.1253 30.8218 25.1743 29.8667 24.0011 29.8667ZM18.6907 35.2V32H24.0011V35.2H18.6907Z" fill="black"/>
<path d="M12.3182 39.4666H7.00775C5.83459 39.4666 4.88357 40.4217 4.88357 41.5999V44.7999C4.88357 45.9781 5.83459 46.9332 7.00775 46.9332H12.3182C13.4913 46.9332 14.4424 45.9781 14.4424 44.7999V41.5999C14.4424 40.4217 13.4913 39.4666 12.3182 39.4666ZM7.00775 44.7999V41.5999H12.3182V44.7999H7.00775Z" fill="black"/>
<path d="M24.0011 39.4666H18.6907C17.5175 39.4666 16.5665 40.4217 16.5665 41.5999V44.7999C16.5665 45.9781 17.5175 46.9332 18.6907 46.9332H24.0011C25.1743 46.9332 26.1253 45.9781 26.1253 44.7999V41.5999C26.1253 40.4217 25.1743 39.4666 24.0011 39.4666ZM18.6907 44.7999V41.5999H24.0011V44.7999H18.6907Z" fill="black"/>
<path d="M54.2707 38.5408C53.7615 38.2488 53.113 38.4264 52.822 38.9376L45.0103 52.6582L41.7455 49.3792C41.3287 48.975 40.6663 48.9808 40.2566 49.3922C39.8469 49.8037 39.8412 50.469 40.2437 50.8875L44.492 55.1542C44.7261 55.3891 45.0558 55.501 45.3838 55.4569C45.7118 55.4128 46.0006 55.2176 46.1648 54.9291L54.6615 39.9958C54.953 39.4855 54.7781 38.8346 54.2707 38.5408Z" fill="#F81D3D"/>
</g>
<defs>
<clipPath id="clip0">
<rect width="63.7253" height="64" fill="white" transform="translate(0.635193)"/>
</clipPath>
</defs>
</svg>
