<svg width="64" height="64" viewBox="0 0 64 64" fill="none" xmlns="http://www.w3.org/2000/svg">
<g clip-path="url(#clip0)">
<path d="M29.2758 50.625C29.0024 50.3705 28.7772 50.0733 28.6066 49.7415L27.0499 46.7156C26.8123 46.2538 26.2456 46.0722 25.7838 46.3097C25.3222 46.5472 25.1404 47.114 25.3779 47.5757L26.9346 50.6017C27.2051 51.1275 27.5618 51.5984 27.995 52.0015L34.082 57.6638V63.0601C34.082 63.5794 34.5028 64.0002 35.0221 64.0002C35.5414 64.0002 35.9622 63.5794 35.9622 63.0601V57.2544C35.9622 56.9933 35.8536 56.744 35.6623 56.5661L29.2758 50.625Z" fill="black"/>
<path d="M25.2094 43.1379L21.0348 35.0233C21.0322 35.0182 21.0295 35.0131 21.0267 35.0079C20.6807 34.365 20.8359 33.5582 21.3956 33.0894C21.9929 32.5891 22.873 32.6123 23.4431 33.1436L28.9584 38.2827C29.2322 38.5378 29.6311 38.6062 29.9743 38.4569C30.3174 38.3078 30.5393 37.9691 30.5393 37.5949V25.5232C30.5393 25.0039 30.1184 24.5831 29.5992 24.5831C29.0801 24.5831 28.6592 25.0039 28.6592 25.5232V35.4338L24.7249 31.768C23.4621 30.5912 21.5118 30.5396 20.1885 31.6479C18.9507 32.6845 18.606 34.4673 19.3666 35.8905L23.5375 43.998C23.7043 44.3221 24.0333 44.5083 24.3743 44.5083C24.5191 44.5083 24.666 44.4746 24.8036 44.4039C25.265 44.1663 25.4468 43.5995 25.2094 43.1379Z" fill="black"/>
<path d="M51.5486 22.5799C50.2889 22.5799 49.1611 23.1545 48.4128 24.0551C47.6646 23.1545 46.5368 22.5799 45.2771 22.5799C44.0175 22.5799 42.8898 23.1545 42.1415 24.0551C41.3933 23.1545 40.2654 22.5799 39.0058 22.5799C38.1977 22.5799 37.4445 22.8173 36.8103 23.2245V15.7429C36.8103 13.4955 34.9818 11.6671 32.7344 11.6671C30.4871 11.6671 28.6588 13.4955 28.6588 15.7429V21.5167C28.6588 22.036 29.0797 22.4568 29.5988 22.4568C30.118 22.4568 30.5389 22.036 30.5389 21.5167V15.7429C30.5389 14.5323 31.5239 13.5473 32.7345 13.5473C33.9451 13.5473 34.9301 14.5322 34.9301 15.7429V32.4406C34.9301 32.9599 35.3509 33.3807 35.8702 33.3807C36.3895 33.3807 36.8103 32.9599 36.8103 32.4406V26.6556C36.8103 25.445 37.7951 24.4601 39.0058 24.4601C40.2165 24.4601 41.2014 25.4449 41.2014 26.6556V32.4353C41.2014 32.9547 41.6222 33.3754 42.1415 33.3754C42.6608 33.3754 43.0816 32.9547 43.0816 32.4353V26.6556C43.0816 25.445 44.0664 24.4601 45.2771 24.4601C46.4879 24.4601 47.4727 25.4449 47.4727 26.6556V32.4353C47.4727 32.9547 47.8935 33.3754 48.4128 33.3754C48.9321 33.3754 49.3529 32.9547 49.3529 32.4353V26.6556C49.3529 25.445 50.3379 24.4601 51.5486 24.4601C52.7593 24.4601 53.7442 25.4449 53.7442 26.6556V51.8452C53.7442 52.3239 53.6168 52.7958 53.376 53.2096L51.8665 55.8038C51.783 55.9474 51.7389 56.1105 51.7389 56.2766V62.9328C51.7389 63.4521 52.1597 63.8729 52.679 63.8729C53.1983 63.8729 53.6191 63.4521 53.6191 62.9328V56.5303L55.001 54.1552C55.4088 53.4545 55.6242 52.6558 55.6242 51.8452V26.6556C55.6243 24.4083 53.796 22.5799 51.5486 22.5799Z" fill="black"/>
<path d="M40.4947 13.2251C40.4947 14.955 39.9383 16.5939 38.8853 17.9648C38.5691 18.3766 38.6465 18.9667 39.0582 19.2831C39.229 19.4142 39.4304 19.4776 39.6302 19.4776C39.9123 19.4776 40.1915 19.3511 40.3765 19.1101C41.684 17.4079 42.3749 15.3729 42.3749 13.2252C42.3749 11.7405 42.0461 10.3144 41.3977 8.98677C41.1701 8.52011 40.6071 8.32645 40.1405 8.55458C39.6739 8.78233 39.4804 9.34539 39.7083 9.8118C40.2301 10.8803 40.4947 12.0287 40.4947 13.2251Z" fill="#F81D3D"/>
<path d="M25.0998 19.1983C25.2853 19.4342 25.5609 19.5572 25.8393 19.5572C26.0428 19.5572 26.2476 19.4915 26.4199 19.356C26.8281 19.035 26.8986 18.4441 26.5776 18.036C25.4881 16.6508 24.9123 14.9873 24.9123 13.225C24.9123 8.92893 28.4074 5.43378 32.7035 5.43378C34.4319 5.43378 36.0698 5.98957 37.4401 7.04084C37.8519 7.35684 38.4422 7.279 38.7582 6.86724C39.0742 6.45535 38.9965 5.86522 38.5846 5.5491C36.8831 4.24349 34.8495 3.55359 32.7035 3.55359C27.3707 3.55359 23.0321 7.8922 23.0321 13.225C23.0321 15.413 23.747 17.4784 25.0998 19.1983Z" fill="#F81D3D"/>
<path d="M23.4269 26.2756C23.5923 26.3933 23.7827 26.4501 23.9714 26.4501C24.2652 26.4501 24.5547 26.3126 24.7381 26.0551C25.0393 25.6322 24.9405 25.0452 24.5176 24.7441C20.7954 22.0938 18.5733 17.7878 18.5733 13.2252C18.5733 8.66271 20.7955 4.35644 24.5176 1.70625C24.9406 1.40517 25.0393 0.818172 24.7381 0.395129C24.437 -0.027789 23.85 -0.126562 23.4271 0.174645C19.2104 3.17694 16.6931 8.05566 16.6931 13.2252C16.693 18.3947 19.2103 23.2734 23.4269 26.2756Z" fill="#F81D3D"/>
<path d="M40.8894 1.70601C44.6116 4.35633 46.8338 8.66247 46.8338 13.2249C46.8338 15.0467 46.4922 16.8197 45.8188 18.4944C45.625 18.9762 45.8584 19.5237 46.3401 19.7174C46.4551 19.7636 46.5737 19.7856 46.6907 19.7856C47.0631 19.7856 47.4157 19.5627 47.5631 19.1961C48.3268 17.2973 48.714 15.2883 48.714 13.2249C48.714 8.05542 46.1967 3.17669 41.98 0.174401C41.5567 -0.126806 40.9699 -0.0280332 40.6689 0.394885C40.3678 0.817928 40.4665 1.40492 40.8894 1.70601Z" fill="#F81D3D"/>
<path d="M11.1264 7.33017C11.3117 7.52909 11.5628 7.62974 11.8147 7.62974C12.0441 7.62974 12.274 7.54626 12.4551 7.37767C12.8352 7.02395 12.8565 6.42905 12.5026 6.049L10.4581 3.85294C10.1041 3.47289 9.50936 3.45183 9.12944 3.80543C8.74939 4.15916 8.72808 4.75405 9.08193 5.1341L11.1264 7.33017Z" fill="#F81D3D"/>
<path d="M11.1264 16.6501L9.08192 18.846C8.7282 19.226 8.74938 19.8208 9.12931 20.1747C9.31043 20.3433 9.54032 20.4268 9.7697 20.4268C10.0215 20.4268 10.2727 20.3261 10.458 20.1272L12.5025 17.9312C12.8562 17.5513 12.835 16.9564 12.4551 16.6026C12.0752 16.2491 11.4804 16.2702 11.1264 16.6501Z" fill="#F81D3D"/>
<path d="M11.8145 10.6714H9.31571C8.79652 10.6714 8.37561 11.0922 8.37561 11.6115C8.37561 12.1308 8.79652 12.5516 9.31571 12.5516H11.8146C12.3338 12.5516 12.7547 12.1308 12.7547 11.6115C12.7547 11.0922 12.3337 10.6714 11.8145 10.6714Z" fill="#F81D3D"/>
</g>
<defs>
<clipPath id="clip0">
<rect width="64" height="64" fill="white"/>
</clipPath>
</defs>
</svg>
