<svg width="64" height="64" viewBox="0 0 64 64" fill="none" xmlns="http://www.w3.org/2000/svg">
<path fill-rule="evenodd" clip-rule="evenodd" d="M52.8334 0H30.6111C28.3099 0 26.4445 1.86872 26.4445 4.17391V59.8261C26.4445 62.1313 28.3099 64 30.6111 64H52.8334C55.1345 64 57 62.1313 57 59.8261V4.17391C57 1.86872 55.1345 0 52.8334 0ZM44.9584 1.60004C45.2115 1.60004 45.4167 1.8056 45.4167 2.05917C45.4167 2.31274 45.2115 2.5183 44.9584 2.5183C44.7052 2.5183 44.5 2.31274 44.5 2.05917C44.5 1.8056 44.7052 1.60004 44.9584 1.60004ZM43.4584 1.71134H40.6806C40.4888 1.71134 40.3334 1.86707 40.3334 2.05917C40.3334 2.25127 40.4888 2.407 40.6806 2.407H43.4584C43.6501 2.407 43.8056 2.25127 43.8056 2.05917C43.8056 1.86707 43.6501 1.71134 43.4584 1.71134ZM55.6111 59.8261C55.6111 61.3629 54.3674 62.6087 52.8333 62.6087H30.6111C29.077 62.6087 27.8333 61.3629 27.8333 59.8261V4.17394C27.8333 2.63715 29.077 1.39134 30.6111 1.39134H34.0833C34.4669 1.39134 34.7778 1.70279 34.7778 2.08699V2.78264C34.7778 3.55104 35.3996 4.17394 36.1667 4.17394H47.2778C48.0448 4.17394 48.6667 3.55104 48.6667 2.78264V2.08699C48.6667 1.70279 48.9776 1.39134 49.3611 1.39134H52.8333C54.3674 1.39134 55.6111 2.63715 55.6111 4.17394V59.8261ZM8.38889 59.5617C8.38889 61.2445 9.75069 62.6087 11.4306 62.6087H25.8194C26.1254 63.1323 26.5148 63.6023 26.9722 64H11.4306C8.98679 63.9924 7.00762 62.0098 7 59.5617V10.0035C7.00762 7.55547 8.98679 5.57286 11.4306 5.56522H25.0556V9.73914H16.0278C15.2607 9.73914 14.6389 9.11623 14.6389 8.34783V7.65218C14.6389 7.26798 14.328 6.95653 13.9444 6.95653H11.4306C9.75069 6.95653 8.38889 8.3207 8.38889 10.0035V59.5617ZM24.1111 7.16525C24.3642 7.16525 24.5694 7.37081 24.5694 7.62438C24.5694 7.87795 24.3642 8.08351 24.1111 8.08351C23.858 8.08351 23.6528 7.87795 23.6528 7.62438C23.6527 7.50016 23.7029 7.38122 23.7919 7.29471C23.8809 7.20819 24.001 7.16149 24.125 7.16525H24.1111ZM22.6111 7.27657H19.8333C19.6416 7.27657 19.4861 7.43229 19.4861 7.62439C19.4861 7.81649 19.6416 7.97222 19.8333 7.97222H22.6111C22.8029 7.97222 22.9583 7.81649 22.9583 7.62439C22.9583 7.43229 22.8029 7.27657 22.6111 7.27657Z" fill="#111111"/>
</svg>
