<svg width="65" height="64" viewBox="0 0 65 64" fill="none" xmlns="http://www.w3.org/2000/svg">
<g clip-path="url(#clip0)">
<path d="M32.391 8.1325C33.0832 8.1325 33.6444 7.56887 33.6444 6.87362V1.25888C33.6444 0.563625 33.0832 0 32.391 0C31.6987 0 31.1375 0.563625 31.1375 1.25888V6.87362C31.1376 7.56887 31.6988 8.1325 32.391 8.1325Z" fill="#F81D3D"/>
<path d="M63.031 43.2482L60.8167 41.0306C60.029 40.2405 58.9791 39.8052 57.8604 39.8052C57.1451 39.8052 56.4585 39.984 55.85 40.3189L51.6772 36.1331L51.8805 35.9292C53.5733 34.2257 53.5727 31.4576 51.8803 29.7599C51.2756 29.1514 50.5209 28.7456 49.6984 28.5749C49.8116 28.1822 49.8713 27.771 49.8713 27.3501C49.8713 26.1807 49.4189 25.0842 48.6002 24.2654C47.9953 23.6569 47.2408 23.2511 46.4183 23.0804C46.5315 22.6877 46.5911 22.2766 46.5911 21.8556C46.5911 20.6861 46.1388 19.5897 45.3187 18.7696C44.6994 18.1484 43.9381 17.7551 43.1386 17.5877C43.5663 16.1069 43.2009 14.4407 42.0409 13.2737C41.0753 12.3081 39.7651 11.8931 38.5024 12.0276L30.2336 10.4557C28.9726 10.2155 27.3977 10.0566 26.4037 10.9672C26.3409 11.0247 26.2769 11.0909 26.214 11.1645C24.6726 10.6002 22.8749 10.9362 21.6406 12.1745C20.8217 12.9959 20.3707 14.0919 20.3707 15.2606C20.3707 15.6816 20.43 16.0927 20.5432 16.4855C19.7215 16.6561 18.9678 17.0614 18.3651 17.6679C17.5446 18.4885 17.0922 19.5832 17.0913 20.7506C17.0909 21.1726 17.1505 21.5851 17.2643 21.9789C16.4422 22.1491 15.6881 22.5536 15.0834 23.1601C14.263 23.9832 13.8112 25.0799 13.8112 26.248C13.8112 27.1427 14.0772 27.9951 14.57 28.7151C13.9477 28.927 13.3777 29.2796 12.9004 29.7585C11.2064 31.4576 11.2058 34.2259 12.9015 35.9319L13.104 36.1344L8.93072 40.318C7.37978 39.5846 5.46889 39.8594 4.18903 41.1431L1.97333 43.3621C1.18523 44.1526 0.751345 45.2071 0.751221 46.3312C0.751221 47.4555 1.18523 48.5101 1.97333 49.3007L4.73853 52.0745C5.2283 52.5659 6.022 52.5654 6.51114 52.0735C7.00041 51.5816 6.99991 50.7845 6.51015 50.2932L3.74494 47.5195C3.43105 47.2046 3.25817 46.7826 3.25817 46.3314C3.25817 45.8802 3.43105 45.4584 3.7442 45.1442L5.96002 42.9251C6.51363 42.3697 7.36098 42.287 8.00446 42.6734C8.04976 42.7417 8.10216 42.8067 8.16215 42.8671C8.26956 42.9752 8.39216 43.0581 8.52235 43.1187L21.2292 55.8616C21.2896 55.9937 21.3725 56.1181 21.4806 56.2269C21.5859 56.3327 21.706 56.4146 21.8335 56.4749C22.1022 56.78 22.2507 57.1697 22.2507 57.5855C22.2507 58.0367 22.0778 58.4586 21.7639 58.7735L19.5503 60.994C18.8963 61.648 17.8323 61.6479 17.1803 60.996L14.4151 58.2186C13.9256 57.727 13.132 57.727 12.6425 58.2186C12.153 58.7102 12.153 59.5072 12.6425 59.9989L15.4097 62.7782C16.2242 63.5929 17.2938 64 18.3639 64C19.4343 64 20.5052 63.5922 21.3207 62.7769L23.5356 60.555C24.3237 59.7644 24.7577 58.7099 24.7577 57.5855C24.7577 56.7831 24.5356 56.0169 24.1225 55.3561L28.8192 50.6449C28.8242 50.6397 28.8292 50.6346 28.8343 50.6295C29.3721 50.0711 30.8698 50.1756 32.3182 50.2766C33.3472 50.3485 34.4945 50.4284 35.6154 50.2986L40.7588 55.458C40.4256 56.0681 40.2477 56.7569 40.2477 57.4741C40.2477 58.5972 40.6817 59.6511 41.4698 60.4417L43.6849 62.6636C44.4725 63.4537 45.5224 63.889 46.641 63.889C47.7596 63.889 48.8095 63.4539 49.5972 62.6636L63.0319 49.1874C63.82 48.3969 64.254 47.3424 64.254 46.2181C64.2539 45.094 63.8199 44.0395 63.031 43.2482ZM29.7669 12.9295L35.2043 13.9631L31.9497 17.2305C31.4463 16.9875 30.7563 16.5342 29.9993 15.807C28.9631 14.8115 28.2219 13.6621 28.1545 12.9452C28.1544 12.9449 28.1544 12.9445 28.1544 12.9441C28.1544 12.944 28.1542 12.9439 28.1542 12.9437C28.1494 12.8922 28.1481 12.8511 28.1488 12.8197C28.3127 12.7797 28.748 12.7354 29.7669 12.9295ZM23.412 13.9559C24.0471 13.3187 25.0336 13.2452 25.7511 13.7332C26.1577 15.4455 27.6121 16.9974 28.2664 17.6261C28.7513 18.0921 30.3072 19.4892 31.8777 19.8732C32.0901 20.1791 32.2058 20.5437 32.2058 20.9285C32.2058 21.4241 32.016 21.8875 31.6701 22.2345C31.3252 22.5815 30.8631 22.7725 30.3687 22.7725C29.8742 22.7725 29.4121 22.5815 29.0656 22.2329L29.0654 22.2327L29.0648 22.2321L23.4119 16.5651C23.0673 16.2195 22.8775 15.7561 22.8775 15.2606C22.8776 14.765 23.0674 14.3016 23.412 13.9559ZM20.1367 19.4492C20.4816 19.1024 20.9432 18.9112 21.4368 18.9112C21.9311 18.9112 22.3942 19.1027 22.7413 19.451L27.2932 24.0134C28.01 24.7344 28.01 25.9076 27.2957 26.6261C26.9489 26.973 26.4852 27.164 25.9899 27.164C25.4947 27.164 25.0309 26.973 24.6857 26.6276L24.6856 26.6275L21.2323 23.1601C21.227 23.1547 21.2211 23.1497 21.2156 23.1442L20.1353 22.0597C19.7887 21.712 19.5979 21.2477 19.5982 20.7525C19.5987 20.2589 19.7889 19.797 20.1367 19.4492ZM16.8551 24.9415C17.2002 24.5954 17.6628 24.4047 18.1579 24.4047C18.649 24.4047 19.1076 24.5926 19.4512 24.9327L22.9151 28.4099C23.2605 28.7554 23.4508 29.2182 23.4508 29.7132C23.4508 30.2081 23.2604 30.671 22.9137 31.0179C22.5687 31.3639 22.1065 31.5545 21.6123 31.5545C21.1173 31.5545 20.6537 31.3634 20.3082 31.0179L19.0525 29.7582C19.0522 29.7579 19.0518 29.7576 19.0516 29.7574L16.8552 27.5541C16.5089 27.2067 16.3182 26.7427 16.3182 26.2477C16.3182 25.7529 16.5089 25.2887 16.8551 24.9415ZM14.672 31.5397C15.0186 31.192 15.4819 31.0005 15.9763 31.0005C16.4707 31.0005 16.9338 31.1919 17.2804 31.5394L18.5378 32.8007C18.8833 33.1462 19.0735 33.6091 19.0735 34.1041C19.0735 34.5991 18.8832 35.0619 18.5352 35.4101C18.1903 35.757 17.7282 35.9481 17.2338 35.9481C16.7393 35.9481 16.2772 35.7571 15.9298 35.4076L15.7724 35.2501C15.7702 35.248 15.7686 35.2457 15.7666 35.2437C15.7643 35.2415 15.7618 35.2395 15.7594 35.2372L14.6732 34.1506C13.9564 33.4292 13.9558 32.2581 14.672 31.5397ZM40.2161 45.847C39.7268 45.355 38.9331 45.3546 38.4435 45.8459L37.3283 46.9645C36.2686 48.0287 34.3485 47.8947 32.4917 47.7654C30.4752 47.6246 28.3901 47.4794 27.0408 48.8706L22.4238 53.5019L10.8782 41.9235L14.9641 37.8274C15.6394 38.2431 16.4187 38.466 17.2341 38.466C18.3989 38.466 19.4912 38.0125 20.3071 37.1916C21.1284 36.3701 21.5808 35.2737 21.5808 34.1042C21.5808 34.0934 21.5801 34.0826 21.5801 34.0717C21.5909 34.0719 21.6017 34.0725 21.6126 34.0725C22.7758 34.0725 23.8672 33.6204 24.6842 32.8009C25.5055 31.9794 25.9579 30.8829 25.9579 29.7135C25.9579 29.7026 25.9572 29.6919 25.9572 29.681C25.9682 29.681 25.9791 29.6817 25.9902 29.6817C27.153 29.6817 28.2451 29.2301 29.0675 28.4075C29.9214 27.5486 30.3437 26.4179 30.3356 25.2895C30.3468 25.2896 30.358 25.2902 30.3692 25.2902C31.534 25.2901 32.6262 24.8367 33.4433 24.0146C34.2622 23.1932 34.7132 22.0972 34.7132 20.9285C34.7132 20.1111 34.4919 19.3297 34.0793 18.6529L37.6605 15.0577C37.9274 14.7909 38.2564 14.6234 38.6013 14.5542C38.6387 14.5502 38.6755 14.5442 38.712 14.537C39.2653 14.4604 39.8465 14.6319 40.2696 15.0551C40.9864 15.7762 40.9864 16.9495 40.2722 17.668L39.1816 18.7589C39.178 18.7625 39.1741 18.7657 39.1705 18.7694L37.9143 20.0289C37.4244 20.5201 37.4239 21.3172 37.9132 21.8091C38.4026 22.3011 39.1961 22.3015 39.6858 21.8102L40.7808 20.712C40.7811 20.7117 40.7813 20.7115 40.7816 20.7112L40.9471 20.5456C41.6659 19.8304 42.8303 19.8319 43.5484 20.552C43.8939 20.8975 44.0842 21.3604 44.0842 21.8554C44.0842 22.3502 43.8939 22.8131 43.5456 23.1614L42.4487 24.2652C42.4486 24.2654 42.4485 24.2655 42.4484 24.2657L41.1923 25.5221C40.7018 26.0127 40.7002 26.8099 41.1887 27.3024C41.6772 27.795 42.4708 27.7965 42.9613 27.306L44.2231 26.0439C44.568 25.6969 45.0301 25.5059 45.5245 25.5059C46.019 25.5059 46.4812 25.6969 46.8286 26.0464C47.1741 26.392 47.3643 26.8549 47.3643 27.3499C47.3643 27.8447 47.1741 28.3076 46.8266 28.6551L44.6398 30.8522C44.1504 31.344 44.1505 32.141 44.64 32.6325C44.8849 32.8782 45.2055 33.001 45.5262 33.001C45.8471 33.001 46.168 32.878 46.4127 32.6321L47.4844 31.5554C47.4905 31.5495 47.4971 31.5444 47.5032 31.5382C47.8481 31.1912 48.3102 31.0002 48.8046 31.0002C49.2991 31.0002 49.7612 31.1912 50.1074 31.5395C50.8234 32.2579 50.8228 33.4291 50.1074 34.1489L49.0177 35.242C49.0173 35.2424 49.0168 35.2427 49.0164 35.2431C49.0161 35.2435 49.0157 35.244 49.0153 35.2444L47.2858 36.9792C46.796 37.4706 46.7955 38.2677 47.2846 38.7596C47.5295 39.0057 47.8506 39.1289 48.1716 39.1289C48.4921 39.1289 48.8127 39.0061 49.0574 38.7607L49.9034 37.9121L53.958 41.9795L42.4134 53.5597L38.277 49.4105C38.5654 49.2242 38.8413 49.0052 39.1003 48.7451L40.2149 47.6271C40.7049 47.136 40.7054 46.3389 40.2161 45.847ZM61.2602 47.406L47.8254 60.8822C47.5112 61.1975 47.0905 61.3711 46.6409 61.3711C46.1914 61.3711 45.7707 61.1975 45.4563 60.8821L43.2412 58.6602C42.9273 58.3455 42.7544 57.9242 42.7544 57.4741C42.7544 57.0241 42.9273 56.6029 43.2412 56.288L56.6759 42.8117C56.9903 42.4964 57.4109 42.3227 57.8606 42.3227C58.3101 42.3227 58.7308 42.4964 59.046 42.8125L61.2603 45.0301C61.5742 45.345 61.7471 45.7667 61.7471 46.218C61.7469 46.6694 61.5741 47.0912 61.2602 47.406Z" fill="black"/>
<path d="M15.7466 7.07128C15.9913 7.31653 16.3117 7.43903 16.6321 7.43903C16.9532 7.43903 17.2744 7.31578 17.5192 7.06941C18.0083 6.57728 18.0075 5.78028 17.5175 5.28916L12.9499 0.711031C12.4601 0.219906 11.6663 0.220531 11.1773 0.712781C10.6883 1.20491 10.6891 2.00191 11.1791 2.49303L15.7466 7.07128Z" fill="#F81D3D"/>
<path d="M48.15 7.43898C48.4705 7.43898 48.7911 7.31623 49.0358 7.07086L53.5998 2.49261C54.0896 2.00136 54.0901 1.20423 53.6008 0.712359C53.1117 0.220484 52.3181 0.219984 51.8282 0.711359L47.2642 5.28961C46.7744 5.78086 46.7739 6.57798 47.2632 7.06986C47.508 7.31598 47.829 7.43898 48.15 7.43898Z" fill="#F81D3D"/>
<path d="M8.45819 54.1504C7.97291 54.6461 7.97963 55.4433 8.47338 55.9306L8.47699 55.9341C8.72056 56.1746 9.03682 56.2944 9.35296 56.2944C9.67744 56.2944 10.0019 56.1683 10.2477 55.9171C10.733 55.4214 10.7244 54.6225 10.2308 54.1351C9.7373 53.6478 8.94372 53.6546 8.45819 54.1504Z" fill="#F81D3D"/>
<path d="M43.2814 44.0334C43.4721 44.0334 43.6655 43.9898 43.8471 43.8979C44.4652 43.5848 44.7135 42.8278 44.4018 42.207C44.0901 41.5863 43.3362 41.3368 42.7182 41.6499L42.7113 41.6534C42.0932 41.9665 41.8484 42.7218 42.16 43.3426C42.3801 43.7811 42.8227 44.0334 43.2814 44.0334Z" fill="#F81D3D"/>
</g>
<defs>
<clipPath id="clip0">
<rect width="63.7253" height="64" fill="white" transform="translate(0.639496)"/>
</clipPath>
</defs>
</svg>
