<svg width="64" height="64" viewBox="0 0 64 64" fill="none" xmlns="http://www.w3.org/2000/svg">
<path d="M24.6667 63.375H4.66667C2.43851 63.375 0.625 61.5615 0.625 59.3333V20.6667C0.625 18.4385 2.43851 16.625 4.66667 16.625H24.6667C26.8948 16.625 28.7083 18.4385 28.7083 20.6667V59.3333C28.7083 61.5615 26.8948 63.375 24.6667 63.375ZM4.66667 19.375C3.95349 19.375 3.375 19.9535 3.375 20.6667V59.3333C3.375 60.0465 3.95349 60.625 4.66667 60.625H24.6667C25.3798 60.625 25.9583 60.0465 25.9583 59.3333V20.6667C25.9583 19.9535 25.3798 19.375 24.6667 19.375H4.66667Z" fill="black" stroke="white" stroke-width="1.25"/>
<path d="M36 58C36 57.4477 36.4477 57 37 57H40C40.5523 57 41 57.4477 41 58C41 58.5523 40.5523 59 40 59H37C36.4477 59 36 58.5523 36 58Z" fill="black"/>
<path d="M54.8965 64C54.8965 64 29.5695 64 28.5 64C27.4305 64 27.5625 63.132 27.5625 62.0625C27.5625 60.993 27.4305 60.125 28.5 60.125C29.5695 60.125 54.8965 60.125 54.8965 60.125C56.6764 60.125 58.1256 58.6757 58.1256 56.8958V9.10417C58.1256 7.32425 56.6764 5.875 54.8965 5.875H19.3757C17.5957 5.875 16.1465 7.32425 16.1465 9.10417V17.5C16.1465 18.5695 15.2785 19 14.209 19C13.1395 19 12.2715 18.5695 12.2715 17.5V9.10417C12.2715 5.18525 15.4567 2 19.3757 2H54.8965C58.8154 2 62.0006 5.18525 62.0006 9.10417V56.8958C62.0006 60.8147 58.8154 64 54.8965 64Z" fill="black"/>
<path fill-rule="evenodd" clip-rule="evenodd" d="M54.8962 62.75C54.8962 62.75 54.8965 62.75 54.8965 64H28.5C27.5391 64 27.5481 63.2994 27.5598 62.3814C27.5611 62.2777 27.5625 62.1711 27.5625 62.0625C27.5625 61.9539 27.5611 61.8473 27.5598 61.7436C27.5481 60.8256 27.5391 60.125 28.5 60.125H54.8965C54.8965 61.375 54.8962 61.375 54.8962 61.375H28.8077C28.8068 61.4586 28.8075 61.5505 28.8088 61.6571C28.8091 61.6789 28.8094 61.7014 28.8097 61.7246C28.811 61.8287 28.8125 61.9451 28.8125 62.0625C28.8125 62.1799 28.811 62.2963 28.8097 62.4004C28.8094 62.4236 28.8091 62.4461 28.8088 62.4679C28.8075 62.5745 28.8068 62.6664 28.8077 62.75H54.8962ZM28.4524 62.7478L28.4542 62.7481L28.4524 62.7478ZM28.4524 61.3772L28.4542 61.3769L28.4524 61.3772ZM14.8836 17.6111C14.8875 17.6001 14.8965 17.5669 14.8965 17.5V9.10417C14.8965 6.63389 16.9054 4.625 19.3757 4.625H54.8965C57.3668 4.625 59.3756 6.63389 59.3756 9.10417V56.8958C59.3756 59.3661 57.3665 61.375 54.8962 61.375L54.8965 60.125C56.6764 60.125 58.1256 58.6757 58.1256 56.8958V9.10417C58.1256 7.32425 56.6764 5.875 54.8965 5.875H19.3757C17.5957 5.875 16.1465 7.32425 16.1465 9.10417V17.5C16.1465 18.5695 15.2785 19 14.209 19C13.1395 19 12.2715 18.5695 12.2715 17.5V9.10417C12.2715 5.18525 15.4567 2 19.3757 2H54.8965C58.8154 2 62.0006 5.18525 62.0006 9.10417V56.8958C62.0006 60.8147 58.8154 64 54.8965 64L54.8962 62.75C58.1248 62.75 60.7506 60.1244 60.7506 56.8958V9.10417C60.7506 5.87561 58.125 3.25 54.8965 3.25H19.3757C16.1471 3.25 13.5215 5.87561 13.5215 9.10417V17.5C13.5215 17.5669 13.5305 17.6001 13.5344 17.6111C13.5368 17.6132 13.541 17.6166 13.5478 17.6213C13.6122 17.6656 13.8127 17.75 14.209 17.75C14.6053 17.75 14.8058 17.6656 14.8702 17.6213C14.877 17.6166 14.8812 17.6132 14.8836 17.6111ZM14.8852 17.6096L14.8863 17.6083L14.8852 17.6096Z" fill="white"/>
<path d="M12 58C12 57.4477 12.4477 57 13 57H16C16.5523 57 17 57.4477 17 58C17 58.5523 16.5523 59 16 59H13C12.4477 59 12 58.5523 12 58Z" fill="black"/>
</svg>
