<svg width="64" height="64" viewBox="0 0 64 64" fill="none" xmlns="http://www.w3.org/2000/svg">
<path d="M49.85 31.5896C49.8735 31.8037 49.9752 32.0016 50.1355 32.1454C50.2959 32.2893 50.5036 32.3689 50.719 32.3691C50.7511 32.3692 50.7831 32.3675 50.815 32.3641C50.9293 32.3516 51.04 32.3168 51.1408 32.2616C51.2415 32.2063 51.3305 32.1318 51.4024 32.0421C51.4744 31.9525 51.528 31.8496 51.5602 31.7393C51.5924 31.6289 51.6025 31.5133 51.59 31.3991L50.96 25.6466C50.9486 25.5315 50.9146 25.4197 50.8597 25.3178C50.8049 25.216 50.7304 25.126 50.6406 25.0531C50.5507 24.9802 50.4473 24.9258 50.3363 24.8932C50.2254 24.8605 50.109 24.8501 49.994 24.8627C49.879 24.8753 49.7676 24.9106 49.6663 24.9665C49.565 25.0225 49.4759 25.0979 49.4039 25.1885C49.332 25.2791 49.2787 25.3831 49.2473 25.4944C49.2158 25.6058 49.2067 25.7222 49.2205 25.8371L49.85 31.5896Z" fill="#F81D3D"/>
<path d="M57.81 60.6545L52.775 14.6545C52.7516 14.4401 52.6498 14.242 52.4893 14.098C52.3287 13.954 52.1206 13.8745 51.905 13.8745H42.105V9.25C42.103 7.42725 41.3781 5.67972 40.0892 4.39083C38.8003 3.10195 37.0528 2.37699 35.23 2.375H28.77C26.9473 2.37699 25.1997 3.10195 23.9108 4.39083C22.622 5.67972 21.897 7.42725 21.895 9.25V13.875H12.095C11.8794 13.875 11.6713 13.9545 11.5107 14.0985C11.3502 14.2425 11.2484 14.4406 11.225 14.655L6.19 60.655C6.17666 60.7772 6.18921 60.9009 6.22685 61.018C6.26448 61.135 6.32635 61.2428 6.40842 61.3344C6.4905 61.426 6.59094 61.4992 6.70321 61.5494C6.81547 61.5995 6.93704 61.6255 7.06 61.6255H56.94C57.063 61.6255 57.1845 61.5995 57.2968 61.5494C57.4091 61.4992 57.5095 61.426 57.5916 61.3344C57.6737 61.2428 57.7355 61.135 57.7732 61.018C57.8108 60.9009 57.8233 60.7767 57.81 60.6545ZM24.271 20.436C24.6913 20.436 25.1021 20.5606 25.4516 20.7941C25.801 21.0276 26.0734 21.3595 26.2342 21.7478C26.3951 22.1361 26.4372 22.5634 26.3552 22.9756C26.2732 23.3878 26.0708 23.7664 25.7736 24.0636C25.4764 24.3608 25.0978 24.5632 24.6856 24.6452C24.2734 24.7272 23.8461 24.6851 23.4578 24.5242C23.0695 24.3634 22.7376 24.091 22.5041 23.7416C22.2706 23.3921 22.146 22.9813 22.146 22.561C22.1467 21.9976 22.3708 21.4575 22.7691 21.0591C23.1675 20.6608 23.7076 20.4367 24.271 20.436ZM37.355 13.875H26.645V9.25C26.6457 8.68662 26.8698 8.1465 27.2681 7.74813C27.6665 7.34976 28.2066 7.12566 28.77 7.125H35.23C35.7934 7.12566 36.3335 7.34976 36.7319 7.74813C37.1302 8.1465 37.3543 8.68662 37.355 9.25V13.875ZM39.729 20.436C40.1493 20.436 40.5601 20.5606 40.9096 20.7941C41.259 21.0276 41.5314 21.3595 41.6922 21.7478C41.8531 22.1361 41.8952 22.5634 41.8132 22.9756C41.7312 23.3878 41.5288 23.7664 41.2316 24.0636C40.9344 24.3608 40.5558 24.5632 40.1436 24.6452C39.7314 24.7272 39.3041 24.6851 38.9158 24.5242C38.5275 24.3634 38.1956 24.091 37.9621 23.7416C37.7286 23.3921 37.604 22.9813 37.604 22.561C37.6047 21.9976 37.8288 21.4575 38.2271 21.0591C38.6255 20.6608 39.1656 20.4367 39.729 20.436ZM23.645 9.25C23.6465 7.89121 24.1869 6.58849 25.1477 5.62769C26.1085 4.66688 27.4112 4.12646 28.77 4.125H35.23C36.5888 4.12646 37.8915 4.66688 38.8523 5.62769C39.8131 6.58849 40.3535 7.89121 40.355 9.25V18.7415C39.9416 18.6678 39.5184 18.6678 39.105 18.7415V9.25C39.1038 8.22265 38.6952 7.23772 37.9687 6.51128C37.2423 5.78483 36.2574 5.37619 35.23 5.375H28.77C27.7427 5.37619 26.7577 5.78483 26.0313 6.51128C25.3048 7.23772 24.8962 8.22265 24.895 9.25V18.741C24.4816 18.6673 24.0584 18.6673 23.645 18.741V9.25ZM12.8795 15.625H21.895V19.5065C21.2565 20.0017 20.7887 20.6841 20.5571 21.4583C20.3255 22.2324 20.3417 23.0596 20.6034 23.8241C20.8651 24.5887 21.3592 25.2522 22.0167 25.7221C22.6741 26.1919 23.4619 26.4445 24.27 26.4445C25.0781 26.4445 25.8659 26.1919 26.5234 25.7221C27.1808 25.2522 27.6749 24.5887 27.9366 23.8241C28.1983 23.0596 28.2145 22.2324 27.9829 21.4583C27.7513 20.6841 27.2836 20.0017 26.645 19.5065V15.625H37.355V19.5055C36.7168 20.0007 36.2493 20.6829 36.0179 21.4569C35.7865 22.2308 35.8028 23.0577 36.0645 23.8219C36.3261 24.5861 36.8202 25.2495 37.4774 25.7191C38.1346 26.1888 38.9222 26.4412 39.73 26.4412C40.5378 26.4412 41.3254 26.1888 41.9826 25.7191C42.6399 25.2495 43.1339 24.5861 43.3956 23.8219C43.6572 23.0577 43.6735 22.2308 43.4421 21.4569C43.2107 20.6829 42.7432 20.0007 42.105 19.5055V15.625H51.1205L54.9955 51.03H9.0045L12.8795 15.625ZM8.0365 59.875L8.814 52.78H55.186L55.9635 59.875H8.0365Z" fill="white"/>
<path d="M9.0045 51.0299H54.9955L55.186 52.7799H8.814L9.0045 51.0299Z" fill="#F81D3D"/>
</svg>
