<svg width="65" height="64" viewBox="0 0 65 64" fill="none" xmlns="http://www.w3.org/2000/svg">
<path d="M55.3991 47C52.4588 47 49.8909 48.613 48.5108 51H42.448C51.7977 47.076 58.3863 37.797 58.3863 27C58.3863 12.664 46.7723 1 32.4978 1C18.5569 1 7.15408 12.125 6.62835 26H3.48788L10.5923 34.562L17.6966 26H14.602C15.1207 16.538 22.949 9 32.4978 9C42.3802 9 50.4206 17.075 50.4206 27C50.4206 36.925 42.3802 45 32.4978 45H21.5451V57H47.6953C48.5835 60.445 51.6951 63 55.3991 63C59.7912 63 63.3648 59.411 63.3648 55C63.3648 50.589 59.7912 47 55.3991 47ZM32.4978 47C43.4785 47 52.412 38.028 52.412 27C52.412 15.972 43.4785 7 32.4978 7C21.5172 7 12.5837 15.972 12.5837 27V28H13.445L10.5923 31.438L7.73956 28H8.60085V27C8.60085 13.767 19.3216 3 32.4978 3C45.674 3 56.3948 13.767 56.3948 27C56.3948 40.233 45.674 51 32.4978 51H23.5365V47H32.4978ZM23.5365 55V53H47.6953C47.53 53.641 47.4335 54.308 47.4335 55H23.5365ZM55.3991 61C52.1043 61 49.4249 58.309 49.4249 55C49.4249 51.691 52.1043 49 55.3991 49C58.6939 49 61.3734 51.691 61.3734 55C61.3734 58.309 58.6939 61 55.3991 61Z" fill="black"/>
<path d="M58.678 51.2081L54.4035 55.5011L53.116 54.2081L51.7081 55.6221L54.4035 58.3291L60.086 52.6221L58.678 51.2081Z" fill="#F81D3D"/>
<path d="M16.5665 37H4.61801C2.97111 37 1.63089 38.346 1.63089 40V60C1.63089 61.654 2.97111 63 4.61801 63H16.5665C18.2134 63 19.5536 61.654 19.5536 60V40C19.5536 38.346 18.2134 37 16.5665 37ZM17.5622 60C17.5622 60.552 17.1151 61 16.5665 61H4.61801C4.06938 61 3.62231 60.552 3.62231 60V40C3.62231 39.448 4.06938 39 4.61801 39H16.5665C17.1151 39 17.5622 39.448 17.5622 40V60Z" fill="black"/>
<path d="M33.4936 34C37.337 34 40.4635 30.86 40.4635 27C40.4635 23.14 37.337 20 33.4936 20C29.6501 20 26.5236 23.14 26.5236 27C26.5236 30.86 29.6501 34 33.4936 34ZM33.4936 22C36.2387 22 38.4721 24.243 38.4721 27C38.4721 29.757 36.2387 32 33.4936 32C30.7484 32 28.515 29.757 28.515 27C28.515 24.243 30.7484 22 33.4936 22Z" fill="#F81D3D"/>
<path d="M20.5493 30.781L22.955 31.384L21.6795 33.519L27.0035 38.865L29.1284 37.584L29.7288 40H37.2583L37.8587 37.584L39.9836 38.865L45.3076 33.519L44.0321 31.384L46.4378 30.781V23.219L44.0321 22.616L45.3076 20.482L39.9836 15.135L37.8587 16.416L37.2583 14H29.7288L29.1284 16.416L27.0035 15.135L21.6795 20.482L22.955 22.616L20.5493 23.219V30.781ZM22.5408 24.781L24.9763 24.17L25.4761 22.948L24.1857 20.79L27.3102 17.652L29.4589 18.948L30.6757 18.446L31.2841 16H35.703L36.3114 18.446L37.5282 18.948L39.6769 17.652L42.8014 20.79L41.511 22.948L42.0108 24.17L44.4463 24.781V29.219L42.5057 29.706L41.974 29.912L41.51 31.05L42.8004 33.21L39.6759 36.349L37.5272 35.053L36.3124 35.549L35.703 38H31.2841L30.7992 36.051L30.597 35.516L29.4599 35.052L27.3112 36.348L24.1867 33.209L25.4771 31.049L24.9763 29.829L22.5408 29.219V24.781Z" fill="black"/>
<path d="M5.61374 41H15.5708V43H5.61374V41Z" fill="#F81D3D"/>
<path d="M5.61374 49H15.5708V51H5.61374V49Z" fill="#F81D3D"/>
<path d="M13.5794 57H15.5708V59H13.5794V57Z" fill="#F81D3D"/>
<path d="M9.59656 57H11.588V59H9.59656V57Z" fill="#F81D3D"/>
<path d="M5.61374 57H7.60515V59H5.61374V57Z" fill="#F81D3D"/>
</svg>
