<svg width="64" height="64" viewBox="0 0 64 64" fill="none" xmlns="http://www.w3.org/2000/svg">
<path fill-rule="evenodd" clip-rule="evenodd" d="M63.9781 30.624C63.9561 30.2262 63.9195 29.6627 63.8647 29.2502C63.7714 28.5504 63.5374 27.4215 63.5374 27.4215L60.2807 14.5303C59.8204 11.36 57.1242 9.00735 53.9429 9H10.1047C6.91223 9.00492 4.19777 11.3482 3.70469 14.5248L0.513829 27.416C0.513829 27.416 0.228571 28.6867 0.171886 29.1913C0.135314 29.5172 0.0987429 30.2207 0.0768 30.6756L0 30.6001V47.7122C0.012102 51.7692 3.28594 55.0491 7.31429 55.0399H56.6857C60.7103 55.0399 63.9789 51.7654 64 47.7122V30.6001L63.9781 30.624ZM1.98952 29.4011C2.02061 29.1212 2.18884 28.3091 2.28941 27.8634L5.48758 14.9722L5.50952 14.882L5.52232 14.7899C5.87332 12.5154 7.81919 10.8388 10.1047 10.8415H53.9429C56.2103 10.8531 58.1301 12.5293 58.4631 14.7881L58.4777 14.8838L58.5015 14.9778L61.7399 27.7971C61.8021 28.0918 61.9758 28.9739 62.0453 29.4932C62.1148 30.0125 62.1715 30.8726 62.1715 31.0991C62.1715 34.1503 59.7154 36.6239 56.6857 36.6239H7.36552C4.36488 36.6242 1.92082 34.1963 1.87981 31.1746C1.90358 30.6571 1.95112 29.7179 1.98769 29.4011H1.98952ZM62.1715 47.7122C62.1652 49.1745 61.582 50.5743 60.5503 51.6033C59.5186 52.6323 58.1231 53.2061 56.6711 53.1983H7.31432C5.86355 53.2066 4.46926 52.6325 3.4398 51.603C2.41033 50.5735 1.83053 49.1733 1.82861 47.7122V35.8431C3.20076 37.4957 5.22649 38.4552 7.36552 38.4655H56.6857C58.7956 38.4576 60.7978 37.526 62.1715 35.9131V47.7122ZM19.4981 22.0752C20.2958 21.479 21.2721 21.1755 22.2647 21.2152C22.73 21.2277 23.1928 21.2895 23.6453 21.3994C23.8955 21.461 24.1507 21.4998 24.4078 21.5154C24.6543 21.4997 24.899 21.4627 25.1392 21.4049C25.7171 21.2697 26.3087 21.2036 26.902 21.2079C27.7716 21.1788 28.6295 21.4171 29.3614 21.8911L29.4126 21.9298L29.3394 21.9592L29.3084 21.9703C28.9024 22.1066 27.9589 22.4988 27.9717 23.1931C27.9845 24.0457 29.2517 24.4122 29.6338 24.5043C29.6509 24.507 29.6675 24.512 29.6832 24.519L29.7253 24.5411L29.7015 24.578C29.4625 24.9491 29.1567 25.272 28.8 25.5301C28.2284 26.0484 27.4933 26.3465 26.7246 26.3717C26.3739 26.3714 26.0245 26.3281 25.6841 26.2428C25.3252 26.1526 24.9569 26.1062 24.587 26.1047C24.1971 26.1042 23.8085 26.1506 23.4295 26.2428C23.1137 26.3202 22.7907 26.364 22.4658 26.3735H22.4146C21.6377 26.3304 20.8985 26.0219 20.3191 25.4988C19.0848 24.5817 18.379 23.0697 19.4981 22.0752ZM37.142 22.1102H35.2787V24.8965C35.2787 25.3127 35.6078 25.4914 36.3758 25.4932C36.5587 25.4932 36.9061 25.4803 37.0195 25.4711H37.131V26.333L37.0597 26.3422C36.695 26.3754 36.3288 26.3895 35.9626 26.3846C34.0298 26.3846 33.2416 25.9776 33.2416 24.9868V22.1139H31.8172V21.2483H33.2453V20.0495H35.286V21.2428H37.1493L37.142 22.1102ZM43.542 26.357H41.4574L37.8514 21.2484H40.0183L42.5052 25.2097L44.992 21.2557H47.1205L43.542 26.357ZM24.9143 20.0955C25.5275 19.7643 26.2099 19.5838 26.9056 19.5688H26.997L27.0062 19.6167C27.0812 19.985 26.8233 20.3939 26.3132 20.7217C25.7442 21.0433 25.1023 21.2114 24.4498 21.2097H24.2926H24.214L24.203 21.1692C24.0951 20.7603 24.5193 20.3404 24.9125 20.1066L24.9143 20.0955Z" fill="#111111"/>
</svg>
