<svg width="64" height="64" viewBox="0 0 64 64" fill="none" xmlns="http://www.w3.org/2000/svg">
<g clip-path="url(#clip0)">
<path d="M3.83999 32.1846C3.30567 31.9366 2.67149 32.1687 2.42345 32.703C0.818033 36.1581 -0.00926314 39.9235 -1.48608e-05 43.7334C-1.48608e-05 57.1809 7.53599 64 22.4 64C25.4034 64.0473 28.4001 63.7019 31.3141 62.9728C31.8835 62.8214 32.2223 62.2372 32.0709 61.6678C31.9195 61.0984 31.3352 60.7596 30.7659 60.911C28.0297 61.5867 25.218 61.9079 22.4 61.8667C8.76265 61.8667 2.13332 55.935 2.13332 43.7334C2.11413 40.2323 2.87456 36.7708 4.35945 33.6C4.60657 33.0657 4.37408 32.4322 3.83999 32.1846Z" fill="black"/>
<path d="M60.8 26.6666H37.3333C35.566 26.6666 34.1333 28.0993 34.1333 29.8666V60.8C34.1333 62.5673 35.566 64 37.3333 64H60.8C62.5673 64 64 62.5673 64 60.8V29.8666C64 28.0993 62.5673 26.6666 60.8 26.6666ZM61.8666 60.8C61.8666 61.3891 61.3891 61.8666 60.8 61.8666H37.3333C36.7442 61.8666 36.2666 61.3891 36.2666 60.8V29.8666C36.2666 29.2775 36.7442 28.8 37.3333 28.8H60.8C61.3891 28.8 61.8666 29.2775 61.8666 29.8666V60.8Z" fill="black"/>
<path d="M41.6 40.5333H56.5333C57.7115 40.5333 58.6666 39.5782 58.6666 38.4V34.1333C58.6666 32.9551 57.7115 32 56.5333 32H41.6C40.4218 32 39.4666 32.9551 39.4666 34.1333V38.4C39.4666 39.5782 40.4218 40.5333 41.6 40.5333ZM41.6 34.1333H56.5333V38.4H41.6V34.1333Z" fill="#F81D3D"/>
<path d="M43.7333 43.7334H40.5333C39.9442 43.7334 39.4666 44.211 39.4666 44.8001C39.4666 45.3892 39.9442 45.8667 40.5333 45.8667H43.7333C44.3224 45.8667 44.8 45.3892 44.8 44.8001C44.8 44.211 44.3224 43.7334 43.7333 43.7334Z" fill="black"/>
<path d="M43.7333 48H40.5333C39.9442 48 39.4666 48.4776 39.4666 49.0667C39.4666 49.6558 39.9442 50.1333 40.5333 50.1333H43.7333C44.3224 50.1333 44.8 49.6558 44.8 49.0667C44.8 48.4776 44.3224 48 43.7333 48Z" fill="black"/>
<path d="M43.7333 52.2667H40.5333C39.9442 52.2667 39.4666 52.7443 39.4666 53.3334C39.4666 53.9225 39.9442 54.4 40.5333 54.4H43.7333C44.3224 54.4 44.8 53.9225 44.8 53.3334C44.8 52.7443 44.3224 52.2667 43.7333 52.2667Z" fill="black"/>
<path d="M43.7333 56.5334H40.5333C39.9442 56.5334 39.4666 57.011 39.4666 57.6001C39.4666 58.1892 39.9442 58.6668 40.5333 58.6668H43.7333C44.3224 58.6668 44.8 58.1892 44.8 57.6001C44.8 57.011 44.3224 56.5334 43.7333 56.5334Z" fill="black"/>
<path d="M51.2 43.7334H48C47.4109 43.7334 46.9333 44.211 46.9333 44.8001C46.9333 45.3892 47.4109 45.8667 48 45.8667H51.2C51.7891 45.8667 52.2667 45.3892 52.2667 44.8001C52.2667 44.211 51.7891 43.7334 51.2 43.7334Z" fill="black"/>
<path d="M51.2 48H48C47.4109 48 46.9333 48.4776 46.9333 49.0667C46.9333 49.6558 47.4109 50.1333 48 50.1333H51.2C51.7891 50.1333 52.2667 49.6558 52.2667 49.0667C52.2667 48.4776 51.7891 48 51.2 48Z" fill="black"/>
<path d="M51.2 52.2667H48C47.4109 52.2667 46.9333 52.7443 46.9333 53.3334C46.9333 53.9225 47.4109 54.4 48 54.4H51.2C51.7891 54.4 52.2667 53.9225 52.2667 53.3334C52.2667 52.7443 51.7891 52.2667 51.2 52.2667Z" fill="black"/>
<path d="M51.2 56.5334H48C47.4109 56.5334 46.9333 57.011 46.9333 57.6001C46.9333 58.1892 47.4109 58.6668 48 58.6668H51.2C51.7891 58.6668 52.2667 58.1892 52.2667 57.6001C52.2667 57.011 51.7891 56.5334 51.2 56.5334Z" fill="black"/>
<path d="M58.6667 43.7334H55.4667C54.8776 43.7334 54.4 44.211 54.4 44.8001C54.4 45.3892 54.8776 45.8667 55.4667 45.8667H58.6667C59.2558 45.8667 59.7333 45.3892 59.7333 44.8001C59.7333 44.211 59.2558 43.7334 58.6667 43.7334Z" fill="black"/>
<path d="M58.6667 48H55.4667C54.8776 48 54.4 48.4776 54.4 49.0667C54.4 49.6558 54.8776 50.1333 55.4667 50.1333H58.6667C59.2558 50.1333 59.7333 49.6558 59.7333 49.0667C59.7333 48.4776 59.2558 48 58.6667 48Z" fill="black"/>
<path d="M58.6667 52.2667H55.4667C54.8776 52.2667 54.4 52.7443 54.4 53.3334C54.4 53.9225 54.8776 54.4 55.4667 54.4H58.6667C59.2558 54.4 59.7333 53.9225 59.7333 53.3334C59.7333 52.7443 59.2558 52.2667 58.6667 52.2667Z" fill="black"/>
<path d="M58.6667 56.5334H55.4667C54.8776 56.5334 54.4 57.011 54.4 57.6001C54.4 58.1892 54.8776 58.6668 55.4667 58.6668H58.6667C59.2558 58.6668 59.7333 58.1892 59.7333 57.6001C59.7333 57.011 59.2558 56.5334 58.6667 56.5334Z" fill="#F81D3D"/>
<path d="M6.74666 1.34726C3.93813 3.92006 8.87252 11.8561 11.7803 16.0001H11.2C10.2091 15.9965 9.25789 16.3889 8.55786 17.0902C7.86021 17.7932 7.46808 18.743 7.46666 19.7334C7.47125 21.0626 8.18439 22.2884 9.33759 22.9494C8.0925 24.2663 6.91959 25.6497 5.82399 27.0934C5.47053 27.5647 5.56604 28.2333 6.03733 28.5867C6.50861 28.9402 7.1772 28.8447 7.53066 28.3734C8.8482 26.6497 10.2733 25.0109 11.7973 23.4667H33.6C34.9338 23.4667 36.1663 22.7552 36.8332 21.6001C37.5001 20.445 37.5001 19.0218 36.8332 17.8667C36.1663 16.7116 34.9338 16.0001 33.6 16.0001H33.0197C35.9264 11.8561 40.8608 3.92113 38.0544 1.34726C36.7637 0.165398 35.2597 1.02726 33.9339 1.7814C32.7282 2.6071 31.3243 3.09678 29.8667 3.20006C28.7095 3.19762 27.6064 2.7101 26.8256 1.85606C25.6584 0.669336 24.0635 0.000976562 22.3989 0.000976562C20.7344 0.000976562 19.1395 0.669336 17.9723 1.85606C17.1902 2.71147 16.0849 3.19911 14.9259 3.20006C13.469 3.09785 12.0659 2.60805 10.8619 1.7814C9.53706 1.02513 8.03413 0.166464 6.74666 1.34726ZM34.7339 18.6006C35.1928 19.0584 35.3302 19.7478 35.0818 20.3466C34.8333 20.9453 34.2482 21.335 33.6 21.3334H11.2C10.3163 21.3334 9.59999 20.6171 9.59999 19.7334C9.59999 18.8497 10.3163 18.1334 11.2 18.1334H33.6C34.0248 18.1335 34.4323 18.3014 34.7339 18.6006ZM14.9259 5.3334C16.5911 5.33316 18.1864 4.66405 19.3536 3.47633C20.1326 2.62053 21.2363 2.13274 22.3936 2.13274C23.5509 2.13274 24.6546 2.62053 25.4336 3.47633C26.6023 4.66496 28.1997 5.33411 29.8667 5.3334C31.6981 5.23717 33.4699 4.64989 34.9963 3.63313C35.4832 3.2894 36.0342 3.04675 36.6165 2.91953C37.7109 3.9222 34.8181 9.96913 30.3957 16.0001H27.7333V10.6667C27.7333 10.0776 27.2558 9.60006 26.6667 9.60006C26.0776 9.60006 25.6 10.0776 25.6 10.6667V16.0001H19.2V10.6667C19.2 10.0776 18.7224 9.60006 18.1333 9.60006C17.5442 9.60006 17.0667 10.0776 17.0667 10.6667V16.0001H14.4085C9.98613 9.96913 7.09333 3.9222 8.20266 2.90353C8.77293 3.05585 9.31372 3.30245 9.80266 3.63313C11.3267 4.64975 13.0964 5.23708 14.9259 5.3334Z" fill="black"/>
</g>
<defs>
<clipPath id="clip0">
<rect width="64" height="64" fill="white"/>
</clipPath>
</defs>
</svg>
