<svg width="64" height="64" viewBox="0 0 64 64" fill="none" xmlns="http://www.w3.org/2000/svg">
<g clip-path="url(#clip0)">
<path fill-rule="evenodd" clip-rule="evenodd" d="M22.0137 5.42048C21.5849 5.70883 21.1 6.30722 21.1 7.67793C21.1 9.46114 20.7269 11.4062 20.1287 13.1161C20.0567 13.322 19.9807 13.5265 19.9008 13.7286C22.6559 12.4958 25.7143 11.8095 28.9333 11.8095C32.1535 11.8095 35.2113 12.4956 37.9656 13.7281C37.8859 13.5262 37.81 13.3219 37.738 13.1161C37.1398 11.4062 36.7667 9.46114 36.7667 7.67793C36.7667 6.30722 36.2818 5.70883 35.853 5.42048C35.36 5.089 34.7269 5.02549 34.3033 5.08534L34.2298 5.09572H23.6369L23.5634 5.08534C23.1398 5.02549 22.5066 5.089 22.0137 5.42048ZM41.6072 15.7951C45.8459 18.768 48.9704 23.1923 50.2409 28.3356H51.9111C53.0648 28.3356 54 29.2605 54 30.4014V35.5658C54 36.7067 53.0648 37.6315 51.9111 37.6315H50.4691C49.38 43.2152 46.1272 48.0347 41.6079 51.2043C40.9343 51.8467 40.2417 53.0455 39.712 54.5593C39.1788 56.0836 38.8556 57.8001 38.8556 59.3221C38.8556 61.2566 38.1219 62.5518 37.0276 63.2878C36.0312 63.9578 34.881 64.0653 34.0874 63.9701H23.7793C22.9857 64.0653 21.8355 63.9578 20.8391 63.2878C19.7447 62.5518 19.0111 61.2566 19.0111 59.3221C19.0111 57.8001 18.6879 56.0836 18.1546 54.5593C17.6252 53.046 16.9328 51.8474 16.2594 51.2049C10.6565 47.2753 7 40.8099 7 33.5C7 30.2056 7.74336 27.0801 9.07423 24.281C9.31968 23.7647 9.94182 23.543 10.4638 23.7857C10.9858 24.0285 11.21 24.6437 10.9646 25.16C9.76173 27.6898 9.08889 30.5158 9.08889 33.5C9.08889 44.3385 17.9735 53.1248 28.9333 53.1248C29.6038 53.1248 30.2662 53.0919 30.919 53.0278C31.493 52.9715 32.0046 53.386 32.0616 53.9536C32.1185 54.5213 31.6994 55.0271 31.1254 55.0835C30.4041 55.1543 29.6728 55.1905 28.9333 55.1905C25.7134 55.1905 22.6555 54.5044 19.901 53.2718C19.9808 53.4737 20.0567 53.6781 20.1287 53.8839C20.7269 55.5938 21.1 57.5389 21.1 59.3221C21.1 60.6928 21.5849 61.2912 22.0137 61.5795C22.5066 61.911 23.1398 61.9745 23.5634 61.9147L23.6369 61.9043H34.2298L34.3033 61.9147C34.7269 61.9745 35.36 61.911 35.853 61.5795C36.2818 61.2912 36.7667 60.6928 36.7667 59.3221C36.7667 57.5389 37.1398 55.5938 37.738 53.8839C37.81 53.678 37.886 53.4735 37.9658 53.2715C37.1723 53.6265 36.3535 53.9363 35.513 54.1974C34.9626 54.3683 34.3764 54.0657 34.2035 53.5215C34.0307 52.9772 34.3367 52.3975 34.887 52.2265C42.0215 50.0105 47.4197 43.9155 48.556 36.445C48.702 35.4849 48.7778 34.5016 48.7778 33.5C48.7778 32.1545 48.641 30.8416 48.3808 29.5739C46.5422 20.6167 38.5327 13.8752 28.9333 13.8752C24.6847 13.8752 20.7508 15.1944 17.5235 17.4413C16.2467 18.3302 15.0806 19.3643 14.0497 20.5194C13.668 20.947 13.008 20.9877 12.5755 20.6103C12.1431 20.2328 12.1019 19.5801 12.4836 19.1524C13.6055 17.8953 14.8726 16.7678 16.259 15.7955C16.9325 15.153 17.6251 13.9543 18.1546 12.4407C18.6879 10.9164 19.0111 9.19994 19.0111 7.67793C19.0111 5.74341 19.7447 4.44818 20.8391 3.71225C21.8355 3.04219 22.9857 2.93468 23.7793 3.02995H34.0874C34.881 2.93468 36.0312 3.04219 37.0276 3.71225C38.1219 4.44818 38.8556 5.74341 38.8556 7.67793C38.8556 9.19994 39.1788 10.9164 39.712 12.4407C40.2415 13.954 40.9338 15.1525 41.6072 15.7951ZM50.7684 35.5658H51.9111V30.4014H50.6444C50.7909 31.4138 50.8667 32.4484 50.8667 33.5C50.8667 34.1965 50.8334 34.8856 50.7684 35.5658Z" fill="black"/>
</g>
<defs>
<clipPath id="clip0">
<rect width="64" height="64" fill="white" transform="matrix(1 0 0 -1 0 64)"/>
</clipPath>
</defs>
</svg>
