<svg width="58" height="64" viewBox="0 0 58 64" fill="none" xmlns="http://www.w3.org/2000/svg">
<path d="M29.0563 25.489C29.0528 25.489 29.0494 25.489 29.0459 25.489C27.5417 25.489 26.1362 26.0651 25.0897 27.1105C24.0721 28.128 23.5123 29.4801 23.5146 30.9146C23.5181 33.8905 25.9864 36.3181 29.018 36.3274C29.0226 36.3274 29.0273 36.3274 29.0331 36.3274C30.521 36.3274 31.9149 35.7536 32.9614 34.7105C33.9848 33.6907 34.5481 32.341 34.5493 30.9111C34.5504 27.9294 32.0868 25.4971 29.0563 25.489ZM31.3202 33.0669C30.7127 33.6721 29.9008 34.0055 29.0331 34.0055C29.0308 34.0055 29.0273 34.0055 29.0238 34.0055C27.2687 33.9997 25.84 32.6128 25.8377 30.9123C25.8365 30.0992 26.1548 29.3326 26.7332 28.7541C27.3407 28.1466 28.1619 27.8133 29.047 27.8133C29.0482 27.8133 29.0494 27.8133 29.0517 27.8133C30.8033 27.8168 32.2262 29.2071 32.225 30.9111C32.2239 31.7207 31.9033 32.4862 31.3202 33.0669Z" fill="#F81D3D"/>
<path d="M49.0814 43.4674H49.0779C48.4809 43.3629 47.9071 43.5034 47.3286 43.896L47.1253 44.0342C46.8071 44.2514 46.49 44.4698 46.1601 44.6661C44.2273 45.8184 42.0831 46.7325 39.6032 47.4608C36.9397 48.246 34.1033 48.7199 31.175 48.8732C29.593 48.9557 28.0121 48.9487 26.4777 48.85C24.9828 48.7559 23.4914 48.5735 22.0452 48.3076C19.5015 47.8406 17.1029 47.1251 14.9134 46.1808C13.2036 45.4455 11.8782 44.7184 10.7457 43.8948C10.5401 43.745 10.2974 43.6219 10.0465 43.5417C9.45293 43.3478 8.8164 43.4116 8.30184 43.7125C7.78843 44.0122 7.43765 44.5058 7.31336 45.1063C7.24599 45.4351 7.24135 45.7707 7.29826 46.0739C7.59446 47.6629 7.89878 49.2519 8.20891 50.8397C8.44819 52.0663 8.69212 53.2917 8.93488 54.5172L9.19971 55.8541C9.33794 56.5499 9.6109 57.205 10.0093 57.8009C10.4066 58.3956 10.906 58.938 11.5344 59.4584C12.4393 60.2087 13.5218 60.8569 14.8425 61.4423C16.7962 62.31 19.0125 62.95 21.6178 63.4018C23.3578 63.7038 25.1559 63.8932 26.8564 63.9524L30.8974 64L31.1343 63.9629C32.5526 63.9048 34.0034 63.7689 35.4472 63.5598C37.3672 63.281 39.0979 62.8942 40.7392 62.3774C42.4222 61.8465 43.8405 61.2297 45.0752 60.4887C45.9835 59.9439 46.7176 59.3689 47.3182 58.7324C48.1626 57.8404 48.6714 56.8972 48.8746 55.853L49.8294 51.0349C50.1477 49.4087 50.4601 47.7814 50.7668 46.1529C50.8202 45.866 50.8283 45.5512 50.79 45.2469C50.6762 44.3293 50.006 43.6312 49.0814 43.4674ZM47.5505 50.5888L46.5957 55.4092C46.4772 56.0179 46.1705 56.5661 45.6304 57.1376C45.1763 57.6185 44.6036 58.0634 43.8811 58.4978C42.8056 59.1436 41.5499 59.6884 40.0434 60.1635C38.5229 60.642 36.9107 61.0009 35.1161 61.2623C33.7513 61.4609 32.3807 61.5887 31.0275 61.6444C30.9462 61.6491 30.8649 61.6607 30.7754 61.6781H27.3245C27.2339 61.6595 27.1433 61.6479 27.0562 61.6444C25.3533 61.5759 23.6575 61.3982 22.0185 61.1136C19.6025 60.6954 17.5652 60.1089 15.788 59.3202C14.6636 58.8219 13.7588 58.2817 13.02 57.6708C12.567 57.2968 12.2162 56.9169 11.9444 56.5115C11.7133 56.1642 11.5611 55.8018 11.4822 55.4023L11.2173 54.0665C10.9734 52.8434 10.7318 51.6203 10.4925 50.3972C10.2091 48.9441 9.93033 47.4898 9.66317 45.9763C10.8758 46.8219 12.2627 47.5711 13.9969 48.3168C16.3467 49.3297 18.9137 50.0952 21.6282 50.5935C23.165 50.8757 24.7482 51.0697 26.3348 51.1696C27.9575 51.2718 29.6267 51.2811 31.2981 51.194C34.4076 51.0325 37.4241 50.5261 40.2618 49.691C42.931 48.9069 45.2494 47.9161 47.3542 46.6616C47.7235 46.441 48.0813 46.1982 48.4379 45.9543L48.4437 45.9496C48.1498 47.4956 47.8525 49.0428 47.5505 50.5888Z" fill="white"/>
<path d="M45.7338 6.73111C45.081 6.38613 44.4097 6.16428 43.7813 5.97727C42.5547 5.61254 41.1922 5.32099 39.4905 5.05965C37.7703 4.79598 35.9652 4.60897 33.972 4.48933C33.0544 4.43357 32.1356 4.40337 31.1553 4.37085C28.5255 4.28722 25.775 4.3453 22.978 4.54624C21.1636 4.6775 19.5212 4.86683 17.9555 5.12469C16.3444 5.38953 15.119 5.66946 13.983 6.0307C13.2396 6.26649 12.6495 6.50693 12.1222 6.79035C11.8051 6.96226 11.3939 7.20734 11.0268 7.58949C10.1243 8.52802 10.129 9.72558 11.035 10.6351C11.3056 10.9092 11.6018 11.1357 11.9154 11.3099C12.3765 11.5655 12.7994 11.7664 13.2047 11.9232C14.6683 12.4935 16.2038 12.8095 17.5129 13.0418C19.7129 13.4332 22.0824 13.6899 24.7575 13.8247C25.7668 13.8746 26.7774 13.9013 27.7798 13.9269L29.1632 13.9629L30.4351 13.9257C31.3005 13.9013 32.1577 13.8769 33.0149 13.8456C34.7305 13.7817 36.5321 13.633 38.3708 13.4007C40.0922 13.1835 41.5128 12.9291 42.8404 12.5981C43.6128 12.4064 44.6257 12.1253 45.6119 11.6584C45.9383 11.5051 46.4226 11.2553 46.8594 10.8709C47.583 10.232 47.7259 9.56644 47.7177 9.12157C47.7096 8.67902 47.5458 8.02507 46.8117 7.42455C46.447 7.12487 46.0451 6.89721 45.7338 6.73111ZM44.6211 9.55831C43.8184 9.93814 42.9484 10.1774 42.2794 10.3447C41.0435 10.6525 39.71 10.8918 38.0816 11.0974C36.3102 11.3204 34.5772 11.4644 32.9301 11.5248C32.0787 11.5562 31.2284 11.5806 30.3689 11.605L29.1644 11.6421L27.8402 11.6061C26.8564 11.5806 25.8644 11.555 24.8736 11.5062C22.2973 11.3761 20.023 11.131 17.9206 10.7559C16.6627 10.5317 15.3222 10.2552 14.048 9.75926C13.739 9.63846 13.4092 9.48165 13.041 9.27838C12.9655 9.23656 12.8888 9.18313 12.8028 9.10647C12.9062 9.02052 13.0433 8.9334 13.2256 8.83467C13.6182 8.62327 14.0817 8.4351 14.6845 8.2446C15.7113 7.91821 16.8357 7.66267 18.333 7.41758C19.8279 7.17134 21.4018 6.99014 23.1452 6.86469C25.8621 6.66839 28.5313 6.61147 31.1402 6.6951C32.0369 6.7253 32.9347 6.75434 33.8315 6.80893C35.7527 6.92509 37.488 7.10397 39.1374 7.35602C40.731 7.59995 41.996 7.87059 43.1169 8.20511C43.6303 8.35844 44.1715 8.53383 44.642 8.78356C44.8336 8.88578 45.0741 9.02052 45.2727 9.17152C45.1159 9.30045 44.9114 9.42125 44.6211 9.55831Z" fill="white"/>
<path d="M29.0389 21.2551C29.0389 21.2551 29.0378 21.2551 29.0366 21.2551C26.3662 21.2551 23.8654 22.2854 21.9976 24.1567C20.1798 25.9768 19.182 28.3835 19.1855 30.932C19.1925 36.246 23.6145 40.5647 29.047 40.5635C29.0505 40.5635 29.054 40.5635 29.0575 40.5635C31.6803 40.5612 34.1486 39.5553 36.0093 37.7317C37.8771 35.9022 38.9028 33.4746 38.8993 30.896C38.89 25.5796 34.468 21.2551 29.0389 21.2551ZM34.3832 36.0741C32.9591 37.4691 31.067 38.2392 29.0552 38.2416C29.0517 38.2416 29.0494 38.2416 29.047 38.2416C24.8945 38.2416 21.5133 34.9625 21.5086 30.9296C21.5063 29.0015 22.2636 27.179 23.6424 25.7991C25.0711 24.3681 26.9876 23.5794 29.0378 23.5794C29.0389 23.5794 29.0389 23.5794 29.0401 23.5794C33.1891 23.5794 36.5704 26.8642 36.5773 30.9029C36.5785 32.8485 35.8003 34.6861 34.3832 36.0741Z" fill="#F81D3D"/>
<path d="M57.441 9.11581C57.4073 8.97178 57.3702 8.82775 57.3249 8.69185C57.0647 7.91245 56.5966 7.19345 55.8973 6.49188C55.1551 5.74965 54.2503 5.10267 53.0469 4.45337C51.7994 3.78315 50.4369 3.21748 48.755 2.67155C46.7444 2.02109 44.6001 1.50072 42.3816 1.1267C41.0667 0.904844 39.7716 0.713189 38.5334 0.558703C37.4729 0.426287 36.3613 0.320587 35.2288 0.246248C34.2182 0.18004 33.2065 0.134739 32.196 0.089439L30.8939 0.0313617L30.6848 0L27.386 0.00232309L25.1849 0.120801C24.2568 0.169586 23.3276 0.219532 22.3995 0.281094C20.9952 0.374018 19.4922 0.538957 17.8045 0.785205C14.0341 1.33345 10.985 2.05477 8.20892 3.05719C6.54211 3.66003 5.21097 4.29191 4.02039 5.04808C3.17479 5.58471 2.4976 6.13761 1.95052 6.73813C1.22804 7.53262 0.788971 8.34338 0.611254 9.21686L0.486969 9.50028V10.2704L0.952749 13.0453C1.1897 14.5588 1.42666 16.0723 1.67523 17.5823C1.98304 19.4582 2.30711 21.3329 2.63118 23.2065L5.10527 37.31C5.20633 37.9001 5.43515 38.4692 5.78594 38.9989C6.20874 39.6401 6.75467 40.2232 7.50387 40.8318C8.52951 41.6646 9.70732 42.3802 11.2092 43.0852C13.0084 43.9297 14.9819 44.6115 17.2446 45.1702C19.0334 45.6127 20.8802 45.9415 22.8874 46.1738C24.8585 46.4037 26.9145 46.5199 29.0215 46.5199C29.6394 46.5199 30.2609 46.5094 30.8858 46.4897C34.3588 46.3782 37.5379 45.9647 40.6056 45.2248C43.2771 44.5801 45.5666 43.7624 47.6027 42.7251C48.8015 42.1142 49.7992 41.473 50.6541 40.7668C51.1733 40.337 51.6043 39.9037 51.9725 39.4426C52.5172 38.7596 52.868 37.9709 53.0132 37.0986C53.2072 35.9371 53.4151 34.7767 53.6219 33.6175L55.5558 22.5851C55.8091 21.1204 56.0611 19.6534 56.3074 18.1875C56.5362 16.8238 56.7662 15.459 56.9869 14.0942C57.1019 13.3857 57.2087 12.6759 57.3167 11.9662L57.4352 11.1799L57.513 9.54674L57.441 9.11581ZM55.0192 11.6201C54.9135 12.3217 54.8078 13.0221 54.694 13.7237C54.4744 15.0838 54.2456 16.444 54.0168 17.803C53.7717 19.2654 53.5197 20.7289 53.2676 22.1902L51.3359 33.2086C51.1269 34.3759 50.919 35.5445 50.7227 36.7153C50.6413 37.1997 50.4567 37.6178 50.1558 37.9942C49.8887 38.3298 49.5681 38.6504 49.1731 38.9768C48.4507 39.5739 47.5923 40.1233 46.5481 40.6564C44.6768 41.61 42.5547 42.3662 40.062 42.9679C37.15 43.6706 34.1242 44.0632 30.8126 44.1701C28.1678 44.2549 25.5926 44.1527 23.1569 43.8693C21.2473 43.6474 19.4968 43.3373 17.8033 42.9179C15.6916 42.3964 13.8575 41.7634 12.1977 40.984C10.87 40.3614 9.84438 39.74 8.96974 39.0303C8.41103 38.5749 8.01495 38.1591 7.72456 37.7189C7.55033 37.4552 7.4423 37.1939 7.39584 36.9197L4.92059 22.8104C4.59768 20.9438 4.27477 19.0761 3.96812 17.206C3.72071 15.7006 3.48376 14.1929 3.24796 12.6852L2.88208 10.3621C2.86698 10.2692 2.84374 10.1786 2.81006 10.0752V9.98697C2.83678 9.91495 2.86001 9.83132 2.87627 9.7384C2.95874 9.26217 3.20963 8.80568 3.66844 8.3004C4.07847 7.84973 4.58606 7.43854 5.26324 7.00877C6.30747 6.34669 7.49341 5.7845 8.99645 5.24206C11.6227 4.29423 14.5266 3.60892 18.1378 3.0839C19.7651 2.84695 21.2101 2.68782 22.554 2.59838C23.4716 2.53682 24.3893 2.48919 25.3069 2.44041L26.5544 2.37304L30.5094 2.32309C30.5849 2.33471 30.6604 2.34516 30.7394 2.34981L32.0915 2.41137C33.0869 2.45551 34.0823 2.49965 35.0766 2.56585C36.1638 2.63671 37.2301 2.73776 38.2465 2.86437C39.4522 3.01421 40.7136 3.20122 41.996 3.41727C44.103 3.77386 46.1369 4.26636 48.0395 4.88198C49.5855 5.3826 50.826 5.89717 51.9446 6.50001C52.9424 7.03781 53.6765 7.55818 54.2537 8.13547C54.6998 8.5815 54.9762 8.99269 55.1237 9.43407C55.1481 9.50493 55.1632 9.57927 55.1807 9.65361L55.1888 10.476L55.0192 11.6201Z" fill="white"/>
</svg>
