<svg width="64" height="64" viewBox="0 0 64 64" fill="none" xmlns="http://www.w3.org/2000/svg">
<path d="M25.7196 27.2901C26.41 27.2901 26.9696 26.7305 26.9696 26.0401V22.7404C26.9696 22.05 26.41 21.4904 25.7196 21.4904C25.0292 21.4904 24.4696 22.05 24.4696 22.7404V26.0401C24.4696 26.7305 25.0292 27.2901 25.7196 27.2901Z" fill="#F81D3D"/>
<path d="M16 15.25C15.3096 15.25 14.75 15.8096 14.75 16.5V19.7997C14.75 20.4901 15.3096 21.0497 16 21.0497C16.6904 21.0497 17.25 20.4901 17.25 19.7997V16.5C17.25 15.8096 16.6904 15.25 16 15.25Z" fill="#F81D3D"/>
<path d="M26.625 7.5H29.9247C30.6151 7.5 31.1747 6.94037 31.1747 6.25C31.1747 5.55963 30.6151 5 29.9247 5H26.625C25.9346 5 25.375 5.55963 25.375 6.25C25.375 6.94037 25.9346 7.5 26.625 7.5Z" fill="#F81D3D"/>
<path d="M53.6607 41.9416L23.2391 11.52V1.25C23.2391 0.559625 22.6795 0 21.9891 0H11.2232C10.5329 0 9.97324 0.559625 9.97324 1.25V12.0159C9.97324 12.7063 10.5329 13.2659 11.2232 13.2659H20.7191L20.7851 54.8881C20.7859 55.39 21.0867 55.8428 21.5491 56.0379C22.0114 56.233 22.5457 56.1326 22.9057 55.7831L31.9105 47.0412L37.7905 61.5384C38.397 63.0338 39.8315 64 41.4451 64C41.9537 64 42.452 63.9025 42.9261 63.7103C43.9021 63.3144 44.6655 62.5621 45.0757 61.5921C45.486 60.6221 45.4939 59.5505 45.098 58.5745L39.2162 44.073L52.7765 44.0755C52.7766 44.0755 52.7766 44.0755 52.7766 44.0755C53.2821 44.0755 53.738 43.771 53.9315 43.304C54.1251 42.8369 54.0181 42.2992 53.6607 41.9416ZM20.7391 10.7659H12.4732V2.5H20.7391V10.7659ZM37.3605 41.5728C37.3604 41.5728 37.3604 41.5728 37.3602 41.5728C36.9445 41.5728 36.5559 41.7795 36.3236 42.1244C36.0912 42.4692 36.0456 42.9071 36.202 43.2926L42.7814 59.5141C42.9262 59.8713 42.9234 60.2635 42.7732 60.6184C42.6231 60.9732 42.3437 61.2486 41.9866 61.3935C41.8124 61.4641 41.6302 61.5 41.4452 61.5C40.8545 61.5 40.3294 61.1463 40.1072 60.5988L33.5297 44.382C33.3735 43.9966 33.0357 43.7142 32.6289 43.6286C32.5432 43.6106 32.4571 43.6019 32.3714 43.6019C32.0496 43.6019 31.7362 43.7263 31.5007 43.955L23.2805 51.9352L23.222 15.0387L49.7585 41.575L37.3605 41.5728Z" fill="white"/>
</svg>
