<svg width="65" height="64" viewBox="0 0 65 64" fill="none" xmlns="http://www.w3.org/2000/svg">
<g clip-path="url(#clip0)">
<path d="M32.5022 23.25C33.1896 23.25 33.7468 22.6904 33.7468 22C33.7468 21.3096 33.1896 20.75 32.5022 20.75C31.8148 20.75 31.2575 21.3096 31.2575 22C31.2575 22.6904 31.8148 23.25 32.5022 23.25Z" fill="#F81D3D"/>
<path d="M32.5022 18.25C33.1896 18.25 33.7468 17.6904 33.7468 17V8.75C33.7468 8.05963 33.1896 7.5 32.5022 7.5C31.8147 7.5 31.2575 8.05963 31.2575 8.75V17C31.2575 17.6904 31.8147 18.25 32.5022 18.25Z" fill="#F81D3D"/>
<path d="M54.9056 28.25H49.9271C49.2396 28.25 48.6824 28.8096 48.6824 29.5C48.6824 30.1904 49.2396 30.75 49.9271 30.75H51.9008L44.7028 37.9791L35.5482 33.382C35.0783 33.1462 34.4942 33.2317 34.1115 33.6161L24.7888 42.9791L20.6127 40.882C20.2672 40.7086 19.8482 40.707 19.4995 40.882L11.3434 44.9775V40.75H15.0773C15.7647 40.75 16.3219 40.1904 16.3219 39.5C16.3219 38.8096 15.7647 38.25 15.0773 38.25H11.3434V35.75H15.0773C15.7647 35.75 16.3219 35.1904 16.3219 34.5C16.3219 33.8096 15.7647 33.25 15.0773 33.25H11.3434V30.75H15.0773C15.7647 30.75 16.3219 30.1904 16.3219 29.5C16.3219 28.8096 15.7647 28.25 15.0773 28.25H11.3434V27C11.3434 26.3096 10.7861 25.75 10.0987 25.75C9.41132 25.75 8.8541 26.3096 8.8541 27V52.75C8.8541 53.4404 9.41132 54 10.0987 54H54.9056C55.593 54 56.1502 53.4404 56.1502 52.75C56.1502 52.0596 55.593 51.5 54.9056 51.5H51.1717V35.0179L53.661 32.5179V34.5C53.661 35.1904 54.2182 35.75 54.9056 35.75C55.593 35.75 56.1502 35.1904 56.1502 34.5V29.5C56.1502 29.4981 56.15 29.4964 56.15 29.4945C56.147 28.7987 55.5799 28.25 54.9056 28.25ZM13.8326 51.5H11.3434V47.7725L13.8326 46.5225V51.5ZM18.8112 51.5H16.3219V45.2725L18.8112 44.0225V51.5ZM23.7897 51.5H21.3004V44.0225L23.7897 45.2725V51.5ZM28.7683 51.5H26.279V45.0179L28.7683 42.5179V51.5ZM33.7468 51.5H31.2575V40.0177L33.7468 37.5177V51.5ZM38.7253 51.5H36.2361V36.5225L38.7253 37.7725V51.5ZM43.7039 51.5H41.2146V39.0225L43.7039 40.2725V51.5ZM48.6824 51.5H46.1931V40.0179L48.6824 37.5179V51.5Z" fill="black"/>
<path d="M32.5022 64C33.1896 64 33.7468 63.4404 33.7468 62.75C33.7468 62.0596 33.1896 61.5 32.5022 61.5C31.8148 61.5 31.2575 62.0596 31.2575 62.75C31.2575 63.4404 31.8148 64 32.5022 64Z" fill="#F81D3D"/>
<path d="M63.1202 56.5H61.1288V19.5C61.1288 17.4323 59.4537 15.75 57.3949 15.75H44.0592C44.0592 15.75 35.6735 1.76975 35.6699 1.76388C34.9827 0.659375 33.7986 0 32.5022 0C31.2057 0 30.0216 0.659375 29.3344 1.76388C29.3309 1.76962 20.9446 15.75 20.9446 15.75H7.60945C5.55058 15.75 3.87555 17.4323 3.87555 19.5V56.5H1.88413C1.19672 56.5 0.639496 57.0596 0.639496 57.75C0.639496 61.1963 3.43121 64 6.86267 64H26.9013C27.5887 64 28.1459 63.4404 28.1459 62.75C28.1459 62.0596 27.5887 61.5 26.9013 61.5H6.86267C5.23992 61.5 3.85576 60.4551 3.34197 58.9987H61.6622C61.1486 60.4551 59.7644 61.5 58.1416 61.5H38.103C37.4156 61.5 36.8584 62.0596 36.8584 62.75C36.8584 63.4404 37.4156 64 38.103 64H58.1416C61.5731 64 64.3648 61.1963 64.3648 57.75C64.3648 57.0596 63.8076 56.5 63.1202 56.5ZM31.4498 3.08162C31.6798 2.71725 32.0725 2.5 32.5022 2.5C32.9317 2.5 33.3244 2.71725 33.5544 3.0815C34.1743 4.11888 46.0018 23.8333 46.0055 23.8391C46.1283 24.0362 46.1931 24.2649 46.1931 24.5C46.1931 25.1893 45.6348 25.75 44.9485 25.75H20.0558C19.3695 25.75 18.8112 25.1893 18.8112 24.5C18.8112 24.2649 18.876 24.0362 18.9989 23.8391C19.0026 23.8331 31.293 3.34312 31.4498 3.08162ZM58.6395 56.5H6.36482V19.5C6.36482 18.8107 6.92316 18.25 7.60945 18.25H19.4452L16.8824 22.5231C16.5157 23.116 16.3219 23.7994 16.3219 24.5C16.3219 26.5677 17.9969 28.25 20.0558 28.25H44.9485C47.0074 28.25 48.6824 26.5677 48.6824 24.5C48.6824 23.7994 48.4887 23.1161 48.1221 22.5234L45.5588 18.25H57.3949C58.0812 18.25 58.6395 18.8107 58.6395 19.5V56.5Z" fill="black"/>
</g>
<defs>
<clipPath id="clip0">
<rect width="63.7253" height="64" fill="white" transform="translate(0.639496)"/>
</clipPath>
</defs>
</svg>
