<svg width="64" height="64" viewBox="0 0 64 64" fill="none" xmlns="http://www.w3.org/2000/svg">
<g clip-path="url(#clip0)">
<path d="M6.22014 11.5447L7.8827 10.4363L6.25429 7.99275L7.8827 5.55014L6.22014 4.4408L4.22196 7.43808C3.99852 7.77371 3.99852 8.21033 4.22196 8.54645L6.22014 11.5447Z" fill="#F81D3D"/>
<path d="M15.8754 11.5447L17.8736 8.54743C18.0976 8.21179 18.0976 7.77518 17.8736 7.43906L15.8754 4.44177L14.2129 5.55014L15.8418 7.99275L14.2129 10.4354L15.8754 11.5447Z" fill="#F81D3D"/>
<path d="M9.10084 10.6739L11.1 4.67932L12.9957 5.31156L10.9961 11.3061L9.10084 10.6739Z" fill="#F81D3D"/>
<path d="M17.0424 29.9728C17.3073 29.9728 17.5619 29.868 17.7487 29.6801L21.7451 25.6838C21.9329 25.4969 22.0378 25.2432 22.0378 24.9774V0.999095C22.0378 0.446373 21.5905 0 21.0387 0H1.05684C0.505583 0 0.0577469 0.446373 0.0577469 0.999095V28.9737C0.0577469 29.5265 0.505583 29.9728 1.05684 29.9728H17.0424ZM17.0424 27.561V24.9774H19.6264L17.0424 27.561ZM2.05594 1.99819H20.0396V22.9792H16.0433C15.492 22.9792 15.0442 23.4255 15.0442 23.9783V27.9746H2.05594V1.99819Z" fill="black"/>
<path d="M4.05415 13.9873H14.0451V15.9855H4.05415V13.9873Z" fill="black"/>
<path d="M16.0433 13.9873H18.0415V15.9855H16.0433V13.9873Z" fill="black"/>
<path d="M4.05415 17.9836H14.0451V19.9818H4.05415V17.9836Z" fill="black"/>
<path d="M16.0433 17.9836H18.0415V19.9818H16.0433V17.9836Z" fill="black"/>
<path d="M4.05415 21.9801H9.04962V23.9783H4.05415V21.9801Z" fill="black"/>
<path d="M45.0233 43.9952L38.7278 41.2375L36.5091 38.2782C38.0033 37.4143 39.0224 35.8166 39.0224 33.9691V24.9773C39.0224 22.2229 36.7818 19.9818 34.027 19.9818H30.0306C27.2763 19.9818 25.0351 22.2229 25.0351 24.9773V33.9691C25.0351 35.8166 26.0542 37.4143 27.549 38.2782L25.342 41.2214L19.1806 43.6903C17.2746 44.4548 16.0433 46.2739 16.0433 48.3272V62.9429C16.0433 63.4941 16.4901 63.941 17.0404 63.942L47.0132 64H47.0152C47.2801 64 47.5338 63.8951 47.7216 63.7083C47.9094 63.5205 48.0143 63.2658 48.0143 63.0009V48.5711C48.0143 46.5866 46.8405 44.7904 45.0233 43.9952ZM27.0333 24.9773C27.0333 23.325 28.3783 21.98 30.0306 21.98H34.027C35.6798 21.98 37.0242 23.325 37.0242 24.9773V27.9746H34.027C32.3747 27.9746 31.0297 26.6296 31.0297 24.9773V23.9782H29.0315V24.9773C29.0315 27.7316 31.2726 29.9728 34.027 29.9728H37.0242V33.9691C37.0242 35.6214 35.6798 36.9664 34.027 36.9664H30.0306C28.3783 36.9664 27.0333 35.6214 27.0333 33.9691V24.9773ZM29.531 38.9646H34.5265L36.591 41.716L32.0288 44.7572L27.467 41.716L29.531 38.9646ZM46.0161 61.9999L42.0197 61.9916V53.951H40.0215V61.9877L24.036 61.957V53.951H22.0378V61.9535L18.0415 61.9457V48.3272C18.0415 47.0964 18.78 46.0032 19.924 45.5446L25.9186 43.143L31.4756 46.8476C31.8112 47.0725 32.2478 47.0725 32.5835 46.8476L38.1233 43.1547L44.2218 45.8266C45.3121 46.3032 46.0161 47.3798 46.0161 48.5711V61.9999Z" fill="black"/>
<path d="M31.0297 52.9519H33.0279V58.9465H31.0297V52.9519Z" fill="black"/>
<path d="M31.0297 48.9557H33.0279V50.9539H31.0297V48.9557Z" fill="black"/>
<path d="M63.0007 0H43.0188C42.4676 0 42.0197 0.446373 42.0197 0.999095V28.9737C42.0197 29.5265 42.4676 29.9728 43.0188 29.9728H63.0007C63.5525 29.9728 63.9998 29.5265 63.9998 28.9737V0.999095C63.9998 0.446373 63.5525 0 63.0007 0ZM44.0179 1.99819H62.0016V3.99638H44.0179V1.99819ZM44.0179 27.9746V5.99457H62.0016V27.9746H44.0179Z" fill="black"/>
<path d="M59.0043 7.99268H47.0152C46.4639 7.99268 46.0161 8.43905 46.0161 8.99177V16.9845C46.0161 17.5372 46.4639 17.9836 47.0152 17.9836H59.0043C59.5561 17.9836 60.0034 17.5372 60.0034 16.9845V8.99177C60.0034 8.43905 59.5561 7.99268 59.0043 7.99268ZM58.0052 15.9854H48.0143V9.99086H58.0052V15.9854Z" fill="#F81D3D"/>
<path d="M50.0125 11.9891H56.007V13.9873H50.0125V11.9891Z" fill="#F81D3D"/>
<path d="M52.0107 19.9818H60.0034V21.98H52.0107V19.9818Z" fill="black"/>
<path d="M46.0161 23.9783H56.0071V25.9765H46.0161V23.9783Z" fill="black"/>
<path d="M55.0079 37.6229H53.0098V39.6211H56.007C56.5588 39.6211 57.0061 39.1747 57.0061 38.622V35.6248H55.0079V37.6229Z" fill="#F81D3D"/>
<path d="M49.0134 37.6229H51.0116V39.6211H49.0134V37.6229Z" fill="black"/>
<path d="M55.008 31.6284H57.0062V33.6266H55.008V31.6284Z" fill="black"/>
<path d="M10.0487 35.6248H8.0505V38.622C8.0505 39.1747 8.49834 39.6211 9.04959 39.6211H12.0469V37.6229H10.0487V35.6248Z" fill="#F81D3D"/>
<path d="M14.0451 37.6229H16.0433V39.6211H14.0451V37.6229Z" fill="black"/>
<path d="M8.0505 31.6284H10.0487V33.6266H8.0505V31.6284Z" fill="black"/>
<path d="M25.0351 7.9927H33.0279V5.99451H26.9026L27.8646 4.551L26.202 3.44263L24.2039 6.43991C23.9995 6.74676 23.9804 7.14045 24.1541 7.46535C24.3278 7.78976 24.6668 7.9927 25.0351 7.9927Z" fill="#F81D3D"/>
<path d="M31.0297 13.9873H37.1555L36.193 15.4308L37.8555 16.5392L39.8537 13.5419C40.0586 13.2351 40.0776 12.8414 39.904 12.5165C39.7298 12.1921 39.3913 11.9891 39.0225 11.9891H31.0297V13.9873Z" fill="#F81D3D"/>
</g>
<defs>
<clipPath id="clip0">
<rect width="64" height="64" fill="white"/>
</clipPath>
</defs>
</svg>
