<svg width="64" height="64" viewBox="0 0 64 64" fill="none" xmlns="http://www.w3.org/2000/svg">
<g clip-path="url(#clip0)">
<path d="M46.5837 37.6613C46.0692 37.6613 45.652 38.1657 45.652 38.788V58.0563C45.652 60.0912 44.283 61.7466 42.6004 61.7466H10.7334C9.05069 61.7466 7.68181 60.091 7.68181 58.0563V19.5197C7.68181 17.4848 9.05082 15.8293 10.7334 15.8293H38.6167C39.1313 15.8293 39.5485 15.3248 39.5485 14.7025C39.5485 14.0803 39.1313 13.5758 38.6167 13.5758H10.7334C8.02319 13.5758 5.81836 16.2423 5.81836 19.5197V58.0563C5.81836 61.3337 8.02331 64 10.7334 64H42.6003C45.3105 64 47.5153 61.3336 47.5153 58.0563V38.788C47.5155 38.1657 47.0984 37.6613 46.5837 37.6613Z" fill="black" stroke="white"/>
<mask id="path-2-inside-1" fill="white">
<path d="M32.2438 42.1285C32.0441 42.1285 31.8489 42.0696 31.6829 41.9591C31.5169 41.8487 31.3875 41.6918 31.3111 41.5082C31.2347 41.3245 31.2147 41.1225 31.2536 40.9275C31.2926 40.7326 31.3887 40.5536 31.5299 40.413C31.6711 40.2725 31.851 40.1768 32.0468 40.138C32.2427 40.0992 32.4457 40.1191 32.6301 40.1952C32.8146 40.2712 32.9723 40.4 33.0832 40.5653C33.1941 40.7305 33.2533 40.9248 33.2533 41.1236C33.2533 41.3901 33.147 41.6457 32.9577 41.8342C32.7683 42.0226 32.5115 42.1285 32.2438 42.1285ZM21.086 42.1285C20.8864 42.1285 20.6912 42.0696 20.5252 41.9591C20.3591 41.8487 20.2297 41.6918 20.1533 41.5082C20.0769 41.3245 20.0569 41.1225 20.0959 40.9275C20.1348 40.7326 20.231 40.5536 20.3722 40.413C20.5134 40.2725 20.6933 40.1768 20.8891 40.138C21.0849 40.0992 21.2879 40.1191 21.4724 40.1952C21.6569 40.2712 21.8145 40.4 21.9255 40.5653C22.0364 40.7305 22.0956 40.9248 22.0956 41.1236C22.0956 41.3901 21.9892 41.6457 21.7999 41.8342C21.6106 42.0226 21.3538 42.1285 21.086 42.1285ZM32.6081 36.0816L34.6272 32.5863C34.6602 32.496 34.6624 32.3974 34.6334 32.3058C34.6045 32.2142 34.546 32.1346 34.467 32.0794C34.3881 32.0242 34.2931 31.9964 34.1966 32.0004C34.1002 32.0043 34.0078 32.0398 33.9337 32.1013C33.9185 32.1211 33.9067 32.1432 33.8986 32.1668L31.8575 35.7058C30.2248 34.978 28.4561 34.6017 26.6671 34.6017C24.8782 34.6017 23.1094 34.978 21.4767 35.7058L19.4313 32.1843C19.3686 32.1133 19.2846 32.0645 19.1918 32.0451C19.0989 32.0256 19.0022 32.0367 18.9162 32.0765C18.8302 32.1164 18.7595 32.1829 18.7146 32.2661C18.6698 32.3494 18.6533 32.4448 18.6675 32.5382C18.6763 32.5624 18.6898 32.5846 18.707 32.6037L20.7217 36.0991C18.982 37.0431 17.5062 38.404 16.4278 40.0587C15.3495 41.7134 14.7027 43.6096 14.5459 45.5758H38.7883C38.6335 43.6062 37.9872 41.7063 36.908 40.0484C35.8288 38.3905 34.3508 37.027 32.6081 36.0816Z"/>
</mask>
<path d="M33.2533 41.1236H34.2533H33.2533ZM22.0956 41.1236H23.0956H22.0956ZM34.6272 32.5863L35.4931 33.0865L35.5366 33.0112L35.5665 32.9295L34.6272 32.5863ZM33.8986 32.1668L34.7648 32.6664L34.8132 32.5826L34.8445 32.4911L33.8986 32.1668ZM31.8575 35.7058L31.4504 36.6192L32.2735 36.9862L32.7238 36.2054L31.8575 35.7058ZM26.6671 34.6017V33.6017V34.6017ZM21.4767 35.7058L20.612 36.2081L21.0632 36.985L21.8839 36.6192L21.4767 35.7058ZM19.4313 32.1843L20.296 31.682L20.2464 31.5967L20.1811 31.5226L19.4313 32.1843ZM18.6675 32.5382L17.6789 32.6889L17.694 32.7878L17.7283 32.8817L18.6675 32.5382ZM18.707 32.6037L19.5734 32.1044L19.5205 32.0126L19.4495 31.9339L18.707 32.6037ZM20.7217 36.0991L21.1987 36.978L22.1005 36.4886L21.5881 35.5997L20.7217 36.0991ZM14.5459 45.5758L13.5491 45.4963L13.463 46.5758H14.5459V45.5758ZM38.7883 45.5758V46.5758H39.87L39.7853 45.4974L38.7883 45.5758ZM32.2438 41.1285C32.2409 41.1285 32.2384 41.1276 32.2367 41.1265L31.1291 42.7918C31.4595 43.0115 31.8474 43.1285 32.2438 43.1285V41.1285ZM32.2367 41.1265C32.2351 41.1254 32.2345 41.1243 32.2343 41.124L30.3878 41.8923C30.5405 42.2592 30.7987 42.572 31.1291 42.7918L32.2367 41.1265ZM32.2343 41.124L32.2342 41.1235L30.273 40.7316C30.1951 41.1214 30.2351 41.5254 30.3878 41.8923L32.2343 41.124ZM32.2342 41.1235C32.2343 41.1234 32.2344 41.1227 32.2354 41.1217L30.8245 39.7043C30.5431 39.9844 30.3509 40.3418 30.273 40.7316L32.2342 41.1235ZM32.2354 41.1217C32.2364 41.1207 32.2383 41.1195 32.2411 41.1189L31.8526 39.157C31.4637 39.234 31.1058 39.4242 30.8245 39.7043L32.2354 41.1217ZM32.2411 41.1189C32.2438 41.1184 32.2466 41.1187 32.249 41.1197L33.0113 39.2707C32.6447 39.1195 32.2415 39.08 31.8526 39.157L32.2411 41.1189ZM32.249 41.1197C32.2512 41.1206 32.2524 41.1219 32.2529 41.1226L33.9135 40.0079C33.6921 39.6782 33.378 39.4219 33.0113 39.2707L32.249 41.1197ZM32.2529 41.1226C32.2532 41.123 32.2533 41.1233 32.2533 41.1234C32.2533 41.1235 32.2533 41.1236 32.2533 41.1236H34.2533C34.2533 40.726 34.1349 40.3378 33.9135 40.0079L32.2529 41.1226ZM32.2533 41.1236C32.2533 41.1236 32.2534 41.1237 32.2532 41.124C32.2531 41.1243 32.2529 41.1248 32.2522 41.1254L33.6631 42.5429C34.0405 42.1673 34.2533 41.6568 34.2533 41.1236H32.2533ZM32.2522 41.1254C32.2507 41.1269 32.2478 41.1285 32.2438 41.1285V43.1285C32.7753 43.1285 33.2859 42.9184 33.6631 42.5429L32.2522 41.1254ZM21.086 41.1285C21.0831 41.1285 21.0807 41.1276 21.079 41.1265L19.9714 42.7918C20.3017 43.0115 20.6896 43.1285 21.086 43.1285V41.1285ZM21.079 41.1265C21.0773 41.1254 21.0767 41.1243 21.0766 41.124L19.2301 41.8923C19.3828 42.2592 19.641 42.572 19.9714 42.7918L21.079 41.1265ZM21.0766 41.124L21.0765 41.1235L19.1153 40.7316C19.0374 41.1214 19.0774 41.5254 19.2301 41.8923L21.0766 41.124ZM21.0765 41.1235C21.0765 41.1234 21.0767 41.1227 21.0777 41.1217L19.6667 39.7043C19.3853 39.9844 19.1932 40.3418 19.1153 40.7316L21.0765 41.1235ZM21.0777 41.1217C21.0787 41.1207 21.0806 41.1195 21.0833 41.1189L20.6949 39.157C20.3059 39.234 19.948 39.4242 19.6667 39.7043L21.0777 41.1217ZM21.0833 41.1189C21.0861 41.1184 21.0889 41.1187 21.0912 41.1197L21.8536 39.2707C21.4869 39.1195 21.0838 39.08 20.6949 39.157L21.0833 41.1189ZM21.0912 41.1197C21.0935 41.1206 21.0947 41.1219 21.0952 41.1226L22.7557 40.0079C22.5344 39.6782 22.2202 39.4219 21.8536 39.2707L21.0912 41.1197ZM21.0952 41.1226C21.0954 41.123 21.0955 41.1233 21.0956 41.1234C21.0956 41.1235 21.0956 41.1236 21.0956 41.1236H23.0956C23.0956 40.726 22.9771 40.3378 22.7557 40.0079L21.0952 41.1226ZM21.0956 41.1236C21.0956 41.1236 21.0956 41.1237 21.0955 41.124C21.0954 41.1243 21.0951 41.1248 21.0944 41.1254L22.5054 42.5429C22.8827 42.1673 23.0956 41.6568 23.0956 41.1236H21.0956ZM21.0944 41.1254C21.093 41.1269 21.0901 41.1285 21.086 41.1285V43.1285C21.6175 43.1285 22.1282 42.9184 22.5054 42.5429L21.0944 41.1254ZM33.474 36.5818L35.4931 33.0865L33.7613 32.0861L31.7422 35.5814L33.474 36.5818ZM35.5665 32.9295C35.6752 32.6319 35.6824 32.3067 35.5869 32.0045L33.6799 32.6071C33.6423 32.4882 33.6452 32.3601 33.688 32.243L35.5665 32.9295ZM35.5869 32.0045C35.4915 31.7024 35.2989 31.4409 35.0401 31.2599L33.894 32.8989C33.7931 32.8283 33.7175 32.726 33.6799 32.6071L35.5869 32.0045ZM35.0401 31.2599C34.7814 31.079 34.4705 30.9883 34.1557 31.0012L34.2376 32.9995C34.1156 33.0045 33.9948 32.9694 33.894 32.8989L35.0401 31.2599ZM34.1557 31.0012C33.8408 31.0141 33.5383 31.13 33.2952 31.3317L34.5722 32.8709C34.4773 32.9496 34.3597 32.9945 34.2376 32.9995L34.1557 31.0012ZM33.1396 31.4935C33.0589 31.5989 32.9957 31.7168 32.9526 31.8425L34.8445 32.4911C34.8176 32.5697 34.7781 32.6433 34.7278 32.7091L33.1396 31.4935ZM33.0323 31.6672L30.9913 35.2062L32.7238 36.2054L34.7648 32.6664L33.0323 31.6672ZM32.2647 34.7925C30.5038 34.0075 28.5963 33.6017 26.6671 33.6017V35.6017C28.3159 35.6017 29.9459 35.9485 31.4504 36.6192L32.2647 34.7925ZM26.6671 33.6017C24.738 33.6017 22.8305 34.0075 21.0695 34.7925L21.8839 36.6192C23.3883 35.9485 25.0183 35.6017 26.6671 35.6017V33.6017ZM22.3414 35.2036L20.296 31.682L18.5665 32.6866L20.612 36.2081L22.3414 35.2036ZM20.1811 31.5226C19.9754 31.2895 19.7 31.1297 19.3966 31.0663L18.987 33.0239C18.8692 32.9992 18.7619 32.9371 18.6814 32.846L20.1811 31.5226ZM19.3966 31.0663C19.0932 31.0028 18.7772 31.0388 18.4958 31.1692L19.3367 32.9839C19.2273 33.0346 19.1046 33.0485 18.987 33.0239L19.3966 31.0663ZM18.4958 31.1692C18.2143 31.2997 17.9819 31.5178 17.8343 31.7919L19.595 32.7404C19.5371 32.848 19.4461 32.9331 19.3367 32.9839L18.4958 31.1692ZM17.8343 31.7919C17.6866 32.066 17.6319 32.3808 17.6789 32.6889L19.6561 32.3875C19.6746 32.5089 19.653 32.6328 19.595 32.7404L17.8343 31.7919ZM17.7283 32.8817C17.7813 33.0264 17.8615 33.1594 17.9645 33.2736L19.4495 31.9339C19.518 32.0098 19.5714 32.0983 19.6067 32.1947L17.7283 32.8817ZM17.8406 33.1031L19.8553 36.5984L21.5881 35.5997L19.5734 32.1044L17.8406 33.1031ZM20.2448 35.2201C18.3593 36.2432 16.7593 37.7185 15.59 39.5127L17.2656 40.6047C18.253 39.0896 19.6047 37.8429 21.1987 36.978L20.2448 35.2201ZM15.59 39.5127C14.4207 41.307 13.7191 43.3636 13.5491 45.4963L15.5427 45.6552C15.6862 43.8557 16.2783 42.1198 17.2656 40.6047L15.59 39.5127ZM14.5459 46.5758H38.7883V44.5758H14.5459V46.5758ZM39.7853 45.4974C39.6174 43.3611 38.9163 41.3006 37.7461 39.5029L36.0699 40.5939C37.0581 42.1121 37.6497 43.8514 37.7914 45.6541L39.7853 45.4974ZM37.7461 39.5029C36.5758 37.7051 34.9736 36.2272 33.085 35.2026L32.1313 36.9606C33.728 37.8268 35.0817 39.0758 36.0699 40.5939L37.7461 39.5029Z" fill="black" mask="url(#path-2-inside-1)"/>
<path d="M55.0467 0H45.0265C43.4045 0 42.085 1.3195 42.085 2.94151V32.0001C42.085 36.3846 45.6521 39.9517 50.0366 39.9517C54.4211 39.9517 57.9882 36.3846 57.9882 32.0001V2.94151C57.9881 1.3195 56.6686 0 55.0467 0ZM56.1132 32.0001C56.1132 35.3507 53.3872 38.0767 50.0366 38.0767C46.686 38.0767 43.9598 35.3507 43.9598 32.0001V2.94151C43.9598 2.35338 44.4383 1.875 45.0263 1.875H55.0466C55.6347 1.875 56.1131 2.3535 56.1131 2.94151V32.0001H56.1132Z" fill="black" stroke="white"/>
<path d="M47.0402 6.01208H47.03C46.5123 6.01208 46.0977 6.43184 46.0977 6.94959C46.0977 7.46734 46.5224 7.88709 47.0402 7.88709C47.5579 7.88709 47.9777 7.46734 47.9777 6.94959C47.9777 6.43184 47.5578 6.01208 47.0402 6.01208Z" fill="black"/>
<path d="M50.046 6.01208H50.036C49.5183 6.01208 49.1035 6.43184 49.1035 6.94959C49.1035 7.46734 49.5283 7.88709 50.046 7.88709C50.5638 7.88709 50.9835 7.46734 50.9835 6.94959C50.9835 6.43184 50.5636 6.01208 50.046 6.01208Z" fill="black"/>
<path d="M53.0421 6.01208H53.0321C52.5144 6.01208 52.0996 6.43184 52.0996 6.94959C52.0996 7.46734 52.5244 7.88709 53.0421 7.88709C53.5599 7.88709 53.9796 7.46734 53.9796 6.94959C53.9797 6.43184 53.5599 6.01208 53.0421 6.01208Z" fill="black"/>
<path d="M47.0402 9.01819H47.03C46.5123 9.01819 46.0977 9.43794 46.0977 9.95569C46.0977 10.4734 46.5224 10.8932 47.0402 10.8932C47.5579 10.8932 47.9777 10.4734 47.9777 9.95569C47.9777 9.43794 47.5578 9.01819 47.0402 9.01819Z" fill="black"/>
<path d="M50.046 9.01819H50.036C49.5183 9.01819 49.1035 9.43794 49.1035 9.95569C49.1035 10.4734 49.5283 10.8932 50.046 10.8932C50.5638 10.8932 50.9835 10.4734 50.9835 9.95569C50.9835 9.43794 50.5636 9.01819 50.046 9.01819Z" fill="black"/>
<path d="M53.0421 9.01819H53.0321C52.5144 9.01819 52.0996 9.43794 52.0996 9.95569C52.0996 10.4734 52.5244 10.8932 53.0421 10.8932C53.5599 10.8932 53.9796 10.4734 53.9796 9.95569C53.9797 9.43794 53.5599 9.01819 53.0421 9.01819Z" fill="black"/>
<path d="M47.0402 12.0243H47.03C46.5123 12.0243 46.0977 12.444 46.0977 12.9618C46.0977 13.4795 46.5224 13.8993 47.0402 13.8993C47.5579 13.8993 47.9777 13.4795 47.9777 12.9618C47.9777 12.444 47.5578 12.0243 47.0402 12.0243Z" fill="black"/>
<path d="M50.046 12.0243H50.036C49.5183 12.0243 49.1035 12.444 49.1035 12.9618C49.1035 13.4795 49.5283 13.8993 50.046 13.8993C50.5638 13.8993 50.9835 13.4795 50.9835 12.9618C50.9835 12.444 50.5636 12.0243 50.046 12.0243Z" fill="black"/>
<path d="M53.0421 12.0243H53.0321C52.5144 12.0243 52.0996 12.444 52.0996 12.9618C52.0996 13.4795 52.5244 13.8993 53.0421 13.8993C53.5599 13.8993 53.9796 13.4795 53.9796 12.9618C53.9797 12.444 53.5599 12.0243 53.0421 12.0243Z" fill="black"/>
<path d="M47.0402 16.0322H47.03C46.5123 16.0322 46.0977 16.452 46.0977 16.9697C46.0977 17.4875 46.5224 17.9072 47.0402 17.9072C47.5579 17.9072 47.9777 17.4875 47.9777 16.9697C47.9777 16.452 47.5578 16.0322 47.0402 16.0322Z" fill="black"/>
<path d="M53.0421 16.0322H53.0321C52.5144 16.0322 52.0996 16.452 52.0996 16.9697C52.0996 17.4875 52.5244 17.9072 53.0421 17.9072C53.5599 17.9072 53.9796 17.4875 53.9796 16.9697C53.9797 16.452 53.5599 16.0322 53.0421 16.0322Z" fill="black"/>
<path d="M47.0402 28.0565H47.03C46.5123 28.0565 46.0977 28.4763 46.0977 28.994C46.0977 29.5118 46.5224 29.9315 47.0402 29.9315C47.5579 29.9315 47.9777 29.5118 47.9777 28.994C47.9777 28.4763 47.5578 28.0565 47.0402 28.0565Z" fill="black"/>
<path d="M53.0421 28.0565H53.0321C52.5144 28.0565 52.0996 28.4763 52.0996 28.994C52.0996 29.5118 52.5244 29.9315 53.0421 29.9315C53.5599 29.9315 53.9796 29.5118 53.9796 28.994C53.9797 28.4763 53.5599 28.0565 53.0421 28.0565Z" fill="black"/>
<path d="M50.0364 19.0383C47.8619 19.0383 46.0928 20.8075 46.0928 22.9818C46.0928 25.1563 47.8619 26.9255 50.0364 26.9255C52.2109 26.9255 53.9799 25.1563 53.9799 22.9818C53.9799 20.8075 52.2109 19.0383 50.0364 19.0383ZM50.0364 25.0505C48.8958 25.0505 47.9678 24.1225 47.9678 22.9818C47.9678 21.8412 48.8958 20.9133 50.0364 20.9133C51.177 20.9133 52.1049 21.8413 52.1049 22.9818C52.1049 24.1226 51.177 25.0505 50.0364 25.0505Z" fill="black"/>
</g>
<defs>
<clipPath id="clip0">
<rect width="64" height="64" fill="white"/>
</clipPath>
</defs>
</svg>
