<svg width="65" height="64" viewBox="0 0 65 64" fill="none" xmlns="http://www.w3.org/2000/svg">
<path d="M41.4635 31.5861L37.0685 36L43.4549 42.414L55.8157 30.0001L51.4206 25.5861L43.4549 33.5861L41.4635 31.5861ZM52.9998 30.0001L43.4549 39.586L39.8843 36L41.4635 34.4141L43.4549 36.4141L51.4206 28.4141L52.9998 30.0001Z" fill="#F81D3D"/>
<path d="M63.3691 18H58.5608C54.0861 18 49.7538 16.683 45.993 14.164L45.4085 13.823L44.8599 14.19C42.5927 15.709 40.0964 16.785 37.4807 17.399V15.208L34.857 14.588C34.5264 13.429 34.0654 12.313 33.4819 11.256L34.9018 8.953L29.5618 3.59L27.2687 5.016C26.2163 4.43 25.105 3.967 23.951 3.635L23.3337 1H15.7822L15.1649 3.635C14.0109 3.967 12.8997 4.43 11.8472 5.016L9.55407 3.59L4.21409 8.953L5.63397 11.256C5.05049 12.313 4.58947 13.429 4.2589 14.588L1.63521 15.208V22.792L4.2589 23.412C4.58947 24.571 5.05049 25.687 5.63397 26.744L4.21409 29.047L9.55407 34.41L11.8472 32.984C12.8997 33.57 14.0109 34.033 15.1649 34.365L15.7822 37H23.3337L23.951 34.365C25.105 34.033 26.2163 33.57 27.2687 32.984L27.7277 33.269C28.2614 37.592 29.9163 41.647 32.4524 45.049L29.1028 57.384L34.0196 56.149L37.7406 62.378L41.0792 52.319C42.3776 52.978 43.7387 53.536 45.1656 53.958L45.4464 54.042L45.7272 53.959C47.154 53.537 48.5151 52.979 49.8135 52.32L53.1521 62.379L56.8731 56.15L61.7899 57.385L58.4404 45.05C61.5539 40.872 63.3691 35.718 63.3691 30.28V18ZM27.2906 30.646L26.7699 30.964C25.5601 31.7 24.2537 32.245 22.8836 32.581L22.2902 32.727L21.7565 35H17.3594L16.8267 32.727L16.2333 32.581C14.8632 32.245 13.5568 31.7 12.347 30.964L11.8263 30.646L9.8488 31.875L6.73921 28.752L7.96293 26.766L7.6463 26.243C6.91346 25.028 6.3708 23.716 6.03624 22.34L5.89086 21.744L3.62662 21.208V16.792L5.88987 16.257L6.03524 15.661C6.3698 14.285 6.91246 12.973 7.6453 11.758L7.96194 11.235L6.73821 9.248L9.84781 6.125L11.8253 7.354L12.346 7.036C13.5558 6.3 14.8622 5.755 16.2323 5.419L16.8257 5.273L17.3594 3H21.7565L22.2892 5.273L22.8826 5.419C24.2527 5.755 25.5591 6.3 26.7689 7.036L27.2896 7.354L29.2671 6.125L32.3767 9.248L31.153 11.234L31.4696 11.757C32.2024 12.972 32.7451 14.284 33.0797 15.66L33.225 16.256L35.4893 16.792V17.774C34.4488 17.92 33.3953 18 32.3319 18H31.4557C30.9469 11.85 25.811 7 19.558 7C12.9694 7 7.60946 12.383 7.60946 19C7.60946 25.617 12.9694 31 19.558 31C22.5252 31 25.353 29.881 27.5236 27.932V30.281C27.5236 30.457 27.5415 30.63 27.5455 30.805L27.2906 30.646ZM27.5236 18V24.979C25.6447 27.497 22.6954 29 19.558 29C14.0676 29 9.60087 24.514 9.60087 19C9.60087 13.486 14.0676 9 19.558 9C24.7117 9 28.9634 12.954 29.4643 18H27.5236ZM37.2208 57.621L34.9675 53.85L31.9187 54.615L34.0087 46.917C35.554 48.618 37.3343 50.106 39.3098 51.326L37.2208 57.621ZM58.9741 54.615L55.9252 53.85L53.6719 57.621L51.5829 51.326C53.5584 50.106 55.3387 48.618 56.8841 46.917L58.9741 54.615ZM61.3777 30.28C61.3777 40.174 54.8419 49.045 45.4464 51.956C36.0509 49.045 29.515 40.174 29.515 30.28V20H32.3319C36.9848 20 41.4954 18.691 45.4454 16.192C49.3764 18.686 53.8979 20 58.5608 20H61.3777V30.28Z" fill="black"/>
</svg>
