<svg width="64" height="64" viewBox="0 0 64 64" fill="none" xmlns="http://www.w3.org/2000/svg">
<path d="M47.4848 16.3829C43.9326 16.3829 41.0427 19.2729 41.0427 22.8251C41.0427 26.3772 43.9326 29.2672 47.4848 29.2672C51.037 29.2672 53.927 26.3773 53.927 22.8251C53.927 19.2727 51.0371 16.3829 47.4848 16.3829ZM47.4848 26.7672C45.3111 26.7672 43.5427 24.9988 43.5427 22.8251C43.5427 20.6513 45.3111 18.8829 47.4848 18.8829C49.6585 18.8829 51.427 20.6513 51.427 22.8251C51.427 24.9986 49.6586 26.7672 47.4848 26.7672Z" fill="#F81D3D"/>
<path d="M47.5288 56.3978C47.4975 56.3216 47.4587 56.2491 47.4137 56.1816C47.3687 56.1128 47.3163 56.0491 47.2588 55.9916C47.2013 55.9341 47.1375 55.8816 47.0687 55.8366C47.0012 55.7916 46.9288 55.7529 46.8525 55.7216C46.7775 55.6904 46.6988 55.6654 46.6188 55.6504C46.4575 55.6179 46.2925 55.6179 46.1312 55.6504C46.0512 55.6654 45.9725 55.6904 45.8975 55.7216C45.8212 55.7529 45.7488 55.7916 45.6813 55.8366C45.6125 55.8816 45.5487 55.9341 45.4912 55.9916C45.4337 56.0491 45.3813 56.1128 45.3363 56.1816C45.2913 56.2491 45.2525 56.3216 45.2212 56.3978C45.19 56.4728 45.165 56.5516 45.15 56.6316C45.1338 56.7116 45.125 56.7941 45.125 56.8753C45.125 56.9566 45.1338 57.0391 45.15 57.1191C45.165 57.1991 45.19 57.2778 45.2212 57.3528C45.2525 57.4291 45.2913 57.5016 45.3363 57.5691C45.3813 57.6378 45.4337 57.7016 45.4912 57.7591C45.5199 57.7877 45.5501 57.8151 45.5816 57.841C45.6135 57.867 45.6468 57.8916 45.6813 57.9141C45.7488 57.9591 45.8212 57.9978 45.8975 58.0291C45.9725 58.0603 46.0512 58.0853 46.1312 58.1003C46.2112 58.1166 46.2938 58.1253 46.375 58.1253C46.4562 58.1253 46.5388 58.1166 46.6188 58.1003C46.6988 58.0853 46.7775 58.0603 46.8525 58.0291C46.9288 57.9978 47.0012 57.9591 47.0687 57.9141C47.1032 57.8915 47.1365 57.867 47.1684 57.841C47.2 57.8151 47.2301 57.7877 47.2588 57.7591C47.3163 57.7016 47.3687 57.6378 47.4137 57.5691C47.4587 57.5016 47.4975 57.4291 47.5288 57.3528C47.56 57.2778 47.585 57.1991 47.6012 57.1191C47.6175 57.0391 47.625 56.9566 47.625 56.8753C47.625 56.7941 47.6175 56.7116 47.6012 56.6316C47.585 56.5515 47.56 56.4727 47.5288 56.3978Z" fill="#F81D3D"/>
<path d="M27.8563 6.93142C27.825 6.85642 27.7863 6.78392 27.7413 6.71517C27.6963 6.64767 27.6438 6.58267 27.5863 6.52517C27.5288 6.46767 27.465 6.41517 27.3963 6.37017C27.3288 6.32517 27.2563 6.28642 27.18 6.25517C27.105 6.22392 27.0263 6.20017 26.9463 6.18392C26.785 6.15142 26.62 6.15142 26.4588 6.18392C26.3788 6.20017 26.3 6.22392 26.2238 6.25517C26.1488 6.28642 26.0763 6.32517 26.0088 6.37017C25.94 6.41517 25.8763 6.46767 25.8188 6.52517C25.7613 6.58267 25.7088 6.64767 25.6625 6.71517C25.6175 6.78392 25.58 6.85642 25.5488 6.93142C25.5175 7.00642 25.4925 7.08517 25.4775 7.16517C25.4613 7.24642 25.4525 7.32767 25.4525 7.41017C25.4525 7.49142 25.4613 7.57267 25.4775 7.65392C25.4925 7.73392 25.5175 7.81267 25.5488 7.88767C25.58 7.96267 25.6175 8.03517 25.6625 8.10392C25.7088 8.17142 25.7613 8.23642 25.8188 8.29392C25.8763 8.35142 25.94 8.40392 26.0088 8.44892C26.0763 8.49392 26.1488 8.53267 26.2238 8.56392C26.3 8.59517 26.3788 8.61892 26.4588 8.63517C26.5388 8.65142 26.6213 8.66017 26.7025 8.66017C26.7838 8.66017 26.8663 8.65142 26.9463 8.63517C27.0263 8.61892 27.105 8.59517 27.18 8.56392C27.2563 8.53267 27.3288 8.49392 27.3963 8.44892C27.465 8.40392 27.5288 8.35142 27.5863 8.29392C27.6438 8.23642 27.6963 8.17142 27.7413 8.10392C27.7863 8.03517 27.825 7.96267 27.8563 7.88767C27.8875 7.81267 27.9125 7.73392 27.9275 7.65392C27.9438 7.57267 27.9525 7.49142 27.9525 7.41017C27.9525 7.32767 27.9438 7.24642 27.9275 7.16517C27.9125 7.08517 27.8875 7.00642 27.8563 6.93142Z" fill="#F81D3D"/>
<path d="M57.016 6.16487C56.2665 2.99624 53.416 0.630615 50.0215 0.630615H10.8021C4.84587 0.63049 0 5.47637 0 11.4326V50.652C0 54.5471 3.11463 57.7264 6.984 57.8355C7.7335 61.0041 10.584 63.3697 13.9785 63.3697H56.8112C60.7751 63.3697 64 60.1449 64 56.181V46.7487V13.3482C64 9.45324 60.8854 6.27399 57.016 6.16487ZM61.5 56.1812C61.5 58.7666 59.3966 60.87 56.8112 60.87H13.9785C11.9773 60.87 10.2657 59.6094 9.59412 57.8409C9.398 57.3246 9.28975 56.7655 9.28975 56.1812V55.3409V49.5497L23.6304 25.2342C24.067 24.494 24.8456 24.0617 25.6999 24.0755C26.5592 24.0902 27.3176 24.5495 27.7286 25.3044L33.9031 36.6421L42.8783 53.1225C43.105 53.539 43.5341 53.7749 43.9771 53.7749C44.1791 53.7749 44.384 53.7257 44.5739 53.6224C45.1801 53.2921 45.404 52.533 45.0739 51.9267L42.1614 46.5786C43.4401 46.6376 44.6979 46.2235 45.6995 45.3926L51.3209 40.7294C52.2224 39.9815 53.5535 40.0144 54.417 40.806L54.7105 41.075L57.2105 43.3666L61.5 47.2987V56.1812ZM61.5 43.9072L57.2104 39.975L54.7104 38.0714C53.0815 37.3901 51.1447 37.6271 49.7246 38.8051L44.1032 43.4684C43.485 43.9814 42.6777 44.1886 41.8887 44.037C41.0997 43.8855 40.4269 43.3937 40.0426 42.6882L36.0986 35.4462L33.8964 31.4024V31.4022L29.9242 24.1085C29.077 22.5529 27.5138 21.606 25.7426 21.5757C23.972 21.548 22.3769 22.4384 21.477 23.9641L9.28963 44.6285V13.3482C9.28963 10.7629 11.393 8.65949 13.9784 8.65949H21.7024C22.3927 8.65949 22.9524 8.09987 22.9524 7.40949C22.9524 6.71912 22.3927 6.15949 21.7024 6.15949H13.9784C10.0145 6.15949 6.78963 9.38437 6.78963 13.3482V49.2085V55.3225C4.3905 55.1191 2.5 53.1029 2.5 50.652V11.4326C2.5 6.85474 6.22437 3.13049 10.8021 3.13049H50.0215C52.0228 3.13049 53.7343 4.39112 54.4059 6.15962H31.7024C31.012 6.15962 30.4524 6.71924 30.4524 7.40962C30.4524 8.09999 31.012 8.65962 31.7024 8.65962H54.7103L57.2103 8.67787C59.6095 8.88111 61.5 10.8974 61.5 13.3482V43.9072Z" fill="white"/>
</svg>
