<svg width="64" height="64" viewBox="0 0 64 64" fill="none" xmlns="http://www.w3.org/2000/svg">
<path d="M63.6394 12.6683L51.3317 0.360615C51.1015 0.129231 50.7877 0 50.4615 0H49.2308H18.4615C15.0683 0 12.3077 2.76062 12.3077 6.15385H6.15385C2.76062 6.15385 0 8.91446 0 12.3077V18.4615C0 21.8548 2.76062 24.6154 6.15385 24.6154H12.3077V52.9231C12.3077 56.3163 15.0683 59.0769 18.4615 59.0769H22.1538C22.8332 59.0769 23.3846 58.5268 23.3846 57.8462C23.3846 57.1655 22.8332 56.6154 22.1538 56.6154H18.4615C16.4258 56.6154 14.7692 54.9588 14.7692 52.9231V24.6154H38.1538C41.5471 24.6154 44.3077 21.8548 44.3077 18.4615V12.3077C44.3077 8.91446 41.5471 6.15385 38.1538 6.15385H14.7692C14.7692 4.11815 16.4258 2.46154 18.4615 2.46154H48V9.84615C48 13.2394 50.7606 16 54.1538 16H61.5385V52.9231C61.5385 54.9588 59.8818 56.6154 57.8462 56.6154H54.1538C53.4745 56.6154 52.9231 57.1655 52.9231 57.8462C52.9231 58.5268 53.4745 59.0769 54.1538 59.0769H57.8462C61.2394 59.0769 64 56.3163 64 52.9231V14.7692V13.5385C64 13.2111 63.8708 12.8985 63.6394 12.6683ZM38.1538 8.61539C40.1895 8.61539 41.8462 10.272 41.8462 12.3077V18.4615C41.8462 20.4972 40.1895 22.1538 38.1538 22.1538H6.15385C4.11815 22.1538 2.46154 20.4972 2.46154 18.4615V12.3077C2.46154 10.272 4.11815 8.61539 6.15385 8.61539H38.1538ZM54.1538 13.5385C52.1182 13.5385 50.4615 11.8818 50.4615 9.84615V2.97108L61.0289 13.5385H54.1538Z" fill="white"/>
<path d="M45.5385 39.3846H30.7692C27.376 39.3846 24.6154 42.1453 24.6154 45.5385V57.8462C24.6154 61.2394 27.376 64 30.7692 64H45.5385C48.9317 64 51.6923 61.2394 51.6923 57.8462V45.5385C51.6923 42.1453 48.9317 39.3846 45.5385 39.3846ZM49.2308 57.8462C49.2308 59.8819 47.5742 61.5385 45.5385 61.5385H30.7692C28.7335 61.5385 27.0769 59.8819 27.0769 57.8462V45.5385C27.0769 43.5028 28.7335 41.8462 30.7692 41.8462H45.5385C47.5742 41.8462 49.2308 43.5028 49.2308 45.5385V57.8462Z" fill="#F81D3D"/>
<path d="M40.6154 45.0289L33.2308 52.4135V57.8462H38.6634L46.048 50.4615L40.6154 45.0289ZM37.6443 55.3846H35.6923V53.4326L40.6154 48.5095L42.5674 50.4615L37.6443 55.3846Z" fill="#F81D3D"/>
</svg>
