<svg width="59" height="59" viewBox="0 0 59 59" fill="none" xmlns="http://www.w3.org/2000/svg">
<path d="M29.5 34.9409C23.3068 34.9409 18.2683 39.9794 18.2683 46.1726C18.2683 49.6909 19.8949 52.836 22.4351 54.897C22.4831 54.9428 22.5352 54.9847 22.5911 55.0219C24.4979 56.5138 26.8969 57.4042 29.5 57.4042C32.1031 57.4042 34.5021 56.5138 36.4089 55.0219C36.4649 54.9847 36.5168 54.9428 36.5649 54.897C39.105 52.836 40.7317 49.6909 40.7317 46.1726C40.7317 39.9793 35.6932 34.9409 29.5 34.9409ZM29.5 55.0996C27.6783 55.0996 25.9828 54.5499 24.569 53.6092C25.3268 51.6627 27.2922 50.3132 29.5 50.3132C31.7078 50.3132 33.6732 51.6627 34.431 53.6092C33.0171 54.5499 31.3217 55.0996 29.5 55.0996ZM27.47 46.1725C27.47 45.16 28.2936 44.3364 29.3059 44.3364C30.3183 44.3364 31.142 45.16 31.142 46.1725C31.142 47.1849 30.3183 48.0085 29.3059 48.0085C28.2936 48.0085 27.47 47.1849 27.47 46.1725ZM36.2349 52.022C35.4472 50.5355 34.1567 49.3535 32.608 48.6674C33.1339 47.973 33.4465 47.1087 33.4465 46.1726C33.4465 43.8894 31.5891 42.0319 29.3058 42.0319C27.0227 42.0319 25.1652 43.8893 25.1652 46.1726C25.1652 47.1694 25.5193 48.0848 26.1082 48.8002C24.6859 49.5008 23.504 50.6273 22.765 52.0221C21.4013 50.4541 20.5729 48.4089 20.5729 46.1726C20.5729 41.2502 24.5775 37.2456 29.4999 37.2456C34.4222 37.2456 38.4269 41.2502 38.4269 46.1726C38.427 48.4088 37.5986 50.454 36.2349 52.022Z" fill="#2A2A2A"/>
<path d="M11.2317 1.59564C5.03851 1.59564 0 6.63427 0 12.8274C0 16.3459 1.62665 19.491 4.16687 21.5519C4.21481 21.5977 4.26678 21.6394 4.32256 21.6766C6.22934 23.1687 8.6284 24.0591 11.2317 24.0591C13.8349 24.0591 16.234 23.1686 18.1408 21.6765C18.1965 21.6394 18.2484 21.5977 18.2963 21.5519C20.8366 19.491 22.4633 16.3458 22.4633 12.8273C22.4633 6.63415 17.4248 1.59564 11.2317 1.59564ZM11.2317 21.7545C9.40992 21.7544 7.7146 21.2047 6.30067 20.2642C7.05845 18.3176 9.02389 16.9681 11.2317 16.9681C13.4394 16.9681 15.4049 18.3176 16.1627 20.2642C14.7487 21.2048 13.0535 21.7545 11.2317 21.7545ZM9.20158 12.8275C9.20158 11.8152 10.0252 10.9915 11.0376 10.9915C12.0501 10.9915 12.8736 11.8151 12.8736 12.8275C12.8736 13.84 12.0499 14.6635 11.0376 14.6635C10.0253 14.6635 9.20158 13.8399 9.20158 12.8275ZM17.9665 18.6768C17.179 17.1903 15.8884 16.0085 14.3397 15.3222C14.8656 14.628 15.1782 13.7636 15.1782 12.8274C15.1782 10.5443 13.3207 8.68671 11.0375 8.68671C8.75424 8.68671 6.89678 10.5442 6.89678 12.8274C6.89678 13.8241 7.25089 14.7396 7.83974 15.455C6.4174 16.1556 5.23556 17.2822 4.49668 18.677C3.13311 17.109 2.30469 15.0638 2.30469 12.8274C2.30469 7.90507 6.30931 3.90044 11.2317 3.90044C16.154 3.90044 20.1586 7.90507 20.1586 12.8274C20.1586 15.0637 19.3302 17.1088 17.9665 18.6768Z" fill="#2A2A2A"/>
<path d="M47.7683 1.59576C41.5752 1.59576 36.5367 6.63427 36.5367 12.8274C36.5367 16.346 38.1634 19.4912 40.7038 21.5522C40.7516 21.5978 40.8033 21.6394 40.859 21.6765C42.7658 23.1686 45.165 24.0591 47.7682 24.0591C50.3715 24.0591 52.7705 23.1687 54.6773 21.6766C54.7332 21.6394 54.7851 21.5977 54.8331 21.5519C57.3734 19.4911 59 16.3459 59 12.8274C59 6.63427 53.9615 1.59576 47.7683 1.59576ZM47.7683 21.7545C45.9465 21.7544 44.2512 21.2047 42.8373 20.2642C43.5951 18.3177 45.5604 16.9681 47.7683 16.9681C49.9762 16.9681 51.9415 18.3177 52.6993 20.2642C51.2854 21.2049 49.5901 21.7545 47.7683 21.7545ZM45.7383 12.8275C45.7383 11.8152 46.5618 10.9915 47.5743 10.9915C48.5867 10.9915 49.4102 11.8151 49.4102 12.8275C49.4102 13.84 48.5866 14.6635 47.5743 14.6635C46.5619 14.6635 45.7383 13.8399 45.7383 12.8275ZM54.5032 18.6768C53.7156 17.1903 52.4251 16.0084 50.8763 15.3223C51.4023 14.628 51.7149 13.7636 51.7149 12.8274C51.7149 10.5443 49.8574 8.68671 47.5743 8.68671C45.2911 8.68671 43.4336 10.5442 43.4336 12.8274C43.4336 13.8241 43.7877 14.7396 44.3765 15.4549C42.9541 16.1555 41.7723 17.282 41.0333 18.6768C39.6698 17.109 38.8412 15.0638 38.8412 12.8274C38.8412 7.90508 42.8459 3.90045 47.7682 3.90045C52.6906 3.90045 56.6953 7.90508 56.6953 12.8274C56.6953 15.0637 55.8669 17.1088 54.5032 18.6768Z" fill="#2A2A2A"/>
<path d="M16.2454 40.9583C16.2407 40.9543 16.2356 40.9498 16.2315 40.9464C15.7456 40.5353 15.0185 40.5959 14.6075 41.0816C14.1991 41.5642 14.2562 42.2849 14.7332 42.6975C14.7379 42.7015 14.743 42.706 14.7471 42.7094C14.9635 42.8925 15.2279 42.9821 15.491 42.9821C15.8182 42.9821 16.1433 42.8435 16.3712 42.574C16.7794 42.0915 16.7224 41.3708 16.2454 40.9583Z" fill="#F81D3D"/>
<path d="M13.9971 38.6472C13.9948 38.6444 13.9851 38.6328 13.9828 38.6301C13.5736 38.1446 12.8506 38.0837 12.3638 38.4913C11.877 38.8988 11.8133 39.6253 12.2191 40.1136L12.221 40.1159C12.4489 40.3915 12.7779 40.534 13.1096 40.534C13.3683 40.534 13.6284 40.4473 13.8433 40.2696C14.3338 39.864 14.4027 39.1377 13.9971 38.6472Z" fill="#F81D3D"/>
<path d="M12.1288 36.0046C12.1263 36.0004 12.118 35.9864 12.1155 35.9823C11.7866 35.4373 11.0769 35.2597 10.5321 35.5886C9.98713 35.9175 9.81059 36.6234 10.1394 37.1683L10.1405 37.1701C10.355 37.5361 10.7401 37.7398 11.1357 37.7398C11.3336 37.7398 11.5343 37.6888 11.7174 37.5814C12.2665 37.2596 12.4506 36.5537 12.1288 36.0046Z" fill="#F81D3D"/>
<path d="M9.73892 29.9958C9.60479 29.3737 8.99197 28.9779 8.36982 29.112C7.74767 29.246 7.35195 29.8589 7.48597 30.4811C7.48689 30.4854 7.49035 30.5007 7.49127 30.5049C7.61284 31.0398 8.08819 31.403 8.61446 31.403C8.6987 31.4029 8.78455 31.3935 8.8704 31.374C9.49093 31.233 9.87997 30.6164 9.73892 29.9958Z" fill="#F81D3D"/>
<path d="M10.6942 33.0934C10.6934 33.0914 10.6885 33.0789 10.6876 33.0769C10.4497 32.4869 9.77902 32.2019 9.1889 32.4394C8.59879 32.6769 8.31301 33.3484 8.55016 33.9386L8.55212 33.9435C8.73154 34.3955 9.16505 34.6711 9.62357 34.6711C9.76496 34.6711 9.90889 34.6448 10.0483 34.5895C10.6397 34.3547 10.9289 33.6849 10.6942 33.0934Z" fill="#F81D3D"/>
<path d="M44.3927 41.0817C43.9815 40.5958 43.2545 40.5353 42.7685 40.9463C42.7645 40.9497 42.7594 40.954 42.7548 40.9581C42.2775 41.3705 42.2205 42.0913 42.6289 42.574C42.8568 42.8434 43.1819 42.982 43.5092 42.982C43.7721 42.982 44.0365 42.8925 44.253 42.7094C44.257 42.7061 44.2621 42.7017 44.2667 42.6976C44.744 42.2852 44.8011 41.5644 44.3927 41.0817Z" fill="#F81D3D"/>
<path d="M49.812 32.4391C49.2214 32.201 48.5503 32.4865 48.3124 33.0769C48.3115 33.0788 48.3066 33.0914 48.3058 33.0934C48.0715 33.6838 48.3612 34.3471 48.951 34.583C49.0902 34.6387 49.2338 34.6649 49.3753 34.6649C49.8334 34.6649 50.2683 34.3888 50.4498 33.9387C50.6878 33.3485 50.4022 32.677 49.812 32.4391Z" fill="#F81D3D"/>
<path d="M46.641 38.4918C46.1544 38.0816 45.4275 38.1435 45.0172 38.63C45.0148 38.6328 45.0052 38.6444 45.0028 38.6472C44.5987 39.136 44.6691 39.8552 45.156 40.2617C45.3703 40.4407 45.6313 40.5278 45.8912 40.5278C46.2215 40.5278 46.5503 40.3871 46.7792 40.1156C47.1894 39.629 47.1276 38.902 46.641 38.4918Z" fill="#F81D3D"/>
<path d="M50.6348 29.1161C50.0155 28.9794 49.4013 29.3727 49.262 29.9916L49.2614 29.994C49.1204 30.6147 49.5092 31.2321 50.1297 31.3731C50.2157 31.3926 50.3015 31.402 50.3862 31.402C50.9122 31.402 51.3874 31.0394 51.5088 30.5047C51.5098 30.5005 51.5132 30.4851 51.5141 30.4809C51.6477 29.8609 51.2543 29.2525 50.6348 29.1161Z" fill="#F81D3D"/>
<path d="M48.4665 35.5909C47.9217 35.2623 47.2134 35.4373 46.8845 35.9822C46.882 35.9864 46.8737 36.0005 46.8712 36.0046C46.5494 36.5537 46.7327 37.261 47.2818 37.5829C47.4653 37.6905 47.6662 37.7416 47.8644 37.7416C48.2593 37.7416 48.6435 37.5385 48.8579 37.1728C49.1866 36.628 49.0114 35.9198 48.4665 35.5909Z" fill="#F81D3D"/>
<path d="M50.9306 25.7043C50.294 25.6679 49.7514 26.1563 49.7156 26.7915C49.7156 26.7918 49.7155 26.7951 49.7155 26.7955C49.6801 27.4309 50.1668 27.9717 50.8022 28.0069C50.8239 28.0081 50.8454 28.0088 50.8669 28.0088C51.4742 28.0088 51.9828 27.5311 52.0169 26.9173C52.0522 26.282 51.5659 25.7398 50.9306 25.7043Z" fill="#F81D3D"/>
<path d="M36.6702 3.67831L36.6593 3.67474C36.0535 3.47884 35.404 3.81141 35.2085 4.41697C35.0127 5.02252 35.345 5.6721 35.9507 5.86777L35.9617 5.87134C36.0794 5.90937 36.1988 5.92746 36.3161 5.92746C36.8026 5.92746 37.2548 5.6169 37.4125 5.12911C37.6081 4.52356 37.2758 3.87398 36.6702 3.67831Z" fill="#F81D3D"/>
<path d="M33.129 2.84649L33.0985 2.84176C32.4684 2.74923 31.8796 3.18389 31.7869 3.81353C31.6945 4.44317 32.1261 5.02799 32.7557 5.12064C32.8189 5.13101 32.8818 5.13608 32.9438 5.13608C33.4981 5.13608 33.9868 4.73506 34.0794 4.1703C34.1825 3.54227 33.757 2.94962 33.129 2.84649Z" fill="#F81D3D"/>
<path d="M29.4862 2.58606L29.4577 2.58629C28.8214 2.59574 28.3103 3.11913 28.3198 3.75546C28.329 4.38614 28.8404 4.89086 29.4689 4.89086C29.4747 4.89086 29.4804 4.89086 29.4862 4.89075C30.1226 4.89075 30.6385 4.37484 30.6385 3.7384C30.6385 3.10196 30.1226 2.58606 29.4862 2.58606Z" fill="#F81D3D"/>
<path d="M23.7491 4.45231C23.5645 3.84318 22.9208 3.49909 22.3121 3.6837L22.2964 3.68854C21.688 3.87568 21.3499 4.51949 21.5371 5.12781C21.6894 5.62286 22.1472 5.94056 22.6404 5.94056C22.753 5.94056 22.8675 5.92397 22.9805 5.88928C23.5896 5.70468 23.9337 5.06132 23.7491 4.45231Z" fill="#F81D3D"/>
<path d="M27.1724 3.85722C27.0707 3.22897 26.4813 2.80145 25.8532 2.90331L26.0211 4.04344L25.851 2.90366C25.2216 2.99758 24.7875 3.584 24.8813 4.21353C24.9667 4.78532 25.4584 5.1959 26.0196 5.1959C26.0762 5.1959 26.1335 5.19175 26.1912 5.18311C26.1959 5.18242 26.2118 5.17989 26.2164 5.17919C26.8447 5.07756 27.274 4.48548 27.1724 3.85722Z" fill="#F81D3D"/>
<path d="M9.25989 26.5408C9.12576 25.9187 8.51294 25.5228 7.89079 25.657C7.26864 25.791 6.87293 26.4039 7.00694 27.0261C7.00787 27.0303 7.01132 27.0457 7.01225 27.0499C7.13382 27.5847 7.60916 27.9479 8.13543 27.9479C8.21967 27.9479 8.30552 27.9385 8.39137 27.919C9.01191 27.778 9.40094 27.1614 9.25989 26.5408Z" fill="#F81D3D"/>
</svg>
