<svg width="59" height="59" viewBox="0 0 59 59" fill="none" xmlns="http://www.w3.org/2000/svg">
<g clip-path="url(#clip0)">
<path d="M57.442 34.5325H55.7537L51.5723 20.4007C50.8989 18.1245 48.7706 16.5348 46.3969 16.5348H42.4727C41.995 16.5348 41.6079 16.922 41.6079 17.3997C41.6079 17.8774 41.9951 18.2645 42.4727 18.2645H46.3969C48.01 18.2645 49.4561 19.3448 49.9138 20.8915L53.9499 34.5326H5.05015L9.08623 20.8914C9.54394 19.3447 10.99 18.2644 12.6031 18.2644H38.4441C38.9219 18.2644 39.309 17.8772 39.309 17.3996C39.309 16.9219 38.9218 16.5347 38.4441 16.5347H12.6031C10.2294 16.5347 8.10109 18.1245 7.42766 20.4006L3.24627 34.5325H1.55797C0.698897 34.5325 0 35.2314 0 36.0905V40.9071C0 41.7662 0.698897 42.4652 1.55797 42.4652H11.2229C11.7007 42.4652 12.0877 42.078 12.0877 41.6004C12.0877 41.1226 11.7006 40.7356 11.2229 40.7356H1.72967V36.2622H3.89227H55.1077H57.2703V40.7356H15.2396C14.7619 40.7356 14.3748 41.1227 14.3748 41.6004C14.3748 42.078 14.762 42.4652 15.2396 42.4652H57.442C58.3011 42.4652 59 41.7662 59 40.9071V36.0905C59 35.2314 58.3011 34.5325 57.442 34.5325Z" fill="black"/>
<path d="M37.073 22.795C37.073 21.8391 36.2954 21.0616 35.3396 21.0616H32.6047C31.6488 21.0616 30.8713 21.8392 30.8713 22.795V25.5337H28.1291V22.795C28.1291 21.8391 27.3515 21.0616 26.3957 21.0616H23.6607C22.7049 21.0616 21.9274 21.8392 21.9274 22.795V25.5337H19.1887C18.233 25.5337 17.4554 26.3113 17.4554 27.267V30.0021C17.4554 30.9579 18.233 31.7355 19.1887 31.7355H21.9237C22.8796 31.7355 23.6571 30.9579 23.6571 30.0021V27.2634H26.3995V30.0021C26.3995 30.9579 27.1771 31.7355 28.1329 31.7355H30.868C31.8237 31.7355 32.6013 30.9579 32.6013 30.0021V27.2634H35.3438V30.0021C35.3438 30.9579 36.1214 31.7355 37.0771 31.7355H39.8121C40.7679 31.7355 41.5455 30.9579 41.5455 30.0021V27.267C41.5455 26.3113 40.7679 25.5337 39.8121 25.5337H37.0735V22.795H37.073ZM21.9234 30.0057H19.1884L19.1848 30.0021L19.1884 27.2634H21.9261L21.9234 30.0057ZM23.6605 22.7913L26.3992 22.795V25.5337H23.6576L23.6605 22.7913ZM30.8675 30.0057H28.1324L28.1288 27.2634H30.8703L30.8675 30.0057ZM32.6045 22.7913L35.3432 22.795V25.5337H32.6017L32.6045 22.7913ZM39.8152 27.267L39.8117 30.0057H37.0767L37.073 27.2643L39.8152 27.267Z" fill="#F81D3D"/>
</g>
<defs>
<clipPath id="clip0">
<rect width="59" height="59" fill="white"/>
</clipPath>
</defs>
</svg>
